<svg width="16" height="16" viewBox="0 0 16 16" fill="none" xmlns="http://www.w3.org/2000/svg">
  <path d="M15.6845 6.43731L15.663 6.38131L13.4921 0.851358C13.4482 0.742776 13.37 0.650665 13.2689 0.58836C13.1935 0.541197 13.1078 0.511951 13.0187 0.502963C12.9296 0.493976 12.8395 0.505499 12.7558 0.536608C12.6721 0.567717 12.597 0.617547 12.5366 0.682104C12.4761 0.746661 12.432 0.824149 12.4077 0.908358L10.9424 5.28932H5.0083L3.54295 0.908358C3.51851 0.824275 3.47429 0.746933 3.41381 0.682499C3.35333 0.618066 3.27827 0.568324 3.19462 0.53724C3.11097 0.506157 3.02104 0.494591 2.93199 0.503467C2.84295 0.512342 2.75727 0.541413 2.68177 0.58836C2.58066 0.650665 2.50248 0.742776 2.45854 0.851358L0.288679 6.38231L0.266151 6.43731C-0.0462451 7.23461 -0.0847311 8.10949 0.156495 8.93001C0.39772 9.75054 0.905581 10.4722 1.6035 10.9863L1.61169 10.9923L1.63012 11.0063L4.93253 13.4233L6.57093 14.6322L7.56626 15.3672C7.68304 15.4534 7.8254 15.5 7.97176 15.5C8.11812 15.5 8.26048 15.4534 8.37727 15.3672L9.37259 14.6322L11.011 13.4233L14.337 10.9923L14.3462 10.9853C15.044 10.4714 15.552 9.74996 15.7934 8.92964C16.0348 8.10932 15.9966 7.23459 15.6845 6.43731V6.43731Z" fill="black"/>
</svg>
