<svg width="873" height="727" viewBox="0 0 873 727" fill="none" xmlns="http://www.w3.org/2000/svg">
    <!-- lights -->
    <g filter="url(#filter0_f_242_122856)">
        <g filter="url(#filter1_f_242_122856)">
            <circle cx="652.5" cy="220.5" r="160.5" fill="url(#paint0_radial_242_122856)"/>
        </g>
        <g filter="url(#filter2_f_242_122856)">
            <circle cx="273" cy="302" r="213" fill="url(#paint1_radial_242_122856)"/>
        </g>
        <g filter="url(#filter3_f_242_122856)">
            <circle cx="559.5" cy="418.5" r="248.5" fill="url(#paint2_radial_242_122856)"/>
        </g>
    </g>
    
    <!-- interface -->
    <g clip-path="url(#clip0_242_122856)">
        <!-- sidebar -->
        <g>
            <path d="M207.537 180.524H326.709V533.35H207.537V180.524Z" fill="var(--vscode-sideBar-background, #222024)"/>
            <path d="M207.537 250.506H326.709V268.001H207.537V250.506Z" fill="var(--vscode-list-activeSelectionBackground)"/>
            <path d="M211.793 188.882C211.793 188.338 211.793 188.066 211.886 187.858C211.967 187.675 212.098 187.526 212.258 187.433C212.44 187.327 212.678 187.327 213.155 187.327H250.439C250.915 187.327 251.154 187.327 251.336 187.433C251.496 187.526 251.626 187.675 251.708 187.858C251.801 188.066 251.801 188.338 251.801 188.882V189.66C251.801 190.204 251.801 190.477 251.708 190.685C251.626 190.867 251.496 191.016 251.336 191.109C251.154 191.215 250.915 191.215 250.439 191.215H213.155C212.678 191.215 212.44 191.215 212.258 191.109C212.098 191.016 211.967 190.867 211.886 190.685C211.793 190.477 211.793 190.204 211.793 189.66V188.882Z" fill="var(--vscode-sideBarTitle-foreground)"/>
            <path d="M223.71 223.874C223.71 223.329 223.71 223.057 223.803 222.849C223.885 222.666 224.015 222.518 224.175 222.424C224.357 222.318 224.595 222.318 225.072 222.318H291.298C291.774 222.318 292.013 222.318 292.195 222.424C292.355 222.518 292.485 222.666 292.567 222.849C292.66 223.057 292.66 223.329 292.66 223.874V224.651C292.66 225.195 292.66 225.468 292.567 225.676C292.485 225.858 292.355 226.007 292.195 226.1C292.013 226.206 291.774 226.206 291.298 226.206H225.072C224.595 226.206 224.357 226.206 224.175 226.1C224.015 226.007 223.885 225.858 223.803 225.676C223.71 225.468 223.71 225.195 223.71 224.651V223.874Z" fill="var(--vscode-sideBarTitle-foreground)"/>
            <path d="M223.71 241.369C223.71 240.825 223.71 240.553 223.803 240.345C223.885 240.162 224.015 240.013 224.175 239.92C224.357 239.814 224.595 239.814 225.072 239.814H276.827C277.304 239.814 277.542 239.814 277.724 239.92C277.884 240.013 278.014 240.162 278.096 240.345C278.189 240.553 278.189 240.825 278.189 241.369V242.147C278.189 242.691 278.189 242.963 278.096 243.171C278.014 243.354 277.884 243.503 277.724 243.596C277.542 243.702 277.304 243.702 276.827 243.702H225.072C224.595 243.702 224.357 243.702 224.175 243.596C224.015 243.503 223.885 243.354 223.803 243.171C223.71 242.963 223.71 242.691 223.71 242.147V241.369Z" fill="var(--vscode-sideBarTitle-foreground)"/>
            <path d="M223.71 258.865C223.71 258.32 223.71 258.048 223.803 257.84C223.885 257.657 224.015 257.509 224.175 257.415C224.357 257.309 224.595 257.309 225.072 257.309H300.661C301.138 257.309 301.376 257.309 301.558 257.415C301.718 257.509 301.849 257.657 301.93 257.84C302.023 258.048 302.023 258.32 302.023 258.865V259.642C302.023 260.187 302.023 260.459 301.93 260.667C301.849 260.849 301.718 260.998 301.558 261.091C301.376 261.197 301.138 261.197 300.661 261.197H225.072C224.595 261.197 224.357 261.197 224.175 261.091C224.015 260.998 223.885 260.849 223.803 260.667C223.71 260.459 223.71 260.187 223.71 259.642V258.865Z" fill="var(--vscode-list-activeSelectionForeground)"/>
            <path d="M211.793 206.378C211.793 205.834 211.793 205.561 211.886 205.354C211.967 205.171 212.098 205.022 212.258 204.929C212.44 204.823 212.678 204.823 213.155 204.823H224.051C224.527 204.823 224.766 204.823 224.948 204.929C225.108 205.022 225.238 205.171 225.32 205.354C225.413 205.561 225.413 205.834 225.413 206.378V207.156C225.413 207.7 225.413 207.972 225.32 208.18C225.238 208.363 225.108 208.512 224.948 208.605C224.766 208.711 224.527 208.711 224.051 208.711H213.155C212.678 208.711 212.44 208.711 212.258 208.605C212.098 208.512 211.967 208.363 211.886 208.18C211.793 207.972 211.793 207.7 211.793 207.156V206.378Z" fill="var(--vscode-sideBarTitle-foreground)"/>
            <path d="M228.818 206.378C228.818 205.834 228.818 205.561 228.91 205.354C228.992 205.171 229.122 205.022 229.282 204.929C229.464 204.823 229.703 204.823 230.179 204.823H255.546C256.023 204.823 256.261 204.823 256.443 204.929C256.603 205.022 256.734 205.171 256.815 205.354C256.908 205.561 256.908 205.834 256.908 206.378V207.156C256.908 207.7 256.908 207.972 256.815 208.18C256.734 208.363 256.603 208.512 256.443 208.605C256.261 208.711 256.023 208.711 255.546 208.711H230.179C229.703 208.711 229.464 208.711 229.282 208.605C229.122 208.512 228.992 208.363 228.91 208.18C228.818 207.972 228.818 207.7 228.818 207.156V206.378Z" fill="var(--vscode-sideBarTitle-foreground)"/>
            <path d="M260.313 206.378C260.313 205.834 260.313 205.561 260.406 205.354C260.487 205.171 260.618 205.022 260.778 204.929C260.96 204.823 261.198 204.823 261.675 204.823H283.637C284.113 204.823 284.352 204.823 284.534 204.929C284.694 205.022 284.824 205.171 284.906 205.354C284.998 205.561 284.998 205.834 284.998 206.378V207.156C284.998 207.7 284.998 207.972 284.906 208.18C284.824 208.363 284.694 208.512 284.534 208.605C284.352 208.711 284.113 208.711 283.637 208.711H261.675C261.198 208.711 260.96 208.711 260.778 208.605C260.618 208.512 260.487 208.363 260.406 208.18C260.313 207.972 260.313 207.7 260.313 207.156V206.378Z" fill="var(--vscode-sideBarTitle-foreground)"/>
        </g>

        <!-- browser header -->
        <g>
            <path d="M182 164H692.736V180.524H182V164Z" fill="#F6F3FE"/>
            <path d="M196.471 172.262C196.471 174.141 195.137 175.664 193.492 175.664C191.846 175.664 190.512 174.141 190.512 172.262C190.512 170.383 191.846 168.86 193.492 168.86C195.137 168.86 196.471 170.383 196.471 172.262Z" fill="#10B1B1"/>
            <path d="M206.686 172.262C206.686 174.141 205.352 175.664 203.706 175.664C202.061 175.664 200.727 174.141 200.727 172.262C200.727 170.383 202.061 168.86 203.706 168.86C205.352 168.86 206.686 170.383 206.686 172.262Z" fill="#7759C2"/>
            <path d="M216.9 172.262C216.9 174.141 215.566 175.664 213.921 175.664C212.276 175.664 210.942 174.141 210.942 172.262C210.942 170.383 212.276 168.86 213.921 168.86C215.566 168.86 216.9 170.383 216.9 172.262Z" fill="#FF9D73"/>
        </g>

        <!-- status bar -->
        <g>
            <path d="M238.181 533.35H692.736V552.789H238.181V533.35Z" fill="var(--vscode-sideBar-background, #222024)"/>
            <path d="M248.645 539.674C248.978 539.691 249.296 539.786 249.599 539.959C249.916 540.132 250.196 540.357 250.439 540.633C251.014 541.342 251.301 542.171 251.301 543.121C251.301 543.864 251.074 544.573 250.62 545.247C250.393 545.558 250.136 545.817 249.848 546.024C249.561 546.214 249.251 546.344 248.918 546.413C248.191 546.569 247.533 546.456 246.943 546.076C246.64 545.886 246.375 545.644 246.148 545.35C245.921 545.057 245.747 544.728 245.626 544.365C245.505 544.003 245.43 543.622 245.399 543.225C245.384 542.828 245.43 542.447 245.536 542.085C245.763 541.29 246.164 540.676 246.739 540.244C247.011 540.037 247.306 539.881 247.624 539.778C247.957 539.674 248.297 539.64 248.645 539.674ZM248.872 545.947C249.447 545.791 249.924 545.445 250.302 544.91C250.681 544.322 250.855 543.709 250.824 543.069C250.824 542.672 250.756 542.292 250.62 541.929C250.499 541.566 250.325 541.246 250.098 540.97C249.659 540.469 249.152 540.192 248.577 540.141C248.29 540.123 248.002 540.158 247.715 540.244C247.427 540.313 247.17 540.443 246.943 540.633C246.459 541.048 246.126 541.592 245.944 542.266C245.778 542.94 245.815 543.588 246.058 544.21C246.315 544.832 246.701 545.307 247.215 545.635C247.457 545.808 247.722 545.921 248.01 545.972C248.297 546.024 248.585 546.016 248.872 545.947ZM248.35 542.836L249.372 541.618L249.667 541.955L248.645 543.173L249.667 544.391L249.372 544.728L248.35 543.51L247.329 544.728L247.034 544.391L248.055 543.173L247.034 541.955L247.329 541.618L248.35 542.836Z" fill="var(--vscode-sideBarTitle-foreground)"/>
            <path d="M255.631 546.063C255.267 546.063 254.956 545.95 254.7 545.723C254.444 545.495 254.248 545.164 254.112 544.732C253.977 544.297 253.909 543.773 253.909 543.158C253.909 542.547 253.977 542.025 254.112 541.592C254.249 541.158 254.446 540.826 254.702 540.598C254.96 540.368 255.27 540.253 255.631 540.253C255.992 540.253 256.301 540.368 256.557 540.598C256.815 540.826 257.012 541.158 257.147 541.592C257.284 542.025 257.353 542.547 257.353 543.158C257.353 543.773 257.285 544.297 257.15 544.732C257.014 545.164 256.818 545.495 256.562 545.723C256.306 545.95 255.995 546.063 255.631 546.063ZM255.631 545.455C255.992 545.455 256.273 545.256 256.473 544.859C256.673 544.461 256.772 543.894 256.772 543.158C256.772 542.668 256.727 542.251 256.635 541.907C256.544 541.563 256.414 541.3 256.243 541.12C256.074 540.94 255.87 540.849 255.631 540.849C255.273 540.849 254.993 541.051 254.792 541.454C254.59 541.855 254.49 542.423 254.49 543.158C254.49 543.648 254.535 544.064 254.625 544.406C254.715 544.748 254.845 545.009 255.014 545.187C255.185 545.366 255.391 545.455 255.631 545.455Z" fill="var(--vscode-sideBarTitle-foreground)"/>
            <path d="M275.209 546.063C274.845 546.063 274.535 545.95 274.278 545.723C274.022 545.495 273.826 545.164 273.691 544.732C273.555 544.297 273.487 543.773 273.487 543.158C273.487 542.547 273.555 542.025 273.691 541.592C273.828 541.158 274.024 540.826 274.281 540.598C274.539 540.368 274.848 540.253 275.209 540.253C275.57 540.253 275.879 540.368 276.135 540.598C276.393 540.826 276.59 541.158 276.726 541.592C276.863 542.025 276.931 542.547 276.931 543.158C276.931 543.773 276.863 544.297 276.728 544.732C276.593 545.164 276.397 545.495 276.14 545.723C275.884 545.95 275.574 546.063 275.209 546.063ZM275.209 545.455C275.57 545.455 275.851 545.256 276.051 544.859C276.251 544.461 276.351 543.894 276.351 543.158C276.351 542.668 276.305 542.251 276.213 541.907C276.123 541.563 275.992 541.3 275.821 541.12C275.652 540.94 275.448 540.849 275.209 540.849C274.851 540.849 274.572 541.051 274.37 541.454C274.169 541.855 274.068 542.423 274.068 543.158C274.068 543.648 274.113 544.064 274.203 544.406C274.294 544.748 274.423 545.009 274.593 545.187C274.764 545.366 274.969 545.455 275.209 545.455Z" fill="var(--vscode-sideBarTitle-foreground)"/>
            <path d="M267.792 539.674H268.155L270.947 545.635L270.766 545.972H265.182L265 545.635L267.792 539.674ZM267.974 540.296L265.545 545.506H270.403L267.974 540.296ZM268.246 545.013V544.521H267.701V545.013H268.246ZM267.701 544.029V542.085H268.246V544.029H267.701Z" fill="var(--vscode-sideBarTitle-foreground)"/>
        </g>

        <!-- activity bar -->
        <g>
            <path d="M182 180.524H207.537V533.35H182V180.524Z" fill="var(--vscode-sideBar-background, #222024)"/>
            <path d="M199.876 187.094H189.661V186.355H199.876V187.094ZM199.876 192.926H189.661V192.187H199.876V192.926ZM199.876 190.01H189.661V189.271H199.876V190.01Z" fill="var(--vscode-sideBarTitle-foreground)"/>
            <path d="M196.164 226.206C195.461 226.206 194.814 226.427 194.224 226.867C193.656 227.282 193.225 227.852 192.93 228.578C192.657 229.304 192.567 230.055 192.657 230.833C192.771 231.61 193.055 232.284 193.509 232.855L190.104 237.326L190.58 237.792L193.985 233.36C194.598 233.904 195.279 234.189 196.028 234.215C196.8 234.241 197.504 234.008 198.139 233.516C198.775 233.023 199.218 232.362 199.467 231.533C199.717 230.703 199.728 229.874 199.501 229.044C199.274 228.189 198.843 227.502 198.207 226.984C197.595 226.465 196.914 226.206 196.164 226.206ZM196.164 233.477C195.642 233.477 195.154 233.334 194.7 233.049C194.269 232.764 193.917 232.375 193.645 231.883C193.395 231.364 193.27 230.807 193.27 230.211C193.27 229.615 193.395 229.07 193.645 228.578C193.917 228.059 194.269 227.658 194.7 227.373C195.154 227.088 195.642 226.945 196.164 226.945C196.687 226.945 197.163 227.088 197.595 227.373C198.026 227.658 198.366 228.059 198.616 228.578C198.888 229.07 199.025 229.615 199.025 230.211C199.025 230.807 198.888 231.364 198.616 231.883C198.366 232.375 198.026 232.777 197.595 233.088C197.163 233.373 196.687 233.516 196.164 233.516V233.477Z" fill="var(--vscode-sideBarTitle-foreground)"/>
            <path d="M198.139 253.227C197.867 252.916 197.538 252.748 197.152 252.722C196.789 252.67 196.448 252.761 196.13 252.994C195.858 253.201 195.654 253.473 195.518 253.81C195.495 253.914 195.472 254.018 195.449 254.121C194.769 254.044 194.19 253.733 193.713 253.188C193.236 252.644 192.964 251.983 192.896 251.205C192.987 251.205 193.077 251.18 193.168 251.128C193.463 250.972 193.702 250.752 193.883 250.467C194.065 250.156 194.156 249.819 194.156 249.456C194.156 249.197 194.11 248.95 194.019 248.717C193.861 248.251 193.577 247.927 193.168 247.745C192.964 247.642 192.748 247.59 192.521 247.59C192.203 247.59 191.908 247.693 191.636 247.901C191.386 248.108 191.193 248.38 191.057 248.717C190.944 249.054 190.91 249.404 190.955 249.767C191.023 250.13 191.171 250.441 191.398 250.7C191.625 250.959 191.897 251.128 192.215 251.205V254.899C192.011 254.951 191.818 255.041 191.636 255.171C191.386 255.378 191.193 255.664 191.057 256.026C190.944 256.363 190.91 256.713 190.955 257.076C191.023 257.413 191.171 257.711 191.398 257.97C191.625 258.23 191.897 258.398 192.215 258.476C192.533 258.554 192.839 258.528 193.134 258.398C193.452 258.243 193.69 258.022 193.849 257.737C194.031 257.426 194.122 257.076 194.122 256.687C194.144 256.454 194.099 256.208 193.985 255.949C193.895 255.689 193.747 255.469 193.543 255.288C193.338 255.08 193.111 254.951 192.862 254.899V253.149C193.202 253.694 193.622 254.108 194.122 254.394C194.553 254.653 194.995 254.795 195.449 254.821C195.54 255.288 195.745 255.664 196.062 255.949C196.403 256.208 196.777 256.324 197.186 256.299C197.595 256.247 197.935 256.052 198.207 255.715C198.48 255.353 198.616 254.938 198.616 254.471C198.616 253.979 198.457 253.564 198.139 253.227ZM192.896 255.677C193.077 255.78 193.225 255.936 193.338 256.143C193.452 256.324 193.497 256.545 193.475 256.804C193.452 257.063 193.361 257.284 193.202 257.465C193.043 257.646 192.85 257.75 192.623 257.776C192.396 257.802 192.192 257.75 192.011 257.62C191.852 257.491 191.727 257.322 191.636 257.115C191.568 256.908 191.545 256.7 191.568 256.493C191.613 256.286 191.704 256.104 191.84 255.949C191.999 255.767 192.169 255.664 192.351 255.638C192.533 255.586 192.714 255.599 192.896 255.677ZM192.521 250.506C192.34 250.506 192.169 250.441 192.011 250.311C191.852 250.182 191.727 250.026 191.636 249.845C191.568 249.637 191.545 249.43 191.568 249.223C191.613 248.989 191.704 248.795 191.84 248.639C191.999 248.484 192.169 248.393 192.351 248.367C192.533 248.315 192.714 248.341 192.896 248.445C193.1 248.523 193.259 248.678 193.372 248.912C193.486 249.119 193.52 249.352 193.475 249.611C193.429 249.871 193.316 250.091 193.134 250.272C192.975 250.428 192.771 250.506 192.521 250.506ZM197.697 255.288C197.583 255.417 197.447 255.508 197.288 255.56C197.129 255.612 196.97 255.625 196.811 255.599C196.653 255.547 196.505 255.469 196.369 255.365C196.255 255.236 196.165 255.08 196.096 254.899C196.028 254.717 196.017 254.523 196.062 254.316C196.108 254.082 196.199 253.888 196.335 253.733C196.471 253.577 196.63 253.486 196.811 253.46C197.016 253.409 197.197 253.422 197.356 253.499C197.515 253.577 197.64 253.694 197.731 253.849C197.844 253.979 197.912 254.134 197.935 254.316C197.98 254.471 197.98 254.64 197.935 254.821C197.89 255.003 197.81 255.158 197.697 255.288Z" fill="var(--vscode-sideBarTitle-foreground)"/>
            <path d="M194.326 275.544L193.747 276.166C193.656 275.777 193.463 275.453 193.168 275.194C192.896 274.935 192.578 274.805 192.215 274.805C191.852 274.805 191.522 274.935 191.227 275.194C190.955 275.453 190.773 275.777 190.683 276.166L190.104 275.544L189.661 276.049L190.41 276.904L190.308 276.982V277.721H189.661V278.46H190.308V278.498C190.331 278.732 190.388 278.965 190.478 279.198L189.661 280.131L190.104 280.637L190.819 279.82C190.978 280.08 191.182 280.287 191.432 280.442C191.681 280.572 191.942 280.637 192.215 280.637C192.487 280.637 192.748 280.572 192.998 280.442C193.248 280.287 193.452 280.08 193.611 279.82L194.326 280.637L194.768 280.131L193.951 279.198C194.042 278.965 194.099 278.719 194.122 278.46V278.421H194.768V277.721H194.122V276.982L194.019 276.904L194.768 276.049L194.326 275.544ZM192.215 275.544C192.487 275.544 192.714 275.647 192.896 275.855C193.077 276.062 193.168 276.321 193.168 276.632H191.261C191.261 276.321 191.352 276.062 191.534 275.855C191.715 275.647 191.942 275.544 192.215 275.544ZM193.509 278.46C193.463 278.848 193.316 279.185 193.066 279.47C192.839 279.73 192.555 279.872 192.215 279.898C191.874 279.872 191.579 279.73 191.33 279.47C191.103 279.185 190.978 278.848 190.955 278.46V277.371H193.509V278.46ZM192.862 270.723L193.338 270.412L199.093 274.805V275.427L195.415 278.226V277.332L198.344 275.116L193.509 271.422V274.066H192.862V270.723Z" fill="var(--vscode-sideBarTitle-foreground)"/>
            <path d="M195.415 291.095L196.062 290.357H199.229L199.876 291.095V294.711L199.229 295.45H196.062L195.415 294.711V291.095ZM196.062 291.095V294.711H199.229V291.095H196.062ZM189.661 297.627V293.272L190.308 292.534H193.509L194.122 293.272V296.927H197.322L197.969 297.627V301.281L197.322 302.02H190.308L189.661 301.281V297.627ZM193.509 296.927V293.272H190.308V296.927H193.509ZM193.509 297.627H190.308V301.281H193.509V297.627ZM194.122 301.281H197.322V297.627H194.122V301.281Z" fill="var(--vscode-sideBarTitle-foreground)"/>
            <path d="M197.118 204.823H193.27L192.657 205.562V207.739H190.717L190.104 208.477V215.787L190.717 216.487H195.858L196.471 215.787V213.571H198.48L199.025 212.871V207L197.118 204.823ZM197.118 205.834L198.139 207H197.118V205.834ZM195.824 215.748H190.717V208.477H192.657V212.871L193.27 213.571H195.824V215.748ZM198.378 212.832H193.27V205.562H196.471V207.739H198.378V212.832Z" fill="var(--vscode-tab-activeForeground)"/>
            <path d="M182 201.907H183.702V219.402H182V201.907Z" fill="var(--vscode-tab-activeForeground)"/>
        </g>

        <!-- tabbar -->
        <g>
            <path d="M505.466 180.524H692.736V199.963H505.466V180.524Z" fill="var(--vscode-sideBar-background, #222024)"/>
            <path d="M326.708 180.524H386.294V199.963H326.708V180.524Z" fill="var(--vscode-sideBar-background, #222024)"/>
            <path d="M386.294 180.524H445.88V199.963H386.294V180.524Z" fill="var(--vscode-sideBar-background, #222024)"/>
            <path d="M445.88 180.524H505.466V199.963H445.88V180.524Z" fill="var(--vscode-tab-activeBackground, #28262B)"/>
            <path d="M332.667 189.854C332.667 189.31 332.667 189.038 332.76 188.83C332.842 188.647 332.972 188.498 333.132 188.405C333.314 188.299 333.552 188.299 334.029 188.299H373.867C374.343 188.299 374.582 188.299 374.764 188.405C374.924 188.498 375.054 188.647 375.136 188.83C375.229 189.038 375.229 189.31 375.229 189.854V190.632C375.229 191.176 375.229 191.449 375.136 191.657C375.054 191.839 374.924 191.988 374.764 192.081C374.582 192.187 374.343 192.187 373.867 192.187H334.029C333.552 192.187 333.314 192.187 333.132 192.081C332.972 191.988 332.842 191.839 332.76 191.657C332.667 191.449 332.667 191.176 332.667 190.632V189.854Z" fill="var(--vscode-tab-inactiveForeground)"/>
            <path d="M392.253 189.854C392.253 189.31 392.253 189.038 392.346 188.83C392.428 188.647 392.558 188.498 392.718 188.405C392.9 188.299 393.138 188.299 393.615 188.299H433.453C433.929 188.299 434.168 188.299 434.35 188.405C434.51 188.498 434.64 188.647 434.722 188.83C434.815 189.038 434.815 189.31 434.815 189.854V190.632C434.815 191.176 434.815 191.449 434.722 191.657C434.64 191.839 434.51 191.988 434.35 192.081C434.168 192.187 433.929 192.187 433.453 192.187H393.615C393.138 192.187 392.9 192.187 392.718 192.081C392.558 191.988 392.428 191.839 392.346 191.657C392.253 191.449 392.253 191.176 392.253 190.632V189.854Z" fill="var(--vscode-tab-inactiveForeground)"/>
            <path d="M477.376 189.854C477.376 189.31 477.376 189.038 477.468 188.83C477.55 188.647 477.68 188.498 477.84 188.405C478.023 188.299 478.261 188.299 478.738 188.299H489.633C490.11 188.299 490.348 188.299 490.531 188.405C490.691 188.498 490.821 188.647 490.903 188.83C490.995 189.038 490.995 189.31 490.995 189.854V190.632C490.995 191.176 490.995 191.449 490.903 191.657C490.821 191.839 490.691 191.988 490.531 192.081C490.348 192.187 490.11 192.187 489.633 192.187H478.738C478.261 192.187 478.023 192.187 477.84 192.081C477.68 191.988 477.55 191.839 477.468 191.657C477.376 191.449 477.376 191.176 477.376 190.632V189.854Z" fill="var(--vscode-tab-activeForeground)"/>
            <path d="M451.839 189.854C451.839 189.31 451.839 189.038 451.932 188.83C452.013 188.647 452.143 188.498 452.304 188.405C452.486 188.299 452.724 188.299 453.201 188.299H472.609C473.086 188.299 473.324 188.299 473.506 188.405C473.666 188.498 473.796 188.647 473.878 188.83C473.971 189.038 473.971 189.31 473.971 189.854V190.632C473.971 191.176 473.971 191.449 473.878 191.657C473.796 191.839 473.666 191.988 473.506 192.081C473.324 192.187 473.086 192.187 472.609 192.187H453.201C452.724 192.187 452.486 192.187 452.304 192.081C452.143 191.988 452.013 191.839 451.932 191.657C451.839 191.449 451.839 191.176 451.839 190.632V189.854Z" fill="var(--vscode-tab-activeForeground)"/>
        </g>

        <!-- editor -->
        <g>
            <path d="M326.708 199.963H692.736V533.35H326.708V199.963Z" fill="var(--vscode-notebook-editorBackground, #28262B)"/>
            <!-- blue -->
            <path d="M332.667 250.117C332.667 249.572 332.667 249.3 332.76 249.092C332.842 248.909 332.972 248.761 333.132 248.668C333.314 248.562 333.552 248.562 334.029 248.562H359.396C359.872 248.562 360.111 248.562 360.293 248.668C360.453 248.761 360.583 248.909 360.665 249.092C360.758 249.3 360.758 249.572 360.758 250.117V250.894C360.758 251.439 360.758 251.711 360.665 251.919C360.583 252.102 360.453 252.25 360.293 252.344C360.111 252.45 359.872 252.45 359.396 252.45H334.029C333.552 252.45 333.314 252.45 333.132 252.344C332.972 252.25 332.842 252.102 332.76 251.919C332.667 251.711 332.667 251.439 332.667 250.894V250.117Z" fill="var(--vscode-symbolIcon-variableForeground)"/>
            <path d="M357.353 267.612C357.353 267.068 357.353 266.796 357.446 266.588C357.527 266.405 357.657 266.256 357.818 266.163C358 266.057 358.238 266.057 358.715 266.057H372.164C372.641 266.057 372.879 266.057 373.061 266.163C373.221 266.256 373.352 266.405 373.433 266.588C373.526 266.796 373.526 267.068 373.526 267.612V268.39C373.526 268.934 373.526 269.206 373.433 269.414C373.352 269.597 373.221 269.746 373.061 269.839C372.879 269.945 372.641 269.945 372.164 269.945H358.715C358.238 269.945 358 269.945 357.818 269.839C357.657 269.746 357.527 269.597 357.446 269.414C357.353 269.206 357.353 268.934 357.353 268.39V267.612Z" fill="var(--vscode-symbolIcon-variableForeground)"/>
            <path d="M405.021 266.057H406.724V269.945H405.021V266.057Z" fill="var(--vscode-symbolIcon-variableForeground)"/>
            <path d="M481.632 283.553H483.334V287.441H481.632V283.553Z" fill="var(--vscode-symbolIcon-variableForeground)"/>
            <path d="M459.5 266.057H463.245C463.722 266.057 463.96 266.057 464.143 266.163C464.303 266.256 464.433 266.405 464.515 266.588C464.607 266.796 464.607 267.068 464.607 267.612V268.39C464.607 268.934 464.607 269.206 464.515 269.414C464.433 269.597 464.303 269.746 464.143 269.839C463.96 269.945 463.722 269.945 463.245 269.945H459.5V266.057Z" fill="var(--vscode-symbolIcon-variableForeground)"/>
            <path d="M478.227 388.526H481.972C482.449 388.526 482.688 388.526 482.87 388.632C483.03 388.725 483.16 388.874 483.242 389.056C483.334 389.264 483.334 389.537 483.334 390.081V390.858C483.334 391.403 483.334 391.675 483.242 391.883C483.16 392.066 483.03 392.215 482.87 392.308C482.688 392.414 482.449 392.414 481.972 392.414H478.227V388.526Z" fill="var(--vscode-symbolIcon-variableForeground)"/>
            <path d="M413.534 390.081C413.534 389.537 413.534 389.264 413.626 389.056C413.708 388.874 413.838 388.725 413.998 388.632C414.181 388.526 414.419 388.526 414.896 388.526H431.409V392.414H414.896C414.419 392.414 414.181 392.414 413.998 392.308C413.838 392.215 413.708 392.066 413.626 391.883C413.534 391.675 413.534 391.403 413.534 390.858V390.081Z" fill="var(--vscode-symbolIcon-variableForeground)"/>
            <path d="M412.683 442.567C412.683 442.023 412.683 441.751 412.775 441.543C412.857 441.36 412.987 441.211 413.147 441.118C413.329 441.012 413.568 441.012 414.045 441.012H431.41V444.9H414.045C413.568 444.9 413.329 444.9 413.147 444.794C412.987 444.701 412.857 444.552 412.775 444.37C412.683 444.162 412.683 443.889 412.683 443.345V442.567Z" fill="var(--vscode-symbolIcon-variableForeground)"/>
            <path d="M493.549 442.567C493.549 442.023 493.549 441.751 493.642 441.543C493.723 441.36 493.854 441.211 494.014 441.118C494.196 441.012 494.434 441.012 494.911 441.012H510.574V444.9H494.911C494.434 444.9 494.196 444.9 494.014 444.794C493.854 444.701 493.723 444.552 493.642 444.37C493.549 444.162 493.549 443.889 493.549 443.345V442.567Z" fill="var(--vscode-symbolIcon-variableForeground)"/>
            <path d="M528.449 283.553H532.195C532.672 283.553 532.91 283.553 533.092 283.659C533.252 283.752 533.382 283.9 533.464 284.083C533.557 284.291 533.557 284.563 533.557 285.108V285.885C533.557 286.43 533.557 286.702 533.464 286.91C533.382 287.093 533.252 287.241 533.092 287.335C532.91 287.441 532.672 287.441 532.195 287.441H528.449V283.553Z" fill="var(--vscode-symbolIcon-variableForeground)"/>
            <path d="M357.353 372.585C357.353 372.041 357.353 371.769 357.446 371.561C357.527 371.378 357.657 371.229 357.818 371.136C358 371.03 358.238 371.03 358.715 371.03H372.164C372.641 371.03 372.879 371.03 373.061 371.136C373.221 371.229 373.352 371.378 373.433 371.561C373.526 371.769 373.526 372.041 373.526 372.585V373.363C373.526 373.907 373.526 374.18 373.433 374.387C373.352 374.57 373.221 374.719 373.061 374.812C372.879 374.918 372.641 374.918 372.164 374.918H358.715C358.238 374.918 358 374.918 357.818 374.812C357.657 374.719 357.527 374.57 357.446 374.387C357.353 374.18 357.353 373.907 357.353 373.363V372.585Z" fill="var(--vscode-symbolIcon-variableForeground)"/>
            <path d="M357.353 425.072C357.353 424.528 357.353 424.255 357.446 424.048C357.527 423.865 357.657 423.716 357.818 423.623C358 423.517 358.238 423.517 358.715 423.517H372.164C372.641 423.517 372.879 423.517 373.061 423.623C373.221 423.716 373.352 423.865 373.433 424.048C373.526 424.255 373.526 424.528 373.526 425.072V425.85C373.526 426.394 373.526 426.666 373.433 426.874C373.352 427.057 373.221 427.206 373.061 427.299C372.879 427.405 372.641 427.405 372.164 427.405H358.715C358.238 427.405 358 427.405 357.818 427.299C357.657 427.206 357.527 427.057 357.446 426.874C357.353 426.666 357.353 426.394 357.353 425.85V425.072Z" fill="var(--vscode-symbolIcon-variableForeground)"/>
            <path d="M414.385 371.03H416.087V374.918H414.385V371.03Z" fill="var(--vscode-symbolIcon-variableForeground)"/>
            <path d="M420.344 423.517H422.046V427.405H420.344V423.517Z" fill="var(--vscode-symbolIcon-variableForeground)"/>
            <path d="M416.939 491.555H418.641V495.443H416.939V491.555Z" fill="var(--vscode-symbolIcon-variableForeground)"/>
            <path d="M434.814 371.03H436.517V374.918H434.814V371.03Z" fill="var(--vscode-symbolIcon-variableForeground)"/>
            <path d="M440.773 423.517H442.475V427.405H440.773V423.517Z" fill="var(--vscode-symbolIcon-variableForeground)"/>
            <path d="M381.187 285.108C381.187 284.563 381.187 284.291 381.28 284.083C381.361 283.9 381.492 283.752 381.652 283.659C381.834 283.553 382.072 283.553 382.549 283.553H399.063V287.441H382.549C382.072 287.441 381.834 287.441 381.652 287.335C381.492 287.241 381.361 287.093 381.28 286.91C381.187 286.702 381.187 286.43 381.187 285.885V285.108Z" fill="var(--vscode-symbolIcon-variableForeground)"/>
            <path d="M490.144 301.048H491.846V304.936H490.144V301.048Z" fill="var(--vscode-symbolIcon-variableForeground)"/>
            <path d="M538.664 301.048H542.409C542.886 301.048 543.125 301.048 543.307 301.154C543.467 301.247 543.597 301.396 543.679 301.579C543.771 301.787 543.771 302.059 543.771 302.603V303.381C543.771 303.925 543.771 304.197 543.679 304.405C543.597 304.588 543.467 304.737 543.307 304.83C543.125 304.936 542.886 304.936 542.409 304.936H538.664V301.048Z" fill="var(--vscode-symbolIcon-variableForeground)"/>
            <path d="M381.187 302.603C381.187 302.059 381.187 301.787 381.28 301.579C381.361 301.396 381.492 301.247 381.652 301.154C381.834 301.048 382.072 301.048 382.549 301.048H399.063V304.936H382.549C382.072 304.936 381.834 304.936 381.652 304.83C381.492 304.737 381.361 304.588 381.28 304.405C381.187 304.197 381.187 303.925 381.187 303.381V302.603Z" fill="var(--vscode-symbolIcon-variableForeground)"/>
            <path d="M491.847 318.544H493.549V322.432H491.847V318.544Z" fill="var(--vscode-symbolIcon-variableForeground)"/>
            <path d="M545.474 318.544H549.219C549.696 318.544 549.934 318.544 550.116 318.65C550.277 318.743 550.407 318.892 550.488 319.074C550.581 319.282 550.581 319.555 550.581 320.099V320.876C550.581 321.421 550.581 321.693 550.488 321.901C550.407 322.084 550.277 322.232 550.116 322.326C549.934 322.432 549.696 322.432 549.219 322.432H545.474V318.544Z" fill="var(--vscode-symbolIcon-variableForeground)"/>
            <path d="M381.187 320.099C381.187 319.555 381.187 319.282 381.28 319.074C381.361 318.892 381.492 318.743 381.652 318.65C381.834 318.544 382.072 318.544 382.549 318.544H399.063V322.432H382.549C382.072 322.432 381.834 322.432 381.652 322.326C381.492 322.232 381.361 322.084 381.28 321.901C381.187 321.693 381.187 321.421 381.187 320.876V320.099Z" fill="var(--vscode-symbolIcon-variableForeground)"/>
            <path d="M503.764 336.039H505.466V339.927H503.764V336.039Z" fill="var(--vscode-symbolIcon-variableForeground)"/>
            <path d="M568.457 336.039H572.202C572.679 336.039 572.918 336.039 573.1 336.145C573.26 336.238 573.39 336.387 573.472 336.57C573.564 336.778 573.564 337.05 573.564 337.594V338.372C573.564 338.916 573.564 339.189 573.472 339.396C573.39 339.579 573.26 339.728 573.1 339.821C572.918 339.927 572.679 339.927 572.202 339.927H568.457V336.039Z" fill="var(--vscode-symbolIcon-variableForeground)"/>
            <path d="M381.187 337.594C381.187 337.05 381.187 336.778 381.28 336.57C381.361 336.387 381.492 336.238 381.652 336.145C381.834 336.039 382.072 336.039 382.549 336.039H399.063V339.927H382.549C382.072 339.927 381.834 339.927 381.652 339.821C381.492 339.728 381.361 339.579 381.28 339.396C381.187 339.189 381.187 338.916 381.187 338.372V337.594Z" fill="var(--vscode-symbolIcon-variableForeground)"/>
            <!-- green -->
            <path d="M418.641 491.555H421.535C422.012 491.555 422.25 491.555 422.432 491.661C422.593 491.754 422.723 491.903 422.804 492.086C422.897 492.294 422.897 492.566 422.897 493.11V493.888C422.897 494.432 422.897 494.704 422.804 494.912C422.723 495.095 422.593 495.244 422.432 495.337C422.25 495.443 422.012 495.443 421.535 495.443H418.641V491.555Z" fill="var(--vscode-editorOverviewRuler-currentContentForeground)"/>
            <!-- grey -->
            <path d="M372.675 493.11C372.675 492.566 372.675 492.294 372.768 492.086C372.849 491.903 372.979 491.754 373.14 491.661C373.322 491.555 373.56 491.555 374.037 491.555H375.569C376.046 491.555 376.284 491.555 376.466 491.661C376.626 491.754 376.757 491.903 376.838 492.086C376.931 492.294 376.931 492.566 376.931 493.11V493.888C376.931 494.432 376.931 494.704 376.838 494.912C376.757 495.095 376.626 495.244 376.466 495.337C376.284 495.443 376.046 495.443 375.569 495.443H374.037C373.56 495.443 373.322 495.443 373.14 495.337C372.979 495.244 372.849 495.095 372.768 494.912C372.675 494.704 372.675 494.432 372.675 493.888V493.11Z" fill="var(--vscode-symbolIcon-folderForeground)" fill-opacity="0.45"/>
            <path d="M380.336 493.11C380.336 492.566 380.336 492.294 380.429 492.086C380.51 491.903 380.641 491.754 380.801 491.661C380.983 491.555 381.221 491.555 381.698 491.555H416.939V495.443H381.698C381.221 495.443 380.983 495.443 380.801 495.337C380.641 495.244 380.51 495.095 380.429 494.912C380.336 494.704 380.336 494.432 380.336 493.888V493.11Z" fill="var(--vscode-symbolIcon-folderForeground)" fill-opacity="0.45"/>
            <path d="M402.468 509.05H404.511C404.987 509.05 405.226 509.05 405.408 509.156C405.568 509.25 405.698 509.398 405.78 509.581C405.873 509.789 405.873 510.061 405.873 510.606V511.383C405.873 511.928 405.873 512.2 405.78 512.408C405.698 512.591 405.568 512.739 405.408 512.832C405.226 512.938 404.987 512.938 404.511 512.938H402.468V509.05Z" fill="var(--vscode-symbolIcon-folderForeground)" fill-opacity="0.65"/>
            <path d="M332.667 477.559C332.667 477.014 332.667 476.742 332.76 476.534C332.842 476.351 332.972 476.203 333.132 476.109C333.314 476.003 333.552 476.003 334.029 476.003H335.561C336.038 476.003 336.277 476.003 336.459 476.109C336.619 476.203 336.749 476.351 336.831 476.534C336.923 476.742 336.923 477.014 336.923 477.559V478.336C336.923 478.88 336.923 479.153 336.831 479.361C336.749 479.543 336.619 479.692 336.459 479.785C336.277 479.891 336.038 479.891 335.561 479.891H334.029C333.552 479.891 333.314 479.891 333.132 479.785C332.972 479.692 332.842 479.543 332.76 479.361C332.667 479.153 332.667 478.88 332.667 478.336V477.559Z" fill="var(--vscode-symbolIcon-folderForeground)" fill-opacity="0.45"/>
            <path d="M376.931 477.559C376.931 477.014 376.931 476.742 377.024 476.534C377.105 476.351 377.236 476.203 377.396 476.109C377.578 476.003 377.816 476.003 378.293 476.003H395.147C395.624 476.003 395.862 476.003 396.044 476.109C396.205 476.203 396.335 476.351 396.416 476.534C396.509 476.742 396.509 477.014 396.509 477.559V478.336C396.509 478.88 396.509 479.153 396.416 479.361C396.335 479.543 396.205 479.692 396.044 479.785C395.862 479.891 395.624 479.891 395.147 479.891H378.293C377.816 479.891 377.578 479.891 377.396 479.785C377.236 479.692 377.105 479.543 377.024 479.361C376.931 479.153 376.931 478.88 376.931 478.336V477.559Z" fill="var(--vscode-symbolIcon-folderForeground)" fill-opacity="0.45"/>
            <path d="M399.914 477.559C399.914 477.014 399.914 476.742 400.007 476.534C400.089 476.351 400.219 476.203 400.379 476.109C400.561 476.003 400.799 476.003 401.276 476.003H406.213C406.69 476.003 406.928 476.003 407.11 476.109C407.271 476.203 407.401 476.351 407.482 476.534C407.575 476.742 407.575 477.014 407.575 477.559V478.336C407.575 478.88 407.575 479.153 407.482 479.361C407.401 479.543 407.271 479.692 407.11 479.785C406.928 479.891 406.69 479.891 406.213 479.891H401.276C400.799 479.891 400.561 479.891 400.379 479.785C400.219 479.692 400.089 479.543 400.007 479.361C399.914 479.153 399.914 478.88 399.914 478.336V477.559Z" fill="var(--vscode-symbolIcon-folderForeground)" fill-opacity="0.45"/>
            <path d="M410.98 477.559C410.98 477.014 410.98 476.742 411.073 476.534C411.155 476.351 411.285 476.203 411.445 476.109C411.627 476.003 411.865 476.003 412.342 476.003H429.196C429.673 476.003 429.911 476.003 430.094 476.109C430.254 476.203 430.384 476.351 430.466 476.534C430.558 476.742 430.558 477.014 430.558 477.559V478.336C430.558 478.88 430.558 479.153 430.466 479.361C430.384 479.543 430.254 479.692 430.094 479.785C429.911 479.891 429.673 479.891 429.196 479.891H412.342C411.865 479.891 411.627 479.891 411.445 479.785C411.285 479.692 411.155 479.543 411.073 479.361C410.98 479.153 410.98 478.88 410.98 478.336V477.559Z" fill="var(--vscode-symbolIcon-folderForeground)" fill-opacity="0.45"/>
            <path d="M433.963 477.559C433.963 477.014 433.963 476.742 434.056 476.534C434.138 476.351 434.268 476.203 434.428 476.109C434.61 476.003 434.848 476.003 435.325 476.003H464.097C464.573 476.003 464.812 476.003 464.994 476.109C465.154 476.203 465.284 476.351 465.366 476.534C465.459 476.742 465.459 477.014 465.459 477.559V478.336C465.459 478.88 465.459 479.153 465.366 479.361C465.284 479.543 465.154 479.692 464.994 479.785C464.812 479.891 464.573 479.891 464.097 479.891H435.325C434.848 479.891 434.61 479.891 434.428 479.785C434.268 479.692 434.138 479.543 434.056 479.361C433.963 479.153 433.963 478.88 433.963 478.336V477.559Z" fill="var(--vscode-symbolIcon-folderForeground)" fill-opacity="0.45"/>
            <path d="M468.864 477.559C468.864 477.014 468.864 476.742 468.956 476.534C469.038 476.351 469.168 476.203 469.328 476.109C469.51 476.003 469.749 476.003 470.226 476.003H489.633C490.11 476.003 490.349 476.003 490.531 476.109C490.691 476.203 490.821 476.351 490.903 476.534C490.995 476.742 490.995 477.014 490.995 477.559V478.336C490.995 478.88 490.995 479.153 490.903 479.361C490.821 479.543 490.691 479.692 490.531 479.785C490.349 479.891 490.11 479.891 489.633 479.891H470.226C469.749 479.891 469.51 479.891 469.328 479.785C469.168 479.692 469.038 479.543 468.956 479.361C468.864 479.153 468.864 478.88 468.864 478.336V477.559Z" fill="var(--vscode-symbolIcon-folderForeground)" fill-opacity="0.45"/>
            <path d="M340.328 477.559C340.328 477.014 340.328 476.742 340.421 476.534C340.503 476.351 340.633 476.203 340.793 476.109C340.975 476.003 341.214 476.003 341.69 476.003H372.164C372.641 476.003 372.879 476.003 373.061 476.109C373.222 476.203 373.352 476.351 373.433 476.534C373.526 476.742 373.526 477.014 373.526 477.559V478.336C373.526 478.88 373.526 479.153 373.433 479.361C373.352 479.543 373.222 479.692 373.061 479.785C372.879 479.891 372.641 479.891 372.164 479.891H341.69C341.214 479.891 340.975 479.891 340.793 479.785C340.633 479.692 340.503 479.543 340.421 479.361C340.328 479.153 340.328 478.88 340.328 478.336V477.559Z" fill="var(--vscode-symbolIcon-folderForeground)" fill-opacity="0.45"/>
            <path d="M332.667 493.11C332.667 492.566 332.667 492.294 332.76 492.086C332.842 491.903 332.972 491.754 333.132 491.661C333.314 491.555 333.552 491.555 334.029 491.555H367.908C368.385 491.555 368.623 491.555 368.805 491.661C368.965 491.754 369.096 491.903 369.177 492.086C369.27 492.294 369.27 492.566 369.27 493.11V493.888C369.27 494.432 369.27 494.704 369.177 494.912C369.096 495.095 368.965 495.244 368.805 495.337C368.623 495.443 368.385 495.443 367.908 495.443H334.029C333.552 495.443 333.314 495.443 333.132 495.337C332.972 495.244 332.842 495.095 332.76 494.912C332.667 494.704 332.667 494.432 332.667 493.888V493.11Z" fill="var(--vscode-symbolIcon-folderForeground)" fill-opacity="0.45"/>
            <path d="M332.667 215.126C332.667 214.581 332.667 214.309 332.76 214.101C332.842 213.918 332.972 213.77 333.132 213.677C333.314 213.571 333.552 213.571 334.029 213.571H335.561C336.038 213.571 336.277 213.571 336.459 213.677C336.619 213.77 336.749 213.918 336.831 214.101C336.923 214.309 336.923 214.581 336.923 215.126V215.903C336.923 216.448 336.923 216.72 336.831 216.928C336.749 217.111 336.619 217.259 336.459 217.353C336.277 217.459 336.038 217.459 335.561 217.459H334.029C333.552 217.459 333.314 217.459 333.132 217.353C332.972 217.259 332.842 217.111 332.76 216.928C332.667 216.72 332.667 216.448 332.667 215.903V215.126Z" fill="var(--vscode-symbolIcon-folderForeground)" fill-opacity="0.45"/>
            <path d="M340.328 215.126C340.328 214.581 340.328 214.309 340.421 214.101C340.503 213.918 340.633 213.77 340.793 213.677C340.975 213.571 341.214 213.571 341.69 213.571H363.652C364.129 213.571 364.367 213.571 364.549 213.677C364.709 213.77 364.839 213.918 364.921 214.101C365.014 214.309 365.014 214.581 365.014 215.126V215.903C365.014 216.448 365.014 216.72 364.921 216.928C364.839 217.111 364.709 217.259 364.549 217.353C364.367 217.459 364.129 217.459 363.652 217.459H341.69C341.214 217.459 340.975 217.459 340.793 217.353C340.633 217.259 340.503 217.111 340.421 216.928C340.328 216.72 340.328 216.448 340.328 215.903V215.126Z" fill="var(--vscode-symbolIcon-folderForeground)" fill-opacity="0.45"/>
            <path d="M368.419 215.126C368.419 214.581 368.419 214.309 368.512 214.101C368.593 213.918 368.723 213.77 368.884 213.677C369.066 213.571 369.304 213.571 369.781 213.571H392.594C393.07 213.571 393.309 213.571 393.491 213.677C393.651 213.77 393.781 213.918 393.863 214.101C393.956 214.309 393.956 214.581 393.956 215.126V215.903C393.956 216.448 393.956 216.72 393.863 216.928C393.781 217.111 393.651 217.259 393.491 217.353C393.309 217.459 393.07 217.459 392.594 217.459H369.781C369.304 217.459 369.066 217.459 368.884 217.353C368.723 217.259 368.593 217.111 368.512 216.928C368.419 216.72 368.419 216.448 368.419 215.903V215.126Z" fill="var(--vscode-symbolIcon-folderForeground)" fill-opacity="0.45"/>
            <path d="M397.36 215.126C397.36 214.581 397.36 214.309 397.453 214.101C397.535 213.918 397.665 213.77 397.825 213.677C398.007 213.571 398.246 213.571 398.722 213.571H403.66C404.136 213.571 404.375 213.571 404.557 213.677C404.717 213.77 404.847 213.918 404.929 214.101C405.022 214.309 405.022 214.581 405.022 215.126V215.903C405.022 216.448 405.022 216.72 404.929 216.928C404.847 217.111 404.717 217.259 404.557 217.353C404.375 217.459 404.136 217.459 403.66 217.459H398.722C398.246 217.459 398.007 217.459 397.825 217.353C397.665 217.259 397.535 217.111 397.453 216.928C397.36 216.72 397.36 216.448 397.36 215.903V215.126Z" fill="var(--vscode-symbolIcon-folderForeground)" fill-opacity="0.45"/>
            <path d="M408.426 215.126C408.426 214.581 408.426 214.309 408.519 214.101C408.601 213.918 408.731 213.77 408.891 213.677C409.073 213.571 409.312 213.571 409.788 213.571H436.006C436.483 213.571 436.721 213.571 436.903 213.677C437.064 213.77 437.194 213.918 437.275 214.101C437.368 214.309 437.368 214.581 437.368 215.126V215.903C437.368 216.448 437.368 216.72 437.275 216.928C437.194 217.111 437.064 217.259 436.903 217.353C436.721 217.459 436.483 217.459 436.006 217.459H409.788C409.312 217.459 409.073 217.459 408.891 217.353C408.731 217.259 408.601 217.111 408.519 216.928C408.426 216.72 408.426 216.448 408.426 215.903V215.126Z" fill="var(--vscode-symbolIcon-folderForeground)" fill-opacity="0.45"/>
            <!-- yellow -->
            <path d="M376.931 267.612C376.931 267.068 376.931 266.796 377.024 266.588C377.105 266.405 377.236 266.256 377.396 266.163C377.578 266.057 377.816 266.057 378.293 266.057H405.021V269.945H378.293C377.816 269.945 377.578 269.945 377.396 269.839C377.236 269.746 377.105 269.597 377.024 269.414C376.931 269.206 376.931 268.934 376.931 268.39V267.612Z" fill="var(--vscode-symbolIcon-enumeratorForeground)"/>
            <path d="M376.931 372.585C376.931 372.041 376.931 371.769 377.024 371.561C377.105 371.378 377.236 371.229 377.396 371.136C377.578 371.03 377.816 371.03 378.293 371.03H414.385V374.918H378.293C377.816 374.918 377.578 374.918 377.396 374.812C377.236 374.719 377.105 374.57 377.024 374.387C376.931 374.18 376.931 373.907 376.931 373.363V372.585Z" fill="var(--vscode-symbolIcon-enumeratorForeground)"/>
            <path d="M376.931 425.072C376.931 424.528 376.931 424.255 377.024 424.048C377.105 423.865 377.236 423.716 377.396 423.623C377.578 423.517 377.816 423.517 378.293 423.517H420.343V427.405H378.293C377.816 427.405 377.578 427.405 377.396 427.299C377.236 427.206 377.105 427.057 377.024 426.874C376.931 426.666 376.931 426.394 376.931 425.85V425.072Z" fill="var(--vscode-symbolIcon-enumeratorForeground)"/>
            <!-- white -->
            <path d="M406.724 266.057H426.643C427.119 266.057 427.358 266.057 427.54 266.163C427.7 266.256 427.83 266.405 427.912 266.588C428.005 266.796 428.005 267.068 428.005 267.612V268.39C428.005 268.934 428.005 269.206 427.912 269.414C427.83 269.597 427.7 269.746 427.54 269.839C427.358 269.945 427.119 269.945 426.643 269.945H406.724V266.057Z" fill="var(--vscode-symbolIcon-folderForeground)"/>
            <path d="M416.087 371.03H434.814V374.918H416.087V371.03Z" fill="var(--vscode-symbolIcon-folderForeground)"/>
            <path d="M422.046 423.517H440.773V427.405H422.046V423.517Z" fill="var(--vscode-symbolIcon-folderForeground)"/>
            <path d="M436.517 371.03H439.411C439.888 371.03 440.126 371.03 440.308 371.136C440.468 371.229 440.599 371.378 440.68 371.561C440.773 371.769 440.773 372.041 440.773 372.585V373.363C440.773 373.907 440.773 374.18 440.68 374.387C440.599 374.57 440.468 374.719 440.308 374.812C440.126 374.918 439.888 374.918 439.411 374.918H436.517V371.03Z" fill="var(--vscode-symbolIcon-folderForeground)"/>
            <path d="M442.476 423.517H445.37C445.846 423.517 446.085 423.517 446.267 423.623C446.427 423.716 446.557 423.865 446.639 424.048C446.732 424.255 446.732 424.528 446.732 425.072V425.85C446.732 426.394 446.732 426.666 446.639 426.874C446.557 427.057 446.427 427.206 446.267 427.299C446.085 427.405 445.846 427.405 445.37 427.405H442.476V423.517Z" fill="var(--vscode-symbolIcon-folderForeground)"/>
            <path d="M485.888 442.567C485.888 442.023 485.888 441.751 485.981 441.543C486.062 441.36 486.193 441.211 486.353 441.118C486.535 441.012 486.773 441.012 487.25 441.012H488.782C489.259 441.012 489.497 441.012 489.679 441.118C489.839 441.211 489.97 441.36 490.051 441.543C490.144 441.751 490.144 442.023 490.144 442.567V443.345C490.144 443.889 490.144 444.162 490.051 444.37C489.97 444.552 489.839 444.701 489.679 444.794C489.497 444.9 489.259 444.9 488.782 444.9H487.25C486.773 444.9 486.535 444.9 486.353 444.794C486.193 444.701 486.062 444.552 485.981 444.37C485.888 444.162 485.888 443.889 485.888 443.345V442.567Z" fill="var(--vscode-symbolIcon-folderForeground)"/>
            <path d="M399.063 283.553H440.262C440.739 283.553 440.977 283.553 441.16 283.659C441.32 283.752 441.45 283.9 441.532 284.083C441.624 284.291 441.624 284.563 441.624 285.108V285.885C441.624 286.43 441.624 286.702 441.532 286.91C441.45 287.093 441.32 287.241 441.16 287.335C440.977 287.441 440.739 287.441 440.262 287.441H399.063V283.553Z" fill="var(--vscode-symbolIcon-folderForeground)"/>
            <path d="M445.029 285.108C445.029 284.563 445.029 284.291 445.122 284.083C445.203 283.9 445.334 283.752 445.494 283.659C445.676 283.553 445.914 283.553 446.391 283.553H448.774C449.251 283.553 449.49 283.553 449.672 283.659C449.832 283.752 449.962 283.9 450.044 284.083C450.136 284.291 450.136 284.563 450.136 285.108V285.885C450.136 286.43 450.136 286.702 450.044 286.91C449.962 287.093 449.832 287.241 449.672 287.335C449.49 287.441 449.251 287.441 448.774 287.441H446.391C445.914 287.441 445.676 287.441 445.494 287.335C445.334 287.241 445.203 287.093 445.122 286.91C445.029 286.702 445.029 286.43 445.029 285.885V285.108Z" fill="var(--vscode-symbolIcon-folderForeground)"/>
            <path d="M453.542 285.108C453.542 284.563 453.542 284.291 453.634 284.083C453.716 283.9 453.846 283.752 454.006 283.659C454.188 283.553 454.427 283.553 454.903 283.553H481.632V287.441H454.903C454.427 287.441 454.188 287.441 454.006 287.335C453.846 287.241 453.716 287.093 453.634 286.91C453.542 286.702 453.542 286.43 453.542 285.885V285.108Z" fill="var(--vscode-symbolIcon-folderForeground)"/>
            <path d="M399.063 301.048H443.667C444.144 301.048 444.382 301.048 444.564 301.154C444.725 301.247 444.855 301.396 444.936 301.579C445.029 301.787 445.029 302.059 445.029 302.603V303.381C445.029 303.925 445.029 304.197 444.936 304.405C444.855 304.588 444.725 304.737 444.564 304.83C444.382 304.936 444.144 304.936 443.667 304.936H399.063V301.048Z" fill="var(--vscode-symbolIcon-folderForeground)"/>
            <path d="M448.434 302.603C448.434 302.059 448.434 301.787 448.527 301.579C448.608 301.396 448.739 301.247 448.899 301.154C449.081 301.048 449.319 301.048 449.796 301.048H454.733C455.21 301.048 455.448 301.048 455.63 301.154C455.791 301.247 455.921 301.396 456.002 301.579C456.095 301.787 456.095 302.059 456.095 302.603V303.381C456.095 303.925 456.095 304.197 456.002 304.405C455.921 304.588 455.791 304.737 455.63 304.83C455.448 304.936 455.21 304.936 454.733 304.936H449.796C449.319 304.936 449.081 304.936 448.899 304.83C448.739 304.737 448.608 304.588 448.527 304.405C448.434 304.197 448.434 303.925 448.434 303.381V302.603Z" fill="var(--vscode-symbolIcon-folderForeground)"/>
            <path d="M459.5 302.603C459.5 302.059 459.5 301.787 459.593 301.579C459.674 301.396 459.805 301.247 459.965 301.154C460.147 301.048 460.385 301.048 460.862 301.048H490.144V304.936H460.862C460.385 304.936 460.147 304.936 459.965 304.83C459.805 304.737 459.674 304.588 459.593 304.405C459.5 304.197 459.5 303.925 459.5 303.381V302.603Z" fill="var(--vscode-symbolIcon-folderForeground)"/>
            <path d="M399.063 318.544H449.626C450.103 318.544 450.341 318.544 450.523 318.65C450.683 318.743 450.813 318.892 450.895 319.074C450.988 319.282 450.988 319.555 450.988 320.099V320.876C450.988 321.421 450.988 321.693 450.895 321.901C450.813 322.084 450.683 322.232 450.523 322.326C450.341 322.432 450.103 322.432 449.626 322.432H399.063V318.544Z" fill="var(--vscode-symbolIcon-folderForeground)"/>
            <path d="M454.393 320.099C454.393 319.555 454.393 319.282 454.485 319.074C454.567 318.892 454.697 318.743 454.857 318.65C455.039 318.544 455.278 318.544 455.755 318.544H458.138C458.615 318.544 458.853 318.544 459.035 318.65C459.195 318.743 459.326 318.892 459.407 319.074C459.5 319.282 459.5 319.555 459.5 320.099V320.876C459.5 321.421 459.5 321.693 459.407 321.901C459.326 322.084 459.195 322.232 459.035 322.326C458.853 322.432 458.615 322.432 458.138 322.432H455.755C455.278 322.432 455.039 322.432 454.857 322.326C454.697 322.232 454.567 322.084 454.485 321.901C454.393 321.693 454.393 321.421 454.393 320.876V320.099Z" fill="var(--vscode-symbolIcon-folderForeground)"/>
            <path d="M462.905 320.099C462.905 319.555 462.905 319.282 462.998 319.074C463.079 318.892 463.209 318.743 463.37 318.65C463.552 318.544 463.79 318.544 464.267 318.544H491.847V322.432H464.267C463.79 322.432 463.552 322.432 463.37 322.326C463.209 322.232 463.079 322.084 462.998 321.901C462.905 321.693 462.905 321.421 462.905 320.876V320.099Z" fill="var(--vscode-symbolIcon-folderForeground)"/>
            <path d="M399.063 336.039H460.692C461.169 336.039 461.407 336.039 461.589 336.145C461.749 336.238 461.879 336.387 461.961 336.57C462.054 336.778 462.054 337.05 462.054 337.594V338.372C462.054 338.916 462.054 339.189 461.961 339.396C461.879 339.579 461.749 339.728 461.589 339.821C461.407 339.927 461.169 339.927 460.692 339.927H399.063V336.039Z" fill="var(--vscode-symbolIcon-folderForeground)"/>
            <path d="M465.458 337.594C465.458 337.05 465.458 336.778 465.551 336.57C465.633 336.387 465.763 336.238 465.923 336.145C466.105 336.039 466.344 336.039 466.82 336.039H469.204C469.681 336.039 469.919 336.039 470.101 336.145C470.261 336.238 470.391 336.387 470.473 336.57C470.566 336.778 470.566 337.05 470.566 337.594V338.372C470.566 338.916 470.566 339.189 470.473 339.396C470.391 339.579 470.261 339.728 470.101 339.821C469.919 339.927 469.681 339.927 469.204 339.927H466.82C466.344 339.927 466.105 339.927 465.923 339.821C465.763 339.728 465.633 339.579 465.551 339.396C465.458 339.189 465.458 338.916 465.458 338.372V337.594Z" fill="var(--vscode-symbolIcon-folderForeground)"/>
            <path d="M473.971 337.594C473.971 337.05 473.971 336.778 474.064 336.57C474.145 336.387 474.276 336.238 474.436 336.145C474.618 336.039 474.856 336.039 475.333 336.039H503.764V339.927H475.333C474.856 339.927 474.618 339.927 474.436 339.821C474.276 339.728 474.145 339.579 474.064 339.396C473.971 339.189 473.971 338.916 473.971 338.372V337.594Z" fill="var(--vscode-symbolIcon-folderForeground)"/>
            <path d="M431.409 267.612C431.409 267.068 431.409 266.796 431.502 266.588C431.584 266.405 431.714 266.256 431.874 266.163C432.056 266.057 432.295 266.057 432.771 266.057H459.5V269.945H432.771C432.295 269.945 432.056 269.945 431.874 269.839C431.714 269.746 431.584 269.597 431.502 269.414C431.409 269.206 431.409 268.934 431.409 268.39V267.612Z" fill="var(--vscode-symbolIcon-folderForeground)"/>
            <path d="M431.409 388.526H478.227V392.414H431.409V388.526Z" fill="var(--vscode-symbolIcon-folderForeground)"/>
            <path d="M431.409 441.012H481.121C481.598 441.012 481.836 441.012 482.018 441.118C482.178 441.211 482.309 441.36 482.39 441.543C482.483 441.751 482.483 442.023 482.483 442.567V443.345C482.483 443.889 482.483 444.162 482.39 444.37C482.309 444.552 482.178 444.701 482.018 444.794C481.836 444.9 481.598 444.9 481.121 444.9H431.409V441.012Z" fill="var(--vscode-symbolIcon-folderForeground)"/>
            <path d="M510.574 441.012H555.178C555.655 441.012 555.893 441.012 556.075 441.118C556.235 441.211 556.366 441.36 556.447 441.543C556.54 441.751 556.54 442.023 556.54 442.567V443.345C556.54 443.889 556.54 444.162 556.447 444.37C556.366 444.552 556.235 444.701 556.075 444.794C555.893 444.9 555.655 444.9 555.178 444.9H510.574V441.012Z" fill="var(--vscode-symbolIcon-folderForeground)"/>
            <path d="M400.765 248.562H402.808C403.285 248.562 403.523 248.562 403.706 248.668C403.866 248.761 403.996 248.909 404.078 249.092C404.17 249.3 404.17 249.572 404.17 250.117V250.894C404.17 251.439 404.17 251.711 404.078 251.919C403.996 252.102 403.866 252.25 403.706 252.344C403.523 252.45 403.285 252.45 402.808 252.45H400.765V248.562Z" fill="var(--vscode-symbolIcon-folderForeground)"/>
            <!-- violet -->
            <path d="M381.187 390.081C381.187 389.537 381.187 389.264 381.28 389.056C381.361 388.874 381.492 388.725 381.652 388.632C381.834 388.526 382.072 388.526 382.549 388.526H408.767C409.243 388.526 409.482 388.526 409.664 388.632C409.824 388.725 409.954 388.874 410.036 389.056C410.129 389.264 410.129 389.537 410.129 390.081V390.858C410.129 391.403 410.129 391.675 410.036 391.883C409.954 392.066 409.824 392.215 409.664 392.308C409.482 392.414 409.244 392.414 408.767 392.414H382.549C382.072 392.414 381.834 392.414 381.652 392.308C381.492 392.215 381.361 392.066 381.28 391.883C381.187 391.675 381.187 391.403 381.187 390.858V390.081Z" fill="var(--vscode-symbolIcon-functionForeground)"/>
            <path d="M381.187 442.567C381.187 442.023 381.187 441.751 381.28 441.543C381.361 441.36 381.492 441.211 381.652 441.118C381.834 441.012 382.072 441.012 382.549 441.012H407.916C408.392 441.012 408.631 441.012 408.813 441.118C408.973 441.211 409.103 441.36 409.185 441.543C409.278 441.751 409.278 442.023 409.278 442.567V443.345C409.278 443.889 409.278 444.162 409.185 444.37C409.103 444.552 408.973 444.701 408.813 444.794C408.631 444.9 408.392 444.9 407.916 444.9H382.549C382.072 444.9 381.834 444.9 381.652 444.794C381.492 444.701 381.361 444.552 381.28 444.37C381.187 444.162 381.187 443.889 381.187 443.345V442.567Z" fill="var(--vscode-symbolIcon-functionForeground)"/>
            <!-- red -->
            <path d="M483.334 283.553H528.45V287.441H483.334V283.553Z" fill="var(--vscode-list-errorForeground)"/>
            <path d="M491.847 301.048H538.664V304.936H491.847V301.048Z" fill="var(--vscode-list-errorForeground)"/>
            <path d="M505.466 336.039H568.457V339.927H505.466V336.039Z" fill="var(--vscode-list-errorForeground)"/>
            <path d="M493.549 318.544H545.474V322.432H493.549V318.544Z" fill="var(--vscode-list-errorForeground)"/>
            <path d="M357.353 510.606C357.353 510.061 357.353 509.789 357.446 509.581C357.527 509.398 357.657 509.25 357.818 509.156C358 509.05 358.238 509.05 358.715 509.05H402.468V512.938H358.715C358.238 512.938 358 512.938 357.818 512.832C357.657 512.739 357.527 512.591 357.446 512.408C357.353 512.2 357.353 511.928 357.353 511.383V510.606Z" fill="var(--vscode-list-errorForeground)"/>
            <path d="M409.278 510.606C409.278 510.061 409.278 509.789 409.37 509.581C409.452 509.398 409.582 509.25 409.742 509.156C409.924 509.05 410.163 509.05 410.64 509.05H476.865C477.342 509.05 477.58 509.05 477.762 509.156C477.922 509.25 478.053 509.398 478.134 509.581C478.227 509.789 478.227 510.061 478.227 510.606V511.383C478.227 511.928 478.227 512.2 478.134 512.408C478.053 512.591 477.922 512.739 477.762 512.832C477.58 512.938 477.342 512.938 476.865 512.938H410.64C410.163 512.938 409.924 512.938 409.742 512.832C409.582 512.739 409.452 512.591 409.37 512.408C409.278 512.2 409.278 511.928 409.278 511.383V510.606Z" fill="var(--vscode-list-errorForeground)"/>
            <!-- bluegreen -->
            <path d="M364.163 250.117C364.163 249.572 364.163 249.3 364.255 249.092C364.337 248.909 364.467 248.761 364.627 248.668C364.809 248.562 365.048 248.562 365.525 248.562H400.765V252.45H365.525C365.048 252.45 364.809 252.45 364.627 252.344C364.467 252.25 364.337 252.102 364.255 251.919C364.163 251.711 364.163 251.439 364.163 250.894V250.117Z" fill="var(--vscode-merge-currentHeaderBackground)"/>
        </g>
        
        <path d="M198 164.5H676C678.809 164.5 680.885 164.5 682.527 164.635C684.164 164.768 685.326 165.032 686.313 165.535C688.1 166.446 689.554 167.9 690.465 169.687C690.968 170.674 691.232 171.836 691.365 173.473C691.5 175.115 691.5 177.191 691.5 180V376.789C691.5 407.6 691.5 430.679 690.003 448.996C688.507 467.308 685.518 480.818 679.565 492.501C669.067 513.105 652.316 529.856 631.712 540.354C620.029 546.307 606.519 549.296 588.207 550.792C569.889 552.289 546.811 552.289 516 552.289H198C195.191 552.289 193.115 552.289 191.473 552.155C189.836 552.021 188.674 551.757 187.687 551.254C185.9 550.343 184.446 548.89 183.535 547.102C183.032 546.115 182.768 544.953 182.635 543.316C182.5 541.674 182.5 539.598 182.5 536.789V180C182.5 177.191 182.5 175.115 182.635 173.473C182.768 171.836 183.032 170.674 183.535 169.687C184.446 167.9 185.9 166.446 187.687 165.535C188.674 165.032 189.836 164.768 191.473 164.635C193.115 164.5 195.191 164.5 198 164.5Z" stroke="var(--vscode-foreground)" stroke-opacity="0.1"/>
    </g>
    
    <!-- bug -->
    <path d="M605 272.5L708.5 252.5" stroke="var(--vscode-foreground)" stroke-width="2" stroke-linecap="round"/>
    <path d="M605 272.5L631 177" stroke="var(--vscode-foreground)" stroke-width="2" stroke-linecap="round"/>
    <path d="M695 254C730.899 254 760 224.899 760 189C760 153.101 730.899 124 695 124C659.101 124 630 153.101 630 189C630 224.899 659.101 254 695 254Z" fill="var(--vscode-notebook-editorBackground, #28262B)" stroke="var(--vscode-foreground)" stroke-width="2"/>
    <path d="M686.543 160.436C685.325 155.9 680.657 153.209 676.125 154.427" stroke="var(--vscode-foreground)" stroke-width="2.5" stroke-miterlimit="10" stroke-linecap="round" stroke-linejoin="round"/>
    <path d="M703.362 160.436C704.58 155.9 709.248 153.209 713.78 154.427" stroke="var(--vscode-foreground)" stroke-width="2.5" stroke-miterlimit="10" stroke-linecap="round" stroke-linejoin="round"/>
    <path d="M712.968 185.3L722.963 181.947C724.14 181.552 724.729 181.354 725.164 180.989C725.548 180.667 725.845 180.254 726.029 179.787C726.236 179.258 726.236 178.638 726.236 177.396V172.047" stroke="var(--vscode-foreground)" stroke-width="2.5" stroke-miterlimit="10" stroke-linecap="round" stroke-linejoin="round"/>
    <path d="M713.771 208.386L722.957 211.455C724.136 211.849 724.726 212.046 725.161 212.411C725.546 212.733 725.844 213.146 726.028 213.614C726.236 214.143 726.236 214.764 726.236 216.007V221.352" stroke="var(--vscode-foreground)" stroke-width="2.5" stroke-miterlimit="10" stroke-linecap="round" stroke-linejoin="round"/>
    <path d="M676.937 185.3L666.95 181.947C665.773 181.552 665.184 181.354 664.749 180.99C664.365 180.667 664.068 180.254 663.885 179.787C663.677 179.259 663.677 178.638 663.677 177.397V172.047" stroke="var(--vscode-foreground)" stroke-width="2.5" stroke-miterlimit="10" stroke-linecap="round" stroke-linejoin="round"/>
    <path d="M676.133 208.386L666.955 211.454C665.777 211.848 665.187 212.045 664.751 212.41C664.367 212.733 664.069 213.146 663.885 213.613C663.677 214.142 663.677 214.764 663.677 216.007V221.352" stroke="var(--vscode-foreground)" stroke-width="2.5" stroke-miterlimit="10" stroke-linecap="round" stroke-linejoin="round"/>
    <path d="M679.034 175.178L673.368 186.908C665.673 202.843 677.266 221.352 694.957 221.352C712.647 221.352 724.24 202.843 716.545 186.908L710.88 175.178" fill="#A888F4"/>
    <path d="M694.957 175.178V221.352" stroke="var(--vscode-foreground)" stroke-width="2.5" stroke-miterlimit="10"/>
    <path d="M710.457 175.178H679.439V170.998C679.439 152.811 710.457 152.836 710.457 170.998V175.178Z" fill="#7759C2"/>
    
    <!-- warning -->
    <circle cx="267" cy="311" r="3" fill="var(--vscode-foreground)"/>
    <path d="M267 311V311C267 314.728 267 316.591 266.391 318.061C265.579 320.022 264.022 321.579 262.061 322.391C260.591 323 258.728 323 255 323H170" stroke="var(--vscode-foreground)" stroke-width="2" stroke-linecap="round"/>
    <path d="M139.104 272C124.246 288.223 105 284.652 105 284.652V313.933C105 319.019 106.015 324.08 108.188 328.676C117.067 347.395 139.104 354.352 139.104 354.352C139.104 354.352 161.141 347.395 170.02 328.676C172.201 324.08 173.208 319.019 173.208 313.933V284.652C173.208 284.652 153.961 288.223 139.104 272V272Z" fill="#FF9D73"/>
    <path d="M136.296 296.881L137.675 316.506H140.524L141.903 296.881H136.296Z" fill="var(--vscode-sideBar-background, #222024)" stroke="var(--vscode-sideBar-background, #222024)" stroke-width="2.62" stroke-miterlimit="10"/>
    <path d="M140.525 322.921H137.675V326.28H140.525V322.921Z" fill="var(--vscode-sideBar-background, #222024)" stroke="var(--vscode-sideBar-background, #222024)" stroke-width="2.62" stroke-miterlimit="10"/>
    
    <!-- like -->
    <path d="M168 483L271.5 463" stroke="var(--vscode-foreground)" stroke-width="2" stroke-linecap="round"/>
    <path d="M241.5 565L271.5 463" stroke="var(--vscode-foreground)" stroke-width="2" stroke-linecap="round"/>
    <path d="M179 612C214.899 612 244 582.899 244 547C244 511.101 214.899 482 179 482C143.101 482 114 511.101 114 547C114 582.899 143.101 612 179 612Z" fill="var(--vscode-notebook-editorBackground, #28262B)" stroke="var(--vscode-foreground)" stroke-width="2"/>
    <path d="M182.566 527.703C190.709 521.554 202.245 523.236 208.333 531.46C214.422 539.683 212.756 551.334 204.614 557.483L177.443 578L155.395 548.22L182.566 527.703Z" fill="#10B1B1"/>
    <path d="M172.434 527.791C164.291 521.643 152.755 523.324 146.667 531.548C140.578 539.771 142.244 551.422 150.386 557.571L177.44 578L199.488 548.22L172.434 527.791Z" fill="#10B1B1"/>
    
    <!-- check -->
    <circle cx="524.762" cy="451.318" r="3.43049" fill="var(--vscode-foreground)"/>
    <path d="M743.995 465.883H537.327C533.068 465.883 530.939 465.883 529.296 465.093C527.659 464.307 526.339 462.986 525.552 461.35C524.762 459.707 524.762 457.577 524.762 453.318V453.318" stroke="var(--vscode-foreground)" stroke-width="2" stroke-linecap="round"/>
    <path d="M712.062 417C697.221 433.198 678 429.627 678 429.627V458.866C678 463.943 679.015 468.996 681.188 473.582C690.05 492.277 712.062 499.225 712.062 499.225C712.062 499.225 734.065 492.277 742.935 473.582C745.108 468.996 746.123 463.943 746.123 458.866V429.627C746.123 429.627 726.902 433.198 712.062 417V417Z" fill="#10B1B1"/>
    <path d="M699.233 457.808L706.81 465.399L724.889 447.305" stroke="#222024" stroke-width="2.5" stroke-miterlimit="10"/>
    
    <defs>
        <filter id="filter0_f_242_122856" x="0" y="0" width="873" height="727" filterUnits="userSpaceOnUse" color-interpolation-filters="sRGB">
            <feFlood flood-opacity="0" result="BackgroundImageFix"/>
            <feBlend mode="normal" in="SourceGraphic" in2="BackgroundImageFix" result="shape"/>
            <feGaussianBlur stdDeviation="30" result="effect1_foregroundBlur_242_122856"/>
        </filter>
        <filter id="filter1_f_242_122856" x="462" y="30" width="381" height="381" filterUnits="userSpaceOnUse" color-interpolation-filters="sRGB">
            <feFlood flood-opacity="0" result="BackgroundImageFix"/>
            <feBlend mode="normal" in="SourceGraphic" in2="BackgroundImageFix" result="shape"/>
            <feGaussianBlur stdDeviation="15" result="effect1_foregroundBlur_242_122856"/>
        </filter>
        <filter id="filter2_f_242_122856" x="30" y="59" width="486" height="486" filterUnits="userSpaceOnUse" color-interpolation-filters="sRGB">
            <feFlood flood-opacity="0" result="BackgroundImageFix"/>
            <feBlend mode="normal" in="SourceGraphic" in2="BackgroundImageFix" result="shape"/>
            <feGaussianBlur stdDeviation="15" result="effect1_foregroundBlur_242_122856"/>
        </filter>
        <filter id="filter3_f_242_122856" x="281" y="140" width="557" height="557" filterUnits="userSpaceOnUse" color-interpolation-filters="sRGB">
            <feFlood flood-opacity="0" result="BackgroundImageFix"/>
            <feBlend mode="normal" in="SourceGraphic" in2="BackgroundImageFix" result="shape"/>
            <feGaussianBlur stdDeviation="15" result="effect1_foregroundBlur_242_122856"/>
        </filter>
        <radialGradient id="paint0_radial_242_122856" cx="0" cy="0" r="1" gradientUnits="userSpaceOnUse" gradientTransform="translate(652.5 220.5) rotate(89.5818) scale(153.77)">
            <stop stop-color="#7759C2"/>
            <stop offset="1" stop-color="#7759C2" stop-opacity="0"/>
        </radialGradient>
        <radialGradient id="paint1_radial_242_122856" cx="0" cy="0" r="1" gradientUnits="userSpaceOnUse" gradientTransform="translate(273 302) rotate(89.5818) scale(204.068)">
            <stop stop-color="#D64028"/>
            <stop offset="1" stop-color="#D64028" stop-opacity="0"/>
        </radialGradient>
        <radialGradient id="paint2_radial_242_122856" cx="0" cy="0" r="1" gradientUnits="userSpaceOnUse" gradientTransform="translate(559.5 418.5) rotate(89.5818) scale(238.08)">
            <stop stop-color="#EF76F1"/>
            <stop offset="1" stop-color="#EF76F1" stop-opacity="0"/>
        </radialGradient>
        <clipPath id="clip0_242_122856">
            <path d="M182 180C182 174.399 182 171.599 183.09 169.46C184.049 167.578 185.578 166.049 187.46 165.09C189.599 164 192.399 164 198 164H676C681.601 164 684.401 164 686.54 165.09C688.422 166.049 689.951 167.578 690.91 169.46C692 171.599 692 174.399 692 180V376.789C692 438.395 692 469.198 680.011 492.728C669.465 513.426 652.637 530.254 631.939 540.8C608.409 552.789 577.606 552.789 516 552.789H198C192.399 552.789 189.599 552.789 187.46 551.699C185.578 550.741 184.049 549.211 183.09 547.329C182 545.19 182 542.39 182 536.789V180Z" fill="white"/>
        </clipPath>
    </defs>
</svg>
