<svg width="906" height="737" viewBox="0 0 906 737" fill="none" xmlns="http://www.w3.org/2000/svg">

    <!-- lights -->
    <g class="test1" filter="url(#filter0_f_242_122568)">
        <g class="test3" filter="url(#filter1_f_242_122568)">
            <circle class="step1circle1" cx="334.5" cy="342.5" r="274.5" fill="url(#paint0_radial_242_122568)"/>
        </g>
        <g filter="url(#filter2_f_242_122568)">
            <circle class="step1circle2" cx="627" cy="279" r="219" fill="url(#paint1_radial_242_122568)"/>
        </g>
        <g filter="url(#filter3_f_242_122568)">
            <circle class="step1circle3" cx="611" cy="465" r="200" fill="url(#paint2_radial_242_122568)"/>
        </g>
    </g>

    <!-- interface -->
    <g clip-path="url(#clip0_242_122568)">
        <path d="M143 209C143 203.399 143 200.599 144.09 198.46C145.049 196.578 146.578 195.049 148.46 194.09C150.599 193 153.399 193 159 193H727C732.601 193 735.401 193 737.54 194.09C739.422 195.049 740.951 196.578 741.91 198.46C743 200.599 743 203.399 743 209V417C743 478.606 743 509.409 731.011 532.939C720.465 553.637 703.637 570.465 682.939 581.011C659.409 593 628.606 593 567 593H159C153.399 593 150.599 593 148.46 591.91C146.578 590.951 145.049 589.422 144.09 587.54C143 585.401 143 582.601 143 577V209Z" fill="var(--vscode-sideBar-background, #222024)"/>
        
        <!-- browser header -->
        <g>
            <path d="M143 193H743V210H143V193Z" fill="#F6F3FE"/>
            <path d="M160 201.5C160 203.433 158.433 205 156.5 205C154.567 205 153 203.433 153 201.5C153 199.567 154.567 198 156.5 198C158.433 198 160 199.567 160 201.5Z" fill="#10B1B1"/>
            <path d="M172 201.5C172 203.433 170.433 205 168.5 205C166.567 205 165 203.433 165 201.5C165 199.567 166.567 198 168.5 198C170.433 198 172 199.567 172 201.5Z" fill="#7759C2"/>
            <path d="M184 201.5C184 203.433 182.433 205 180.5 205C178.567 205 177 203.433 177 201.5C177 199.567 178.567 198 180.5 198C182.433 198 184 199.567 184 201.5Z" fill="#FF9D73"/>
        </g>
        <!-- brand label -->
        <g>
            <path d="M143 573H209V593H143V573Z" fill="#d14703"/>
            <path d="M162.747 582.161L161.119 578.014C161.086 577.932 161.028 577.863 160.952 577.816C160.895 577.781 160.831 577.759 160.764 577.752C160.697 577.745 160.63 577.754 160.567 577.777C160.504 577.801 160.448 577.838 160.402 577.887C160.357 577.935 160.324 577.993 160.306 578.056L159.207 581.342H154.756L153.657 578.056C153.639 577.993 153.606 577.935 153.56 577.887C153.515 577.839 153.459 577.801 153.396 577.778C153.333 577.755 153.266 577.746 153.199 577.753C153.132 577.759 153.068 577.781 153.011 577.816C152.935 577.863 152.877 577.932 152.844 578.014L151.2 582.203C150.965 582.801 150.936 583.457 151.117 584.073C151.298 584.688 151.679 585.229 152.203 585.615L152.209 585.619L152.223 585.63L154.699 587.442L156.675 588.9C156.762 588.965 156.869 589 156.979 589C157.089 589 157.195 588.965 157.283 588.9L159.258 587.442L161.753 585.619L161.76 585.614C162.283 585.229 162.664 584.687 162.845 584.072C163.032 583.437 162.983 582.775 162.747 582.161Z" fill="white"/>
            <path d="M170.853 587.171C172.698 587.171 173.895 586.014 173.895 584.227V583.353H171.004V584.236H172.815V584.393C172.806 585.477 172.02 586.204 170.867 586.204C169.544 586.204 168.714 585.159 168.714 583.475V583.465C168.714 581.805 169.539 580.75 170.843 580.75C171.81 580.75 172.483 581.219 172.737 582.054L172.752 582.103H173.846L173.836 582.054C173.582 580.691 172.444 579.783 170.843 579.783C168.87 579.783 167.596 581.233 167.596 583.47V583.479C167.596 585.745 168.855 587.171 170.853 587.171Z" fill="white"/>
            <path d="M175.833 580.75C176.194 580.75 176.497 580.452 176.497 580.091C176.497 579.725 176.194 579.427 175.833 579.427C175.467 579.427 175.169 579.725 175.169 580.091C175.169 580.452 175.467 580.75 175.833 580.75ZM175.301 587H176.355V581.697H175.301V587Z" fill="white"/>
            <path d="M179.9 587.034C180.105 587.034 180.301 587.01 180.472 586.98V586.136C180.325 586.15 180.232 586.155 180.071 586.155C179.549 586.155 179.334 585.921 179.334 585.35V582.532H180.472V581.697H179.334V580.359H178.255V581.697H177.425V582.532H178.255V585.604C178.255 586.624 178.733 587.034 179.9 587.034Z" fill="white"/>
            <path d="M181.829 587H186.224V586.058H182.923V579.954H181.829V587Z" fill="white"/>
            <path d="M188.943 587.088C189.646 587.088 190.203 586.785 190.516 586.248H190.599V587H191.648V583.372C191.648 582.259 190.896 581.595 189.563 581.595C188.357 581.595 187.522 582.176 187.396 583.045L187.391 583.079H188.411L188.416 583.06C188.543 582.684 188.929 582.469 189.515 582.469C190.232 582.469 190.599 582.791 190.599 583.372V583.841L189.163 583.924C187.898 584.002 187.186 584.554 187.186 585.501V585.511C187.186 586.473 187.933 587.088 188.943 587.088ZM188.24 585.467V585.457C188.24 584.979 188.572 584.715 189.305 584.671L190.599 584.588V585.042C190.599 585.726 190.018 586.243 189.227 586.243C188.655 586.243 188.24 585.955 188.24 585.467Z" fill="white"/>
            <path d="M195.96 587.088C197.298 587.088 198.157 586.019 198.157 584.354V584.344C198.157 582.664 197.308 581.604 195.96 581.604C195.232 581.604 194.612 581.966 194.329 582.537H194.251V579.617H193.191V587H194.251V586.165H194.329C194.637 586.746 195.218 587.088 195.96 587.088ZM195.662 586.185C194.778 586.185 194.231 585.486 194.231 584.354V584.344C194.231 583.211 194.778 582.513 195.662 582.513C196.546 582.513 197.078 583.206 197.078 584.344V584.354C197.078 585.491 196.546 586.185 195.662 586.185Z" fill="white"/>
        </g>
        <!-- status bar -->
        <g>
            <path d="M221.293 579.507C221.684 579.524 222.058 579.622 222.413 579.8C222.787 579.978 223.116 580.209 223.4 580.493C224.076 581.222 224.413 582.076 224.413 583.053C224.413 583.818 224.147 584.547 223.613 585.24C223.347 585.56 223.044 585.827 222.707 586.04C222.369 586.236 222.004 586.369 221.613 586.44C220.76 586.6 219.987 586.484 219.293 586.093C218.938 585.898 218.627 585.649 218.36 585.347C218.093 585.044 217.889 584.707 217.747 584.333C217.604 583.96 217.516 583.569 217.48 583.16C217.462 582.751 217.516 582.36 217.64 581.987C217.907 581.169 218.378 580.538 219.053 580.093C219.373 579.88 219.72 579.72 220.093 579.613C220.484 579.507 220.884 579.471 221.293 579.507ZM221.56 585.96C222.236 585.8 222.796 585.444 223.24 584.893C223.684 584.289 223.889 583.658 223.853 583C223.853 582.591 223.773 582.2 223.613 581.827C223.471 581.453 223.267 581.124 223 580.84C222.484 580.324 221.889 580.04 221.213 579.987C220.876 579.969 220.538 580.004 220.2 580.093C219.862 580.164 219.56 580.298 219.293 580.493C218.724 580.92 218.333 581.48 218.12 582.173C217.924 582.867 217.969 583.533 218.253 584.173C218.556 584.813 219.009 585.302 219.613 585.64C219.898 585.818 220.209 585.933 220.547 585.987C220.884 586.04 221.222 586.031 221.56 585.96ZM220.947 582.76L222.147 581.507L222.493 581.853L221.293 583.107L222.493 584.36L222.147 584.707L220.947 583.453L219.747 584.707L219.4 584.36L220.6 583.107L219.4 581.853L219.747 581.507L220.947 582.76Z" fill="var(--vscode-sideBarTitle-foreground)"/>
            <path d="M229.5 586.08C229.072 586.08 228.707 585.963 228.406 585.73C228.105 585.495 227.875 585.155 227.716 584.71C227.557 584.263 227.477 583.723 227.477 583.091C227.477 582.462 227.557 581.925 227.716 581.48C227.877 581.033 228.108 580.692 228.409 580.457C228.712 580.221 229.076 580.102 229.5 580.102C229.924 580.102 230.287 580.221 230.588 580.457C230.891 580.692 231.122 581.033 231.281 581.48C231.442 581.925 231.523 582.462 231.523 583.091C231.523 583.723 231.443 584.263 231.284 584.71C231.125 585.155 230.895 585.495 230.594 585.73C230.293 585.963 229.928 586.08 229.5 586.08ZM229.5 585.455C229.924 585.455 230.254 585.25 230.489 584.841C230.724 584.432 230.841 583.848 230.841 583.091C230.841 582.587 230.787 582.158 230.679 581.804C230.573 581.45 230.42 581.18 230.219 580.994C230.02 580.809 229.78 580.716 229.5 580.716C229.08 580.716 228.751 580.923 228.514 581.338C228.277 581.751 228.159 582.335 228.159 583.091C228.159 583.595 228.212 584.023 228.318 584.375C228.424 584.727 228.577 584.995 228.776 585.179C228.976 585.363 229.218 585.455 229.5 585.455Z" fill="var(--vscode-sideBarTitle-foreground)"/>
            <path d="M252.5 586.08C252.072 586.08 251.707 585.963 251.406 585.73C251.105 585.495 250.875 585.155 250.716 584.71C250.557 584.263 250.477 583.723 250.477 583.091C250.477 582.462 250.557 581.925 250.716 581.48C250.877 581.033 251.108 580.692 251.409 580.457C251.712 580.221 252.076 580.102 252.5 580.102C252.924 580.102 253.287 580.221 253.588 580.457C253.891 580.692 254.122 581.033 254.281 581.48C254.442 581.925 254.523 582.462 254.523 583.091C254.523 583.723 254.443 584.263 254.284 584.71C254.125 585.155 253.895 585.495 253.594 585.73C253.293 585.963 252.928 586.08 252.5 586.08ZM252.5 585.455C252.924 585.455 253.254 585.25 253.489 584.841C253.724 584.432 253.841 583.848 253.841 583.091C253.841 582.587 253.787 582.158 253.679 581.804C253.573 581.45 253.42 581.18 253.219 580.994C253.02 580.809 252.78 580.716 252.5 580.716C252.08 580.716 251.751 580.923 251.514 581.338C251.277 581.751 251.159 582.335 251.159 583.091C251.159 583.595 251.212 584.023 251.318 584.375C251.424 584.727 251.577 584.995 251.776 585.179C251.976 585.363 252.218 585.455 252.5 585.455Z" fill="var(--vscode-sideBarTitle-foreground)"/>
            <path d="M243.787 579.507H244.213L247.493 585.64L247.28 585.987H240.72L240.507 585.64L243.787 579.507ZM244 580.147L241.147 585.507H246.853L244 580.147ZM244.32 585V584.493H243.68V585H244.32ZM243.68 583.987V581.987H244.32V583.987H243.68Z" fill="var(--vscode-sideBarTitle-foreground)"/>
        </g>
        <!-- activity bar -->
        <g>
            <path d="M164 216.76H152V216H164V216.76ZM164 222.76H152V222H164V222.76ZM164 219.76H152V219H164V219.76Z" fill="var(--vscode-sideBarTitle-foreground)"/>
            <path d="M159.64 257C158.813 257 158.053 257.227 157.36 257.68C156.693 258.107 156.187 258.693 155.84 259.44C155.52 260.187 155.413 260.96 155.52 261.76C155.653 262.56 155.987 263.253 156.52 263.84L152.52 268.44L153.08 268.92L157.08 264.36C157.8 264.92 158.6 265.213 159.48 265.24C160.387 265.267 161.213 265.027 161.96 264.52C162.707 264.013 163.227 263.333 163.52 262.48C163.813 261.627 163.827 260.773 163.56 259.92C163.293 259.04 162.787 258.333 162.04 257.8C161.32 257.267 160.52 257 159.64 257ZM159.64 264.48C159.027 264.48 158.453 264.333 157.92 264.04C157.413 263.747 157 263.347 156.68 262.84C156.387 262.307 156.24 261.733 156.24 261.12C156.24 260.507 156.387 259.947 156.68 259.44C157 258.907 157.413 258.493 157.92 258.2C158.453 257.907 159.027 257.76 159.64 257.76C160.253 257.76 160.813 257.907 161.32 258.2C161.827 258.493 162.227 258.907 162.52 259.44C162.84 259.947 163 260.507 163 261.12C163 261.733 162.84 262.307 162.52 262.84C162.227 263.347 161.827 263.76 161.32 264.08C160.813 264.373 160.253 264.52 159.64 264.52V264.48Z" fill="var(--vscode-sideBarTitle-foreground)"/>
            <path d="M161.96 284.8C161.64 284.48 161.253 284.307 160.8 284.28C160.373 284.227 159.973 284.32 159.6 284.56C159.28 284.773 159.04 285.053 158.88 285.4C158.853 285.507 158.827 285.613 158.8 285.72C158 285.64 157.32 285.32 156.76 284.76C156.2 284.2 155.88 283.52 155.8 282.72C155.907 282.72 156.013 282.693 156.12 282.64C156.467 282.48 156.747 282.253 156.96 281.96C157.173 281.64 157.28 281.293 157.28 280.92C157.28 280.653 157.227 280.4 157.12 280.16C156.933 279.68 156.6 279.347 156.12 279.16C155.88 279.053 155.627 279 155.36 279C154.987 279 154.64 279.107 154.32 279.32C154.027 279.533 153.8 279.813 153.64 280.16C153.507 280.507 153.467 280.867 153.52 281.24C153.6 281.613 153.773 281.933 154.04 282.2C154.307 282.467 154.627 282.64 155 282.72V286.52C154.76 286.573 154.533 286.667 154.32 286.8C154.027 287.013 153.8 287.307 153.64 287.68C153.507 288.027 153.467 288.387 153.52 288.76C153.6 289.107 153.773 289.413 154.04 289.68C154.307 289.947 154.627 290.12 155 290.2C155.373 290.28 155.733 290.253 156.08 290.12C156.453 289.96 156.733 289.733 156.92 289.44C157.133 289.12 157.24 288.76 157.24 288.36C157.267 288.12 157.213 287.867 157.08 287.6C156.973 287.333 156.8 287.107 156.56 286.92C156.32 286.707 156.053 286.573 155.76 286.52V284.72C156.16 285.28 156.653 285.707 157.24 286C157.747 286.267 158.267 286.413 158.8 286.44C158.907 286.92 159.147 287.307 159.52 287.6C159.92 287.867 160.36 287.987 160.84 287.96C161.32 287.907 161.72 287.707 162.04 287.36C162.36 286.987 162.52 286.56 162.52 286.08C162.52 285.573 162.333 285.147 161.96 284.8ZM155.8 287.32C156.013 287.427 156.187 287.587 156.32 287.8C156.453 287.987 156.507 288.213 156.48 288.48C156.453 288.747 156.347 288.973 156.16 289.16C155.973 289.347 155.747 289.453 155.48 289.48C155.213 289.507 154.973 289.453 154.76 289.32C154.573 289.187 154.427 289.013 154.32 288.8C154.24 288.587 154.213 288.373 154.24 288.16C154.293 287.947 154.4 287.76 154.56 287.6C154.747 287.413 154.947 287.307 155.16 287.28C155.373 287.227 155.587 287.24 155.8 287.32ZM155.36 282C155.147 282 154.947 281.933 154.76 281.8C154.573 281.667 154.427 281.507 154.32 281.32C154.24 281.107 154.213 280.893 154.24 280.68C154.293 280.44 154.4 280.24 154.56 280.08C154.747 279.92 154.947 279.827 155.16 279.8C155.373 279.747 155.587 279.773 155.8 279.88C156.04 279.96 156.227 280.12 156.36 280.36C156.493 280.573 156.533 280.813 156.48 281.08C156.427 281.347 156.293 281.573 156.08 281.76C155.893 281.92 155.653 282 155.36 282ZM161.44 286.92C161.307 287.053 161.147 287.147 160.96 287.2C160.773 287.253 160.587 287.267 160.4 287.24C160.213 287.187 160.04 287.107 159.88 287C159.747 286.867 159.64 286.707 159.56 286.52C159.48 286.333 159.467 286.133 159.52 285.92C159.573 285.68 159.68 285.48 159.84 285.32C160 285.16 160.187 285.067 160.4 285.04C160.64 284.987 160.853 285 161.04 285.08C161.227 285.16 161.373 285.28 161.48 285.44C161.613 285.573 161.693 285.733 161.72 285.92C161.773 286.08 161.773 286.253 161.72 286.44C161.667 286.627 161.573 286.787 161.44 286.92Z" fill="var(--vscode-sideBarTitle-foreground)"/>
            <path d="M157.48 307.76L156.8 308.4C156.693 308 156.467 307.667 156.12 307.4C155.8 307.133 155.427 307 155 307C154.573 307 154.187 307.133 153.84 307.4C153.52 307.667 153.307 308 153.2 308.4L152.52 307.76L152 308.28L152.88 309.16L152.76 309.24V310H152V310.76H152.76V310.8C152.787 311.04 152.853 311.28 152.96 311.52L152 312.48L152.52 313L153.36 312.16C153.547 312.427 153.787 312.64 154.08 312.8C154.373 312.933 154.68 313 155 313C155.32 313 155.627 312.933 155.92 312.8C156.213 312.64 156.453 312.427 156.64 312.16L157.48 313L158 312.48L157.04 311.52C157.147 311.28 157.213 311.027 157.24 310.76V310.72H158V310H157.24V309.24L157.12 309.16L158 308.28L157.48 307.76ZM155 307.76C155.32 307.76 155.587 307.867 155.8 308.08C156.013 308.293 156.12 308.56 156.12 308.88H153.88C153.88 308.56 153.987 308.293 154.2 308.08C154.413 307.867 154.68 307.76 155 307.76ZM156.52 310.76C156.467 311.16 156.293 311.507 156 311.8C155.733 312.067 155.4 312.213 155 312.24C154.6 312.213 154.253 312.067 153.96 311.8C153.693 311.507 153.547 311.16 153.52 310.76V309.64H156.52V310.76ZM155.76 302.8L156.32 302.48L163.08 307V307.64L158.76 310.52V309.6L162.2 307.32L156.52 303.52V306.24H155.76V302.8Z" fill="var(--vscode-sideBarTitle-foreground)"/>
            <path d="M158.76 323.76L159.52 323H163.24L164 323.76V327.48L163.24 328.24H159.52L158.76 327.48V323.76ZM159.52 323.76V327.48H163.24V323.76H159.52ZM152 330.48V326L152.76 325.24H156.52L157.24 326V329.76H161L161.76 330.48V334.24L161 335H152.76L152 334.24V330.48ZM156.52 329.76V326H152.76V329.76H156.52ZM156.52 330.48H152.76V334.24H156.52V330.48ZM157.24 334.24H161V330.48H157.24V334.24Z" fill="var(--vscode-sideBarTitle-foreground)"/>
            
            <path d="M160.76 235H156.24L155.52 235.76V238H153.24L152.52 238.76V246.28L153.24 247H159.28L160 246.28V244H162.36L163 243.28V237.24L160.76 235ZM160.76 236.04L161.96 237.24H160.76V236.04ZM159.24 246.24H153.24V238.76H155.52V243.28L156.24 244H159.24V246.24ZM162.24 243.24H156.24V235.76H160V238H162.24V243.24Z" fill="var(--vscode-tab-activeForeground)"/>
            <path d="M143 232H145V250H143V232Z" fill="var(--vscode-tab-activeForeground)"/>
        </g>
        <!-- editor -->
        <g>
            <path d="M313 230H743V573H313V230Z" fill="var(--vscode-notebook-editorBackground, #28262B)"/>
            <!-- grey -->
            <path d="M367 531.6C367 531.04 367 530.76 367.109 530.546C367.205 530.358 367.358 530.205 367.546 530.109C367.76 530 368.04 530 368.6 530H370.4C370.96 530 371.24 530 371.454 530.109C371.642 530.205 371.795 530.358 371.891 530.546C372 530.76 372 531.04 372 531.6V532.4C372 532.96 372 533.24 371.891 533.454C371.795 533.642 371.642 533.795 371.454 533.891C371.24 534 370.96 534 370.4 534H368.6C368.04 534 367.76 534 367.546 533.891C367.358 533.795 367.205 533.642 367.109 533.454C367 533.24 367 532.96 367 532.4V531.6Z" fill="var(--vscode-symbolIcon-folderForeground)" fill-opacity="0.45"/>
            <path d="M376 531.6C376 531.04 376 530.76 376.109 530.546C376.205 530.358 376.358 530.205 376.546 530.109C376.76 530 377.04 530 377.6 530H419V534H377.6C377.04 534 376.76 534 376.546 533.891C376.358 533.795 376.205 533.642 376.109 533.454C376 533.24 376 532.96 376 532.4V531.6Z" fill="var(--vscode-symbolIcon-folderForeground)" fill-opacity="0.45"/>
            <path d="M402 548H404.4C404.96 548 405.24 548 405.454 548.109C405.642 548.205 405.795 548.358 405.891 548.546C406 548.76 406 549.04 406 549.6V550.4C406 550.96 406 551.24 405.891 551.454C405.795 551.642 405.642 551.795 405.454 551.891C405.24 552 404.96 552 404.4 552H402V548Z" fill="var(--vscode-symbolIcon-folderForeground)" fill-opacity="0.45"/>
            <path d="M320 515.6C320 515.04 320 514.76 320.109 514.546C320.205 514.358 320.358 514.205 320.546 514.109C320.76 514 321.04 514 321.6 514H323.4C323.96 514 324.24 514 324.454 514.109C324.642 514.205 324.795 514.358 324.891 514.546C325 514.76 325 515.04 325 515.6V516.4C325 516.96 325 517.24 324.891 517.454C324.795 517.642 324.642 517.795 324.454 517.891C324.24 518 323.96 518 323.4 518H321.6C321.04 518 320.76 518 320.546 517.891C320.358 517.795 320.205 517.642 320.109 517.454C320 517.24 320 516.96 320 516.4V515.6Z" fill="var(--vscode-symbolIcon-folderForeground)" fill-opacity="0.45"/>
            <path d="M372 515.6C372 515.04 372 514.76 372.109 514.546C372.205 514.358 372.358 514.205 372.546 514.109C372.76 514 373.04 514 373.6 514H393.4C393.96 514 394.24 514 394.454 514.109C394.642 514.205 394.795 514.358 394.891 514.546C395 514.76 395 515.04 395 515.6V516.4C395 516.96 395 517.24 394.891 517.454C394.795 517.642 394.642 517.795 394.454 517.891C394.24 518 393.96 518 393.4 518H373.6C373.04 518 372.76 518 372.546 517.891C372.358 517.795 372.205 517.642 372.109 517.454C372 517.24 372 516.96 372 516.4V515.6Z" fill="var(--vscode-symbolIcon-folderForeground)" fill-opacity="0.45"/>
            <path d="M399 515.6C399 515.04 399 514.76 399.109 514.546C399.205 514.358 399.358 514.205 399.546 514.109C399.76 514 400.04 514 400.6 514H406.4C406.96 514 407.24 514 407.454 514.109C407.642 514.205 407.795 514.358 407.891 514.546C408 514.76 408 515.04 408 515.6V516.4C408 516.96 408 517.24 407.891 517.454C407.795 517.642 407.642 517.795 407.454 517.891C407.24 518 406.96 518 406.4 518H400.6C400.04 518 399.76 518 399.546 517.891C399.358 517.795 399.205 517.642 399.109 517.454C399 517.24 399 516.96 399 516.4V515.6Z" fill="var(--vscode-symbolIcon-folderForeground)" fill-opacity="0.45"/>
            <path d="M412 515.6C412 515.04 412 514.76 412.109 514.546C412.205 514.358 412.358 514.205 412.546 514.109C412.76 514 413.04 514 413.6 514H433.4C433.96 514 434.24 514 434.454 514.109C434.642 514.205 434.795 514.358 434.891 514.546C435 514.76 435 515.04 435 515.6V516.4C435 516.96 435 517.24 434.891 517.454C434.795 517.642 434.642 517.795 434.454 517.891C434.24 518 433.96 518 433.4 518H413.6C413.04 518 412.76 518 412.546 517.891C412.358 517.795 412.205 517.642 412.109 517.454C412 517.24 412 516.96 412 516.4V515.6Z" fill="var(--vscode-symbolIcon-folderForeground)" fill-opacity="0.45"/>
            <path d="M439 515.6C439 515.04 439 514.76 439.109 514.546C439.205 514.358 439.358 514.205 439.546 514.109C439.76 514 440.04 514 440.6 514H474.4C474.96 514 475.24 514 475.454 514.109C475.642 514.205 475.795 514.358 475.891 514.546C476 514.76 476 515.04 476 515.6V516.4C476 516.96 476 517.24 475.891 517.454C475.795 517.642 475.642 517.795 475.454 517.891C475.24 518 474.96 518 474.4 518H440.6C440.04 518 439.76 518 439.546 517.891C439.358 517.795 439.205 517.642 439.109 517.454C439 517.24 439 516.96 439 516.4V515.6Z" fill="var(--vscode-symbolIcon-folderForeground)" fill-opacity="0.45"/>
            <path d="M480 515.6C480 515.04 480 514.76 480.109 514.546C480.205 514.358 480.358 514.205 480.546 514.109C480.76 514 481.04 514 481.6 514H504.4C504.96 514 505.24 514 505.454 514.109C505.642 514.205 505.795 514.358 505.891 514.546C506 514.76 506 515.04 506 515.6V516.4C506 516.96 506 517.24 505.891 517.454C505.795 517.642 505.642 517.795 505.454 517.891C505.24 518 504.96 518 504.4 518H481.6C481.04 518 480.76 518 480.546 517.891C480.358 517.795 480.205 517.642 480.109 517.454C480 517.24 480 516.96 480 516.4V515.6Z" fill="var(--vscode-symbolIcon-folderForeground)" fill-opacity="0.45"/>
            <path d="M329 515.6C329 515.04 329 514.76 329.109 514.546C329.205 514.358 329.358 514.205 329.546 514.109C329.76 514 330.04 514 330.6 514H366.4C366.96 514 367.24 514 367.454 514.109C367.642 514.205 367.795 514.358 367.891 514.546C368 514.76 368 515.04 368 515.6V516.4C368 516.96 368 517.24 367.891 517.454C367.795 517.642 367.642 517.795 367.454 517.891C367.24 518 366.96 518 366.4 518H330.6C330.04 518 329.76 518 329.546 517.891C329.358 517.795 329.205 517.642 329.109 517.454C329 517.24 329 516.96 329 516.4V515.6Z" fill="var(--vscode-symbolIcon-folderForeground)" fill-opacity="0.45"/>
            <path d="M320 531.6C320 531.04 320 530.76 320.109 530.546C320.205 530.358 320.358 530.205 320.546 530.109C320.76 530 321.04 530 321.6 530H361.4C361.96 530 362.24 530 362.454 530.109C362.642 530.205 362.795 530.358 362.891 530.546C363 530.76 363 531.04 363 531.6V532.4C363 532.96 363 533.24 362.891 533.454C362.795 533.642 362.642 533.795 362.454 533.891C362.24 534 361.96 534 361.4 534H321.6C321.04 534 320.76 534 320.546 533.891C320.358 533.795 320.205 533.642 320.109 533.454C320 533.24 320 532.96 320 532.4V531.6Z" fill="var(--vscode-symbolIcon-folderForeground)" fill-opacity="0.45"/>
            <path d="M320 245.6C320 245.04 320 244.76 320.109 244.546C320.205 244.358 320.358 244.205 320.546 244.109C320.76 244 321.04 244 321.6 244H323.4C323.96 244 324.24 244 324.454 244.109C324.642 244.205 324.795 244.358 324.891 244.546C325 244.76 325 245.04 325 245.6V246.4C325 246.96 325 247.24 324.891 247.454C324.795 247.642 324.642 247.795 324.454 247.891C324.24 248 323.96 248 323.4 248H321.6C321.04 248 320.76 248 320.546 247.891C320.358 247.795 320.205 247.642 320.109 247.454C320 247.24 320 246.96 320 246.4V245.6Z" fill="var(--vscode-symbolIcon-folderForeground)" fill-opacity="0.45"/>
            <path d="M329 245.6C329 245.04 329 244.76 329.109 244.546C329.205 244.358 329.358 244.205 329.546 244.109C329.76 244 330.04 244 330.6 244H356.4C356.96 244 357.24 244 357.454 244.109C357.642 244.205 357.795 244.358 357.891 244.546C358 244.76 358 245.04 358 245.6V246.4C358 246.96 358 247.24 357.891 247.454C357.795 247.642 357.642 247.795 357.454 247.891C357.24 248 356.96 248 356.4 248H330.6C330.04 248 329.76 248 329.546 247.891C329.358 247.795 329.205 247.642 329.109 247.454C329 247.24 329 246.96 329 246.4V245.6Z" fill="var(--vscode-symbolIcon-folderForeground)" fill-opacity="0.45"/>
            <path d="M362 245.6C362 245.04 362 244.76 362.109 244.546C362.205 244.358 362.358 244.205 362.546 244.109C362.76 244 363.04 244 363.6 244H390.4C390.96 244 391.24 244 391.454 244.109C391.642 244.205 391.795 244.358 391.891 244.546C392 244.76 392 245.04 392 245.6V246.4C392 246.96 392 247.24 391.891 247.454C391.795 247.642 391.642 247.795 391.454 247.891C391.24 248 390.96 248 390.4 248H363.6C363.04 248 362.76 248 362.546 247.891C362.358 247.795 362.205 247.642 362.109 247.454C362 247.24 362 246.96 362 246.4V245.6Z" fill="var(--vscode-symbolIcon-folderForeground)" fill-opacity="0.45"/>
            <path d="M396 245.6C396 245.04 396 244.76 396.109 244.546C396.205 244.358 396.358 244.205 396.546 244.109C396.76 244 397.04 244 397.6 244H403.4C403.96 244 404.24 244 404.454 244.109C404.642 244.205 404.795 244.358 404.891 244.546C405 244.76 405 245.04 405 245.6V246.4C405 246.96 405 247.24 404.891 247.454C404.795 247.642 404.642 247.795 404.454 247.891C404.24 248 403.96 248 403.4 248H397.6C397.04 248 396.76 248 396.546 247.891C396.358 247.795 396.205 247.642 396.109 247.454C396 247.24 396 246.96 396 246.4V245.6Z" fill="var(--vscode-symbolIcon-folderForeground)" fill-opacity="0.45"/>
            <path d="M409 245.6C409 245.04 409 244.76 409.109 244.546C409.205 244.358 409.358 244.205 409.546 244.109C409.76 244 410.04 244 410.6 244H441.4C441.96 244 442.24 244 442.454 244.109C442.642 244.205 442.795 244.358 442.891 244.546C443 244.76 443 245.04 443 245.6V246.4C443 246.96 443 247.24 442.891 247.454C442.795 247.642 442.642 247.795 442.454 247.891C442.24 248 441.96 248 441.4 248H410.6C410.04 248 409.76 248 409.546 247.891C409.358 247.795 409.205 247.642 409.109 247.454C409 247.24 409 246.96 409 246.4V245.6Z" fill="var(--vscode-symbolIcon-folderForeground)" fill-opacity="0.45"/>
            <!-- blue -->
            <path d="M320 281.6C320 281.04 320 280.76 320.109 280.546C320.205 280.358 320.358 280.205 320.546 280.109C320.76 280 321.04 280 321.6 280H351.4C351.96 280 352.24 280 352.454 280.109C352.642 280.205 352.795 280.358 352.891 280.546C353 280.76 353 281.04 353 281.6V282.4C353 282.96 353 283.24 352.891 283.454C352.795 283.642 352.642 283.795 352.454 283.891C352.24 284 351.96 284 351.4 284H321.6C321.04 284 320.76 284 320.546 283.891C320.358 283.795 320.205 283.642 320.109 283.454C320 283.24 320 282.96 320 282.4V281.6Z" fill="var(--vscode-symbolIcon-variableForeground)"/>
            <path d="M349 299.6C349 299.04 349 298.76 349.109 298.546C349.205 298.358 349.358 298.205 349.546 298.109C349.76 298 350.04 298 350.6 298H366.4C366.96 298 367.24 298 367.454 298.109C367.642 298.205 367.795 298.358 367.891 298.546C368 298.76 368 299.04 368 299.6V300.4C368 300.96 368 301.24 367.891 301.454C367.795 301.642 367.642 301.795 367.454 301.891C367.24 302 366.96 302 366.4 302H350.6C350.04 302 349.76 302 349.546 301.891C349.358 301.795 349.205 301.642 349.109 301.454C349 301.24 349 300.96 349 300.4V299.6Z" fill="var(--vscode-symbolIcon-variableForeground)"/>
            <path d="M405 298H407V302H405V298Z" fill="var(--vscode-symbolIcon-variableForeground)"/>
            <path d="M495 316H497V320H495V316Z" fill="var(--vscode-symbolIcon-variableForeground)"/>
            <path d="M469 298H473.4C473.96 298 474.24 298 474.454 298.109C474.642 298.205 474.795 298.358 474.891 298.546C475 298.76 475 299.04 475 299.6V300.4C475 300.96 475 301.24 474.891 301.454C474.795 301.642 474.642 301.795 474.454 301.891C474.24 302 473.96 302 473.4 302H469V298Z" fill="var(--vscode-symbolIcon-variableForeground)"/>
            <path d="M491 424H495.4C495.96 424 496.24 424 496.454 424.109C496.642 424.205 496.795 424.358 496.891 424.546C497 424.76 497 425.04 497 425.6V426.4C497 426.96 497 427.24 496.891 427.454C496.795 427.642 496.642 427.795 496.454 427.891C496.24 428 495.96 428 495.4 428H491V424Z" fill="var(--vscode-symbolIcon-variableForeground)"/>
            <path d="M415 425.6C415 425.04 415 424.76 415.109 424.546C415.205 424.358 415.358 424.205 415.546 424.109C415.76 424 416.04 424 416.6 424H436V428H416.6C416.04 428 415.76 428 415.546 427.891C415.358 427.795 415.205 427.642 415.109 427.454C415 427.24 415 426.96 415 426.4V425.6Z" fill="var(--vscode-symbolIcon-variableForeground)"/>
            <path d="M414 479.6C414 479.04 414 478.76 414.109 478.546C414.205 478.358 414.358 478.205 414.546 478.109C414.76 478 415.04 478 415.6 478H436V482H415.6C415.04 482 414.76 482 414.546 481.891C414.358 481.795 414.205 481.642 414.109 481.454C414 481.24 414 480.96 414 480.4V479.6Z" fill="var(--vscode-symbolIcon-variableForeground)"/>
            <path d="M509 479.6C509 479.04 509 478.76 509.109 478.546C509.205 478.358 509.358 478.205 509.546 478.109C509.76 478 510.04 478 510.6 478H529V482H510.6C510.04 482 509.76 482 509.546 481.891C509.358 481.795 509.205 481.642 509.109 481.454C509 481.24 509 480.96 509 480.4V479.6Z" fill="var(--vscode-symbolIcon-variableForeground)"/>
            <path d="M550 316H554.4C554.96 316 555.24 316 555.454 316.109C555.642 316.205 555.795 316.358 555.891 316.546C556 316.76 556 317.04 556 317.6V318.4C556 318.96 556 319.24 555.891 319.454C555.795 319.642 555.642 319.795 555.454 319.891C555.24 320 554.96 320 554.4 320H550V316Z" fill="var(--vscode-symbolIcon-variableForeground)"/>
            <path d="M349 407.6C349 407.04 349 406.76 349.109 406.546C349.205 406.358 349.358 406.205 349.546 406.109C349.76 406 350.04 406 350.6 406H366.4C366.96 406 367.24 406 367.454 406.109C367.642 406.205 367.795 406.358 367.891 406.546C368 406.76 368 407.04 368 407.6V408.4C368 408.96 368 409.24 367.891 409.454C367.795 409.642 367.642 409.795 367.454 409.891C367.24 410 366.96 410 366.4 410H350.6C350.04 410 349.76 410 349.546 409.891C349.358 409.795 349.205 409.642 349.109 409.454C349 409.24 349 408.96 349 408.4V407.6Z" fill="var(--vscode-symbolIcon-variableForeground)"/>
            <path d="M349 461.6C349 461.04 349 460.76 349.109 460.546C349.205 460.358 349.358 460.205 349.546 460.109C349.76 460 350.04 460 350.6 460H366.4C366.96 460 367.24 460 367.454 460.109C367.642 460.205 367.795 460.358 367.891 460.546C368 460.76 368 461.04 368 461.6V462.4C368 462.96 368 463.24 367.891 463.454C367.795 463.642 367.642 463.795 367.454 463.891C367.24 464 366.96 464 366.4 464H350.6C350.04 464 349.76 464 349.546 463.891C349.358 463.795 349.205 463.642 349.109 463.454C349 463.24 349 462.96 349 462.4V461.6Z" fill="var(--vscode-symbolIcon-variableForeground)"/>
            <path d="M416 406H418V410H416V406Z" fill="var(--vscode-symbolIcon-variableForeground)"/>
            <path d="M423 460H425V464H423V460Z" fill="var(--vscode-symbolIcon-variableForeground)"/>
            <path d="M419 530H421V534H419V530Z" fill="var(--vscode-symbolIcon-variableForeground)"/>
            <path d="M440 406H442V410H440V406Z" fill="var(--vscode-symbolIcon-variableForeground)"/>
            <path d="M447 460H449V464H447V460Z" fill="var(--vscode-symbolIcon-variableForeground)"/>
            <path d="M377 317.6C377 317.04 377 316.76 377.109 316.546C377.205 316.358 377.358 316.205 377.546 316.109C377.76 316 378.04 316 378.6 316H398V320H378.6C378.04 320 377.76 320 377.546 319.891C377.358 319.795 377.205 319.642 377.109 319.454C377 319.24 377 318.96 377 318.4V317.6Z" fill="var(--vscode-symbolIcon-variableForeground)"/>
            <path d="M505 334H507V338H505V334Z" fill="var(--vscode-symbolIcon-variableForeground)"/>
            <path d="M562 334H566.4C566.96 334 567.24 334 567.454 334.109C567.642 334.205 567.795 334.358 567.891 334.546C568 334.76 568 335.04 568 335.6V336.4C568 336.96 568 337.24 567.891 337.454C567.795 337.642 567.642 337.795 567.454 337.891C567.24 338 566.96 338 566.4 338H562V334Z" fill="var(--vscode-symbolIcon-variableForeground)"/>
            <path d="M377 335.6C377 335.04 377 334.76 377.109 334.546C377.205 334.358 377.358 334.205 377.546 334.109C377.76 334 378.04 334 378.6 334H398V338H378.6C378.04 338 377.76 338 377.546 337.891C377.358 337.795 377.205 337.642 377.109 337.454C377 337.24 377 336.96 377 336.4V335.6Z" fill="var(--vscode-symbolIcon-variableForeground)"/>
            <path d="M507 352H509V356H507V352Z" fill="var(--vscode-symbolIcon-variableForeground)"/>
            <path d="M570 352H574.4C574.96 352 575.24 352 575.454 352.109C575.642 352.205 575.795 352.358 575.891 352.546C576 352.76 576 353.04 576 353.6V354.4C576 354.96 576 355.24 575.891 355.454C575.795 355.642 575.642 355.795 575.454 355.891C575.24 356 574.96 356 574.4 356H570V352Z" fill="var(--vscode-symbolIcon-variableForeground)"/>
            <path d="M377 353.6C377 353.04 377 352.76 377.109 352.546C377.205 352.358 377.358 352.205 377.546 352.109C377.76 352 378.04 352 378.6 352H398V356H378.6C378.04 356 377.76 356 377.546 355.891C377.358 355.795 377.205 355.642 377.109 355.454C377 355.24 377 354.96 377 354.4V353.6Z" fill="var(--vscode-symbolIcon-variableForeground)"/>
            <path d="M521 370H523V374H521V370Z" fill="var(--vscode-symbolIcon-variableForeground)"/>
            <path d="M597 370H601.4C601.96 370 602.24 370 602.454 370.109C602.642 370.205 602.795 370.358 602.891 370.546C603 370.76 603 371.04 603 371.6V372.4C603 372.96 603 373.24 602.891 373.454C602.795 373.642 602.642 373.795 602.454 373.891C602.24 374 601.96 374 601.4 374H597V370Z" fill="var(--vscode-symbolIcon-variableForeground)"/>
            <path d="M377 371.6C377 371.04 377 370.76 377.109 370.546C377.205 370.358 377.358 370.205 377.546 370.109C377.76 370 378.04 370 378.6 370H398V374H378.6C378.04 374 377.76 374 377.546 373.891C377.358 373.795 377.205 373.642 377.109 373.454C377 373.24 377 372.96 377 372.4V371.6Z" fill="var(--vscode-symbolIcon-variableForeground)"/>
            <!-- yellow -->
            <path d="M372 299.6C372 299.04 372 298.76 372.109 298.546C372.205 298.358 372.358 298.205 372.546 298.109C372.76 298 373.04 298 373.6 298H405V302H373.6C373.04 302 372.76 302 372.546 301.891C372.358 301.795 372.205 301.642 372.109 301.454C372 301.24 372 300.96 372 300.4V299.6Z" fill="var(--vscode-symbolIcon-enumeratorForeground)"/>
            <!-- white -->
            <path d="M407 298H430.4C430.96 298 431.24 298 431.454 298.109C431.642 298.205 431.795 298.358 431.891 298.546C432 298.76 432 299.04 432 299.6V300.4C432 300.96 432 301.24 431.891 301.454C431.795 301.642 431.642 301.795 431.454 301.891C431.24 302 430.96 302 430.4 302H407V298Z" fill="var(--vscode-symbolIcon-folderForeground)"/>
            <path d="M418 406H440V410H418V406Z" fill="var(--vscode-symbolIcon-folderForeground)"/>
            <path d="M425 460H447V464H425V460Z" fill="var(--vscode-symbolIcon-folderForeground)"/>
            <path d="M442 406H445.4C445.96 406 446.24 406 446.454 406.109C446.642 406.205 446.795 406.358 446.891 406.546C447 406.76 447 407.04 447 407.6V408.4C447 408.96 447 409.24 446.891 409.454C446.795 409.642 446.642 409.795 446.454 409.891C446.24 410 445.96 410 445.4 410H442V406Z" fill="var(--vscode-symbolIcon-folderForeground)"/>
            <path d="M449 460H452.4C452.96 460 453.24 460 453.454 460.109C453.642 460.205 453.795 460.358 453.891 460.546C454 460.76 454 461.04 454 461.6V462.4C454 462.96 454 463.24 453.891 463.454C453.795 463.642 453.642 463.795 453.454 463.891C453.24 464 452.96 464 452.4 464H449V460Z" fill="var(--vscode-symbolIcon-folderForeground)"/>
            <path d="M500 479.6C500 479.04 500 478.76 500.109 478.546C500.205 478.358 500.358 478.205 500.546 478.109C500.76 478 501.04 478 501.6 478H503.4C503.96 478 504.24 478 504.454 478.109C504.642 478.205 504.795 478.358 504.891 478.546C505 478.76 505 479.04 505 479.6V480.4C505 480.96 505 481.24 504.891 481.454C504.795 481.642 504.642 481.795 504.454 481.891C504.24 482 503.96 482 503.4 482H501.6C501.04 482 500.76 482 500.546 481.891C500.358 481.795 500.205 481.642 500.109 481.454C500 481.24 500 480.96 500 480.4V479.6Z" fill="var(--vscode-symbolIcon-folderForeground)"/>
            <path d="M398 316H446.4C446.96 316 447.24 316 447.454 316.109C447.642 316.205 447.795 316.358 447.891 316.546C448 316.76 448 317.04 448 317.6V318.4C448 318.96 448 319.24 447.891 319.454C447.795 319.642 447.642 319.795 447.454 319.891C447.24 320 446.96 320 446.4 320H398V316Z" fill="var(--vscode-symbolIcon-folderForeground)"/>
            <path d="M452 317.6C452 317.04 452 316.76 452.109 316.546C452.205 316.358 452.358 316.205 452.546 316.109C452.76 316 453.04 316 453.6 316H456.4C456.96 316 457.24 316 457.454 316.109C457.642 316.205 457.795 316.358 457.891 316.546C458 316.76 458 317.04 458 317.6V318.4C458 318.96 458 319.24 457.891 319.454C457.795 319.642 457.642 319.795 457.454 319.891C457.24 320 456.96 320 456.4 320H453.6C453.04 320 452.76 320 452.546 319.891C452.358 319.795 452.205 319.642 452.109 319.454C452 319.24 452 318.96 452 318.4V317.6Z" fill="var(--vscode-symbolIcon-folderForeground)"/>
            <path d="M462 317.6C462 317.04 462 316.76 462.109 316.546C462.205 316.358 462.358 316.205 462.546 316.109C462.76 316 463.04 316 463.6 316H495V320H463.6C463.04 320 462.76 320 462.546 319.891C462.358 319.795 462.205 319.642 462.109 319.454C462 319.24 462 318.96 462 318.4V317.6Z" fill="var(--vscode-symbolIcon-folderForeground)"/>
            <path d="M398 334H450.4C450.96 334 451.24 334 451.454 334.109C451.642 334.205 451.795 334.358 451.891 334.546C452 334.76 452 335.04 452 335.6V336.4C452 336.96 452 337.24 451.891 337.454C451.795 337.642 451.642 337.795 451.454 337.891C451.24 338 450.96 338 450.4 338H398V334Z" fill="var(--vscode-symbolIcon-folderForeground)"/>
            <path d="M456 335.6C456 335.04 456 334.76 456.109 334.546C456.205 334.358 456.358 334.205 456.546 334.109C456.76 334 457.04 334 457.6 334H463.4C463.96 334 464.24 334 464.454 334.109C464.642 334.205 464.795 334.358 464.891 334.546C465 334.76 465 335.04 465 335.6V336.4C465 336.96 465 337.24 464.891 337.454C464.795 337.642 464.642 337.795 464.454 337.891C464.24 338 463.96 338 463.4 338H457.6C457.04 338 456.76 338 456.546 337.891C456.358 337.795 456.205 337.642 456.109 337.454C456 337.24 456 336.96 456 336.4V335.6Z" fill="var(--vscode-symbolIcon-folderForeground)"/>
            <path d="M469 335.6C469 335.04 469 334.76 469.109 334.546C469.205 334.358 469.358 334.205 469.546 334.109C469.76 334 470.04 334 470.6 334H505V338H470.6C470.04 338 469.76 338 469.546 337.891C469.358 337.795 469.205 337.642 469.109 337.454C469 337.24 469 336.96 469 336.4V335.6Z" fill="var(--vscode-symbolIcon-folderForeground)"/>
            <path d="M398 352H457.4C457.96 352 458.24 352 458.454 352.109C458.642 352.205 458.795 352.358 458.891 352.546C459 352.76 459 353.04 459 353.6V354.4C459 354.96 459 355.24 458.891 355.454C458.795 355.642 458.642 355.795 458.454 355.891C458.24 356 457.96 356 457.4 356H398V352Z" fill="var(--vscode-symbolIcon-folderForeground)"/>
            <path d="M463 353.6C463 353.04 463 352.76 463.109 352.546C463.205 352.358 463.358 352.205 463.546 352.109C463.76 352 464.04 352 464.6 352H467.4C467.96 352 468.24 352 468.454 352.109C468.642 352.205 468.795 352.358 468.891 352.546C469 352.76 469 353.04 469 353.6V354.4C469 354.96 469 355.24 468.891 355.454C468.795 355.642 468.642 355.795 468.454 355.891C468.24 356 467.96 356 467.4 356H464.6C464.04 356 463.76 356 463.546 355.891C463.358 355.795 463.205 355.642 463.109 355.454C463 355.24 463 354.96 463 354.4V353.6Z" fill="var(--vscode-symbolIcon-folderForeground)"/>
            <path d="M473 353.6C473 353.04 473 352.76 473.109 352.546C473.205 352.358 473.358 352.205 473.546 352.109C473.76 352 474.04 352 474.6 352H507V356H474.6C474.04 356 473.76 356 473.546 355.891C473.358 355.795 473.205 355.642 473.109 355.454C473 355.24 473 354.96 473 354.4V353.6Z" fill="var(--vscode-symbolIcon-folderForeground)"/>
            <path d="M398 370H470.4C470.96 370 471.24 370 471.454 370.109C471.642 370.205 471.795 370.358 471.891 370.546C472 370.76 472 371.04 472 371.6V372.4C472 372.96 472 373.24 471.891 373.454C471.795 373.642 471.642 373.795 471.454 373.891C471.24 374 470.96 374 470.4 374H398V370Z" fill="var(--vscode-symbolIcon-folderForeground)"/>
            <path d="M476 371.6C476 371.04 476 370.76 476.109 370.546C476.205 370.358 476.358 370.205 476.546 370.109C476.76 370 477.04 370 477.6 370H480.4C480.96 370 481.24 370 481.454 370.109C481.642 370.205 481.795 370.358 481.891 370.546C482 370.76 482 371.04 482 371.6V372.4C482 372.96 482 373.24 481.891 373.454C481.795 373.642 481.642 373.795 481.454 373.891C481.24 374 480.96 374 480.4 374H477.6C477.04 374 476.76 374 476.546 373.891C476.358 373.795 476.205 373.642 476.109 373.454C476 373.24 476 372.96 476 372.4V371.6Z" fill="var(--vscode-symbolIcon-folderForeground)"/>
            <path d="M486 371.6C486 371.04 486 370.76 486.109 370.546C486.205 370.358 486.358 370.205 486.546 370.109C486.76 370 487.04 370 487.6 370H521V374H487.6C487.04 374 486.76 374 486.546 373.891C486.358 373.795 486.205 373.642 486.109 373.454C486 373.24 486 372.96 486 372.4V371.6Z" fill="var(--vscode-symbolIcon-folderForeground)"/>
            <path d="M436 299.6C436 299.04 436 298.76 436.109 298.546C436.205 298.358 436.358 298.205 436.546 298.109C436.76 298 437.04 298 437.6 298H469V302H437.6C437.04 302 436.76 302 436.546 301.891C436.358 301.795 436.205 301.642 436.109 301.454C436 301.24 436 300.96 436 300.4V299.6Z" fill="var(--vscode-symbolIcon-folderForeground)"/>
            <path d="M436 424H491V428H436V424Z" fill="var(--vscode-symbolIcon-folderForeground)"/>
            <path d="M436 478H494.4C494.96 478 495.24 478 495.454 478.109C495.642 478.205 495.795 478.358 495.891 478.546C496 478.76 496 479.04 496 479.6V480.4C496 480.96 496 481.24 495.891 481.454C495.795 481.642 495.642 481.795 495.454 481.891C495.24 482 494.96 482 494.4 482H436V478Z" fill="var(--vscode-symbolIcon-folderForeground)"/>
            <path d="M529 478H581.4C581.96 478 582.24 478 582.454 478.109C582.642 478.205 582.795 478.358 582.891 478.546C583 478.76 583 479.04 583 479.6V480.4C583 480.96 583 481.24 582.891 481.454C582.795 481.642 582.642 481.795 582.454 481.891C582.24 482 581.96 482 581.4 482H529V478Z" fill="var(--vscode-symbolIcon-folderForeground)"/>
            <path d="M400 280H402.4C402.96 280 403.24 280 403.454 280.109C403.642 280.205 403.795 280.358 403.891 280.546C404 280.76 404 281.04 404 281.6V282.4C404 282.96 404 283.24 403.891 283.454C403.795 283.642 403.642 283.795 403.454 283.891C403.24 284 402.96 284 402.4 284H400V280Z" fill="var(--vscode-symbolIcon-folderForeground)"/>
            <!-- green -->
            <path d="M421 530H424.4C424.96 530 425.24 530 425.454 530.109C425.642 530.205 425.795 530.358 425.891 530.546C426 530.76 426 531.04 426 531.6V532.4C426 532.96 426 533.24 425.891 533.454C425.795 533.642 425.642 533.795 425.454 533.891C425.24 534 424.96 534 424.4 534H421V530Z" fill="var(--vscode-editorOverviewRuler-currentContentForeground)"/>
            <!-- orange -->
            <path d="M372 407.6C372 407.04 372 406.76 372.109 406.546C372.205 406.358 372.358 406.205 372.546 406.109C372.76 406 373.04 406 373.6 406H416V410H373.6C373.04 410 372.76 410 372.546 409.891C372.358 409.795 372.205 409.642 372.109 409.454C372 409.24 372 408.96 372 408.4V407.6Z" fill="var(--vscode-symbolIcon-eventForeground)"/>
            <path d="M372 461.6C372 461.04 372 460.76 372.109 460.546C372.205 460.358 372.358 460.205 372.546 460.109C372.76 460 373.04 460 373.6 460H423V464H373.6C373.04 464 372.76 464 372.546 463.891C372.358 463.795 372.205 463.642 372.109 463.454C372 463.24 372 462.96 372 462.4V461.6Z" fill="var(--vscode-symbolIcon-eventForeground)"/>
            <!-- violet -->
            <path d="M377 425.6C377 425.04 377 424.76 377.109 424.546C377.205 424.358 377.358 424.205 377.546 424.109C377.76 424 378.04 424 378.6 424H409.4C409.96 424 410.24 424 410.454 424.109C410.642 424.205 410.795 424.358 410.891 424.546C411 424.76 411 425.04 411 425.6V426.4C411 426.96 411 427.24 410.891 427.454C410.795 427.642 410.642 427.795 410.454 427.891C410.24 428 409.96 428 409.4 428H378.6C378.04 428 377.76 428 377.546 427.891C377.358 427.795 377.205 427.642 377.109 427.454C377 427.24 377 426.96 377 426.4V425.6Z" fill="var(--vscode-symbolIcon-functionForeground)"/>
            <path d="M377 479.6C377 479.04 377 478.76 377.109 478.546C377.205 478.358 377.358 478.205 377.546 478.109C377.76 478 378.04 478 378.6 478H408.4C408.96 478 409.24 478 409.454 478.109C409.642 478.205 409.795 478.358 409.891 478.546C410 478.76 410 479.04 410 479.6V480.4C410 480.96 410 481.24 409.891 481.454C409.795 481.642 409.642 481.795 409.454 481.891C409.24 482 408.96 482 408.4 482H378.6C378.04 482 377.76 482 377.546 481.891C377.358 481.795 377.205 481.642 377.109 481.454C377 481.24 377 480.96 377 480.4V479.6Z" fill="var(--vscode-symbolIcon-functionForeground)"/>
            <!-- red -->
            <path d="M497 316H550V320H497V316Z" fill="var(--vscode-list-errorForeground)"/>
            <path d="M507 334H562V338H507V334Z" fill="var(--vscode-list-errorForeground)"/>
            <path d="M509 352H570V356H509V352Z" fill="var(--vscode-list-errorForeground)"/>
            <path d="M523 370H597V374H523V370Z" fill="var(--vscode-list-errorForeground)"/>
            <path d="M349 549.6C349 549.04 349 548.76 349.109 548.546C349.205 548.358 349.358 548.205 349.546 548.109C349.76 548 350.04 548 350.6 548H402V552H350.6C350.04 552 349.76 552 349.546 551.891C349.358 551.795 349.205 551.642 349.109 551.454C349 551.24 349 550.96 349 550.4V549.6Z" fill="var(--vscode-list-errorForeground)"/>
            <path d="M410 549.6C410 549.04 410 548.76 410.109 548.546C410.205 548.358 410.358 548.205 410.546 548.109C410.76 548 411.04 548 411.6 548H489.4C489.96 548 490.24 548 490.454 548.109C490.642 548.205 490.795 548.358 490.891 548.546C491 548.76 491 549.04 491 549.6V550.4C491 550.96 491 551.24 490.891 551.454C490.795 551.642 490.642 551.795 490.454 551.891C490.24 552 489.96 552 489.4 552H411.6C411.04 552 410.76 552 410.546 551.891C410.358 551.795 410.205 551.642 410.109 551.454C410 551.24 410 550.96 410 550.4V549.6Z" fill="var(--vscode-list-errorForeground)"/>
            <!-- bluegreen -->
            <path d="M357 281.6C357 281.04 357 280.76 357.109 280.546C357.205 280.358 357.358 280.205 357.546 280.109C357.76 280 358.04 280 358.6 280H400V284H358.6C358.04 284 357.76 284 357.546 283.891C357.358 283.795 357.205 283.642 357.109 283.454C357 283.24 357 282.96 357 282.4V281.6Z" fill="var(--vscode-merge-currentHeaderBackground)"/>
        </g>
        <!-- tab bar -->
        <g>
            <path d="M453 210H523V230H453V210Z" fill="var(--vscode-tab-activeBackground, #28262B)"/>
            <path d="M490 219.6C490 219.04 490 218.76 490.109 218.546C490.205 218.358 490.358 218.205 490.546 218.109C490.76 218 491.04 218 491.6 218H504.4C504.96 218 505.24 218 505.454 218.109C505.642 218.205 505.795 218.358 505.891 218.546C506 218.76 506 219.04 506 219.6V220.4C506 220.96 506 221.24 505.891 221.454C505.795 221.642 505.642 221.795 505.454 221.891C505.24 222 504.96 222 504.4 222H491.6C491.04 222 490.76 222 490.546 221.891C490.358 221.795 490.205 221.642 490.109 221.454C490 221.24 490 220.96 490 220.4V219.6Z" fill="var(--vscode-tab-activeForeground)"/>
            <path d="M460 219.6C460 219.04 460 218.76 460.109 218.546C460.205 218.358 460.358 218.205 460.546 218.109C460.76 218 461.04 218 461.6 218H484.4C484.96 218 485.24 218 485.454 218.109C485.642 218.205 485.795 218.358 485.891 218.546C486 218.76 486 219.04 486 219.6V220.4C486 220.96 486 221.24 485.891 221.454C485.795 221.642 485.642 221.795 485.454 221.891C485.24 222 484.96 222 484.4 222H461.6C461.04 222 460.76 222 460.546 221.891C460.358 221.795 460.205 221.642 460.109 221.454C460 221.24 460 220.96 460 220.4V219.6Z" fill="var(--vscode-tab-activeForeground)"/>
            
            <path d="M320 219.6C320 219.04 320 218.76 320.109 218.546C320.205 218.358 320.358 218.205 320.546 218.109C320.76 218 321.04 218 321.6 218H368.4C368.96 218 369.24 218 369.454 218.109C369.642 218.205 369.795 218.358 369.891 218.546C370 218.76 370 219.04 370 219.6V220.4C370 220.96 370 221.24 369.891 221.454C369.795 221.642 369.642 221.795 369.454 221.891C369.24 222 368.96 222 368.4 222H321.6C321.04 222 320.76 222 320.546 221.891C320.358 221.795 320.205 221.642 320.109 221.454C320 221.24 320 220.96 320 220.4V219.6Z" fill="var(--vscode-tab-inactiveForeground)"/>
            <path d="M390 219.6C390 219.04 390 218.76 390.109 218.546C390.205 218.358 390.358 218.205 390.546 218.109C390.76 218 391.04 218 391.6 218H438.4C438.96 218 439.24 218 439.454 218.109C439.642 218.205 439.795 218.358 439.891 218.546C440 218.76 440 219.04 440 219.6V220.4C440 220.96 440 221.24 439.891 221.454C439.795 221.642 439.642 221.795 439.454 221.891C439.24 222 438.96 222 438.4 222H391.6C391.04 222 390.76 222 390.546 221.891C390.358 221.795 390.205 221.642 390.109 221.454C390 221.24 390 220.96 390 220.4V219.6Z" fill="var(--vscode-tab-inactiveForeground)"/>
            
            <!-- buttons -->
            <path d="M716.013 216.507L715.507 217.013V223.013L716.013 223.493H722.013L722.493 223.013V217.013L722.013 216.507H716.013ZM716.013 223.013V217.013H719.507V223.013H716.013ZM720.013 223.013V217.013H722.013V223.013H720.013Z" fill="var(--vscode-tab-inactiveForeground)"/>
            <path d="M729 220C729 220.142 728.947 220.267 728.84 220.373C728.751 220.462 728.636 220.507 728.493 220.507C728.351 220.507 728.236 220.462 728.147 220.373C728.058 220.267 728.013 220.142 728.013 220C728.013 219.858 728.058 219.742 728.147 219.653C728.236 219.547 728.351 219.493 728.493 219.493C728.636 219.493 728.751 219.547 728.84 219.653C728.947 219.742 729 219.858 729 220ZM731.507 220C731.507 220.142 731.453 220.267 731.347 220.373C731.258 220.462 731.142 220.507 731 220.507C730.858 220.507 730.733 220.462 730.627 220.373C730.538 220.267 730.493 220.142 730.493 220C730.493 219.858 730.538 219.742 730.627 219.653C730.733 219.547 730.858 219.493 731 219.493C731.142 219.493 731.258 219.547 731.347 219.653C731.453 219.742 731.507 219.858 731.507 220ZM734.013 220C734.013 220.142 733.96 220.267 733.853 220.373C733.764 220.462 733.649 220.507 733.507 220.507C733.364 220.507 733.24 220.462 733.133 220.373C733.044 220.267 733 220.142 733 220C733 219.858 733.044 219.742 733.133 219.653C733.24 219.547 733.364 219.493 733.507 219.493C733.649 219.493 733.764 219.547 733.853 219.653C733.96 219.742 734.013 219.858 734.013 220Z" fill="var(--vscode-tab-inactiveForeground)"/>
        </g>
        <!-- sidebar -->
        <g>
            <path d="M173 282H313V300H173V282Z" fill="var(--vscode-list-activeSelectionBackground)"/>
            <path d="M192 290.6C192 290.04 192 289.76 192.109 289.546C192.205 289.358 192.358 289.205 192.546 289.109C192.76 289 193.04 289 193.6 289H282.4C282.96 289 283.24 289 283.454 289.109C283.642 289.205 283.795 289.358 283.891 289.546C284 289.76 284 290.04 284 290.6V291.4C284 291.96 284 292.24 283.891 292.454C283.795 292.642 283.642 292.795 283.454 292.891C283.24 293 282.96 293 282.4 293H193.6C193.04 293 192.76 293 192.546 292.891C192.358 292.795 192.205 292.642 192.109 292.454C192 292.24 192 291.96 192 291.4V290.6Z" fill="var(--vscode-list-activeSelectionForeground)"/>
            <path d="M178 236.6C178 236.04 178 235.76 178.109 235.546C178.205 235.358 178.358 235.205 178.546 235.109C178.76 235 179.04 235 179.6 235H192.4C192.96 235 193.24 235 193.454 235.109C193.642 235.205 193.795 235.358 193.891 235.546C194 235.76 194 236.04 194 236.6V237.4C194 237.96 194 238.24 193.891 238.454C193.795 238.642 193.642 238.795 193.454 238.891C193.24 239 192.96 239 192.4 239H179.6C179.04 239 178.76 239 178.546 238.891C178.358 238.795 178.205 238.642 178.109 238.454C178 238.24 178 237.96 178 237.4V236.6Z" fill="var(--vscode-sideBarTitle-foreground)"/>
            <path d="M198 236.6C198 236.04 198 235.76 198.109 235.546C198.205 235.358 198.358 235.205 198.546 235.109C198.76 235 199.04 235 199.6 235H229.4C229.96 235 230.24 235 230.454 235.109C230.642 235.205 230.795 235.358 230.891 235.546C231 235.76 231 236.04 231 236.6V237.4C231 237.96 231 238.24 230.891 238.454C230.795 238.642 230.642 238.795 230.454 238.891C230.24 239 229.96 239 229.4 239H199.6C199.04 239 198.76 239 198.546 238.891C198.358 238.795 198.205 238.642 198.109 238.454C198 238.24 198 237.96 198 237.4V236.6Z" fill="var(--vscode-sideBarTitle-foreground)"/>
            <path d="M235 236.6C235 236.04 235 235.76 235.109 235.546C235.205 235.358 235.358 235.205 235.546 235.109C235.76 235 236.04 235 236.6 235H262.4C262.96 235 263.24 235 263.454 235.109C263.642 235.205 263.795 235.358 263.891 235.546C264 235.76 264 236.04 264 236.6V237.4C264 237.96 264 238.24 263.891 238.454C263.795 238.642 263.642 238.795 263.454 238.891C263.24 239 262.96 239 262.4 239H236.6C236.04 239 235.76 239 235.546 238.891C235.358 238.795 235.205 238.642 235.109 238.454C235 238.24 235 237.96 235 237.4V236.6Z" fill="var(--vscode-sideBarTitle-foreground)"/>
            
            <path d="M192 254.6C192 254.04 192 253.76 192.109 253.546C192.205 253.358 192.358 253.205 192.546 253.109C192.76 253 193.04 253 193.6 253H271.4C271.96 253 272.24 253 272.454 253.109C272.642 253.205 272.795 253.358 272.891 253.546C273 253.76 273 254.04 273 254.6V255.4C273 255.96 273 256.24 272.891 256.454C272.795 256.642 272.642 256.795 272.454 256.891C272.24 257 271.96 257 271.4 257H193.6C193.04 257 192.76 257 192.546 256.891C192.358 256.795 192.205 256.642 192.109 256.454C192 256.24 192 255.96 192 255.4V254.6Z" fill="var(--vscode-sideBarTitle-foreground)"/>
            <path d="M178 218.6C178 218.04 178 217.76 178.109 217.546C178.205 217.358 178.358 217.205 178.546 217.109C178.76 217 179.04 217 179.6 217H223.4C223.96 217 224.24 217 224.454 217.109C224.642 217.205 224.795 217.358 224.891 217.546C225 217.76 225 218.04 225 218.6V219.4C225 219.96 225 220.24 224.891 220.454C224.795 220.642 224.642 220.795 224.454 220.891C224.24 221 223.96 221 223.4 221H179.6C179.04 221 178.76 221 178.546 220.891C178.358 220.795 178.205 220.642 178.109 220.454C178 220.24 178 219.96 178 219.4V218.6Z" fill="var(--vscode-sideBarTitle-foreground)"/>
            <path d="M192 272.6C192 272.04 192 271.76 192.109 271.546C192.205 271.358 192.358 271.205 192.546 271.109C192.76 271 193.04 271 193.6 271H254.4C254.96 271 255.24 271 255.454 271.109C255.642 271.205 255.795 271.358 255.891 271.546C256 271.76 256 272.04 256 272.6V273.4C256 273.96 256 274.24 255.891 274.454C255.795 274.642 255.642 274.795 255.454 274.891C255.24 275 254.96 275 254.4 275H193.6C193.04 275 192.76 275 192.546 274.891C192.358 274.795 192.205 274.642 192.109 274.454C192 274.24 192 273.96 192 273.4V272.6Z" fill="var(--vscode-sideBarTitle-foreground)"/>
        </g>
        
        <path d="M159 193.5H727C729.809 193.5 731.885 193.5 733.527 193.635C735.164 193.768 736.326 194.032 737.313 194.535C739.1 195.446 740.554 196.9 741.465 198.687C741.968 199.674 742.232 200.836 742.365 202.473C742.5 204.115 742.5 206.191 742.5 209V417C742.5 447.811 742.5 470.889 741.003 489.207C739.507 507.519 736.518 521.029 730.565 532.712C720.067 553.316 703.316 570.067 682.712 580.565C671.029 586.518 657.519 589.507 639.207 591.003C620.889 592.5 597.811 592.5 567 592.5H159C156.191 592.5 154.115 592.5 152.473 592.365C150.836 592.232 149.674 591.968 148.687 591.465C146.9 590.554 145.446 589.1 144.535 587.313C144.032 586.326 143.768 585.164 143.635 583.527C143.5 581.885 143.5 579.809 143.5 577V209C143.5 206.191 143.5 204.115 143.635 202.473C143.768 200.836 144.032 199.674 144.535 198.687C145.446 196.9 146.9 195.446 148.687 194.535C149.674 194.032 150.836 193.768 152.473 193.635C154.115 193.5 156.191 193.5 159 193.5Z" stroke="var(--vscode-foreground)" stroke-opacity="0.1"/>
    </g>

    <!-- borders -->
    <path d="M215 177H167C152.999 177 145.998 177 140.65 179.725C135.946 182.122 132.122 185.946 129.725 190.65C127 195.998 127 202.999 127 217V277" stroke="var(--vscode-tab-activeForeground)" stroke-width="2" stroke-linecap="round"/>
    <path d="M515.5 177H719C733.001 177 740.002 177 745.35 179.725C750.054 182.122 753.878 185.946 756.275 190.65C759 195.998 759 202.999 759 217V272" stroke="var(--vscode-tab-activeForeground)" stroke-width="2" stroke-linecap="round"/>
    <path d="M127 566V569C127 583.001 127 590.002 129.725 595.35C132.122 600.054 135.946 603.878 140.65 606.275C145.998 609 152.999 609 167 609H559" stroke="var(--vscode-tab-activeForeground)" stroke-width="2" stroke-linecap="round"/>
    
    <defs>
        <filter id="filter0_f_242_122568" x="0" y="0" width="906" height="725" filterUnits="userSpaceOnUse" color-interpolation-filters="sRGB">
            <feFlood flood-opacity="0" result="BackgroundImageFix"/>
            <feBlend mode="normal" in="SourceGraphic" in2="BackgroundImageFix" result="shape"/>
            <feGaussianBlur stdDeviation="30" result="effect1_foregroundBlur_242_122568"/>
        </filter>
        <filter id="filter1_f_242_122568" x="50" y="58" width="569" height="569" filterUnits="userSpaceOnUse" color-interpolation-filters="sRGB">
            <feFlood flood-opacity="0" result="BackgroundImageFix"/>
            <feBlend mode="normal" in="SourceGraphic" in2="BackgroundImageFix" result="shape"/>
            <feGaussianBlur stdDeviation="5" result="effect1_foregroundBlur_242_122568"/>
        </filter>
        <filter id="filter2_f_242_122568" x="378" y="30" width="498" height="498" filterUnits="userSpaceOnUse" color-interpolation-filters="sRGB">
            <feFlood flood-opacity="0" result="BackgroundImageFix"/>
            <feBlend mode="normal" in="SourceGraphic" in2="BackgroundImageFix" result="shape"/>
            <feGaussianBlur stdDeviation="15" result="effect1_foregroundBlur_242_122568"/>
        </filter>
        <filter id="filter3_f_242_122568" x="381" y="235" width="460" height="460" filterUnits="userSpaceOnUse" color-interpolation-filters="sRGB">
            <feFlood flood-opacity="0" result="BackgroundImageFix"/>
            <feBlend mode="normal" in="SourceGraphic" in2="BackgroundImageFix" result="shape"/>
            <feGaussianBlur stdDeviation="15" result="effect1_foregroundBlur_242_122568"/>
        </filter>
        <radialGradient id="paint0_radial_242_122568" cx="0" cy="0" r="1" gradientUnits="userSpaceOnUse" gradientTransform="translate(334.5 342.5) rotate(89.5818) scale(262.99)">
            <stop offset="0.354167" stop-color="#7759C2"/>
            <stop offset="1" stop-color="#7759C2" stop-opacity="0"/>
        </radialGradient>
        <radialGradient id="paint1_radial_242_122568" cx="0" cy="0" r="1" gradientUnits="userSpaceOnUse" gradientTransform="translate(627 279) rotate(89.5818) scale(209.817)">
            <stop stop-color="#D64028"/>
            <stop offset="1" stop-color="#D64028" stop-opacity="0"/>
        </radialGradient>
        <radialGradient id="paint2_radial_242_122568" cx="0" cy="0" r="1" gradientUnits="userSpaceOnUse" gradientTransform="translate(611 465) rotate(89.5818) scale(191.613)">
            <stop stop-color="#EF76F1"/>
            <stop offset="1" stop-color="#EF76F1" stop-opacity="0"/>
        </radialGradient>
        <clipPath id="clip0_242_122568">
            <path d="M143 209C143 203.399 143 200.599 144.09 198.46C145.049 196.578 146.578 195.049 148.46 194.09C150.599 193 153.399 193 159 193H727C732.601 193 735.401 193 737.54 194.09C739.422 195.049 740.951 196.578 741.91 198.46C743 200.599 743 203.399 743 209V417C743 478.606 743 509.409 731.011 532.939C720.465 553.637 703.637 570.465 682.939 581.011C659.409 593 628.606 593 567 593H159C153.399 593 150.599 593 148.46 591.91C146.578 590.951 145.049 589.422 144.09 587.54C143 585.401 143 582.601 143 577V209Z" fill="white"/>
        </clipPath>
    </defs>
</svg>
