<svg width="864" height="720" viewBox="0 0 864 720" fill="none" xmlns="http://www.w3.org/2000/svg">
    <!-- lights -->
    <g filter="url(#filter0_f_242_122681)">
        <g filter="url(#filter1_f_242_122681)">
            <circle cx="286.511" cy="414.345" r="225.566" fill="url(#paint0_radial_242_122681)"/>
        </g>
        <g filter="url(#filter2_f_242_122681)">
            <circle cx="636" cy="393" r="168" fill="url(#paint1_radial_242_122681)"/>
        </g>
        <g filter="url(#filter3_f_242_122681)">
            <ellipse cx="567.5" cy="509" rx="151.5" ry="151" fill="url(#paint2_radial_242_122681)"/>
        </g>
    </g>

    <!-- interface -->
    <g clip-path="url(#clip0_242_122681)">
        <!-- sidebar -->
        <g>
            <path d="M199.93 304.538H319.101V613.534H199.93V304.538Z" fill="var(--vscode-sideBar-background, #222024)"/>
            <path d="M199.93 365.827H319.101V381.149H199.93V365.827Z" fill="var(--vscode-list-activeSelectionBackground)"/>
            <path d="M204.186 311.859C204.186 311.382 204.186 311.144 204.279 310.962C204.36 310.801 204.49 310.671 204.651 310.59C204.833 310.497 205.071 310.497 205.548 310.497H242.831C243.308 310.497 243.547 310.497 243.729 310.59C243.889 310.671 244.019 310.801 244.101 310.962C244.193 311.144 244.193 311.382 244.193 311.859V312.54C244.193 313.017 244.193 313.255 244.101 313.437C244.019 313.597 243.889 313.727 243.729 313.809C243.547 313.902 243.308 313.902 242.831 313.902H205.548C205.071 313.902 204.833 313.902 204.651 313.809C204.49 313.727 204.36 313.597 204.279 313.437C204.186 313.255 204.186 313.017 204.186 312.54V311.859Z" fill="var(--vscode-sideBarTitle-foreground)"/>
            <path d="M216.103 342.503C216.103 342.026 216.103 341.788 216.196 341.606C216.277 341.446 216.408 341.315 216.568 341.234C216.75 341.141 216.988 341.141 217.465 341.141H283.69C284.167 341.141 284.405 341.141 284.588 341.234C284.748 341.315 284.878 341.446 284.96 341.606C285.052 341.788 285.052 342.026 285.052 342.503V343.184C285.052 343.661 285.052 343.899 284.96 344.081C284.878 344.241 284.748 344.372 284.588 344.453C284.405 344.546 284.167 344.546 283.69 344.546H217.465C216.988 344.546 216.75 344.546 216.568 344.453C216.408 344.372 216.277 344.241 216.196 344.081C216.103 343.899 216.103 343.661 216.103 343.184V342.503Z" fill="var(--vscode-sideBarTitle-foreground)"></path>
            <path d="M216.103 357.825C216.103 357.348 216.103 357.11 216.196 356.928C216.277 356.768 216.408 356.638 216.568 356.556C216.75 356.463 216.988 356.463 217.465 356.463H269.22C269.696 356.463 269.935 356.463 270.117 356.556C270.277 356.638 270.407 356.768 270.489 356.928C270.581 357.11 270.581 357.348 270.581 357.825V358.506C270.581 358.983 270.581 359.221 270.489 359.403C270.407 359.563 270.277 359.694 270.117 359.775C269.935 359.868 269.696 359.868 269.22 359.868H217.465C216.988 359.868 216.75 359.868 216.568 359.775C216.408 359.694 216.277 359.563 216.196 359.403C216.103 359.221 216.103 358.983 216.103 358.506V357.825Z" fill="var(--vscode-sideBarTitle-foreground)"></path>
            <path d="M216.103 373.147C216.103 372.67 216.103 372.432 216.196 372.25C216.277 372.09 216.408 371.96 216.568 371.878C216.75 371.785 216.988 371.785 217.465 371.785H293.054C293.531 371.785 293.769 371.785 293.951 371.878C294.111 371.96 294.241 372.09 294.323 372.25C294.416 372.432 294.416 372.67 294.416 373.147V373.828C294.416 374.305 294.416 374.543 294.323 374.725C294.241 374.886 294.111 375.016 293.951 375.097C293.769 375.19 293.531 375.19 293.054 375.19H217.465C216.988 375.19 216.75 375.19 216.568 375.097C216.408 375.016 216.277 374.886 216.196 374.725C216.103 374.543 216.103 374.305 216.103 373.828V373.147Z" fill="var(--vscode-list-activeSelectionForeground)"></path>
            <path d="M204.186 327.181C204.186 326.704 204.186 326.466 204.279 326.284C204.36 326.124 204.49 325.993 204.651 325.912C204.833 325.819 205.071 325.819 205.548 325.819H216.443C216.92 325.819 217.159 325.819 217.341 325.912C217.501 325.993 217.631 326.124 217.713 326.284C217.805 326.466 217.805 326.704 217.805 327.181V327.862C217.805 328.339 217.805 328.577 217.713 328.759C217.631 328.919 217.501 329.049 217.341 329.131C217.159 329.224 216.92 329.224 216.443 329.224H205.548C205.071 329.224 204.833 329.224 204.651 329.131C204.49 329.049 204.36 328.919 204.279 328.759C204.186 328.577 204.186 328.339 204.186 327.862V327.181Z" fill="var(--vscode-sideBarTitle-foreground)"/>
            <path d="M221.21 327.181C221.21 326.704 221.21 326.466 221.303 326.284C221.385 326.124 221.515 325.993 221.675 325.912C221.857 325.819 222.096 325.819 222.572 325.819H247.939C248.416 325.819 248.654 325.819 248.836 325.912C248.996 325.993 249.126 326.124 249.208 326.284C249.301 326.466 249.301 326.704 249.301 327.181V327.862C249.301 328.339 249.301 328.577 249.208 328.759C249.126 328.919 248.996 329.049 248.836 329.131C248.654 329.224 248.416 329.224 247.939 329.224H222.572C222.096 329.224 221.857 329.224 221.675 329.131C221.515 329.049 221.385 328.919 221.303 328.759C221.21 328.577 221.21 328.339 221.21 327.862V327.181Z" fill="var(--vscode-sideBarTitle-foreground)"/>
            <path d="M252.706 327.181C252.706 326.704 252.706 326.466 252.798 326.284C252.88 326.124 253.01 325.993 253.17 325.912C253.353 325.819 253.591 325.819 254.068 325.819H276.029C276.506 325.819 276.744 325.819 276.926 325.912C277.087 325.993 277.217 326.124 277.298 326.284C277.391 326.466 277.391 326.704 277.391 327.181V327.862C277.391 328.339 277.391 328.577 277.298 328.759C277.217 328.919 277.087 329.049 276.926 329.131C276.744 329.224 276.506 329.224 276.029 329.224H254.068C253.591 329.224 253.353 329.224 253.17 329.131C253.01 329.049 252.88 328.919 252.798 328.759C252.706 328.577 252.706 328.339 252.706 327.862V327.181Z" fill="var(--vscode-sideBarTitle-foreground)"/>
        </g>
        
        <!-- browser header -->
        <g>
            <path d="M174.393 290.067H685.129V304.538H174.393V290.067Z" fill="#F6F3FE"/>
            <path d="M188.864 297.303C188.864 298.948 187.53 300.282 185.884 300.282C184.239 300.282 182.905 298.948 182.905 297.303C182.905 295.657 184.239 294.324 185.884 294.324C187.53 294.324 188.864 295.657 188.864 297.303Z" fill="#10B1B1"/>
            <path d="M199.078 297.303C199.078 298.948 197.745 300.282 196.099 300.282C194.454 300.282 193.12 298.948 193.12 297.303C193.12 295.657 194.454 294.324 196.099 294.324C197.745 294.324 199.078 295.657 199.078 297.303Z" fill="#7759C2"/>
            <path d="M209.293 297.303C209.293 298.948 207.959 300.282 206.314 300.282C204.668 300.282 203.335 298.948 203.335 297.303C203.335 295.657 204.668 294.324 206.314 294.324C207.959 294.324 209.293 295.657 209.293 297.303Z" fill="#FF9D73"/>
        </g>
        
        <!-- status bar -->
        <g>
            <path d="M230.574 613.534H685.129V630.558H230.574V613.534Z" fill="var(--vscode-sideBar-background, #222024)"/>
            <path d="M241.038 619.072C241.371 619.087 241.689 619.171 241.992 619.322C242.309 619.473 242.589 619.67 242.831 619.912C243.407 620.533 243.694 621.259 243.694 622.091C243.694 622.742 243.467 623.363 243.013 623.953C242.786 624.225 242.529 624.452 242.241 624.634C241.954 624.8 241.644 624.914 241.311 624.974C240.584 625.11 239.926 625.012 239.336 624.679C239.033 624.513 238.768 624.301 238.541 624.043C238.314 623.786 238.14 623.499 238.019 623.181C237.898 622.863 237.822 622.53 237.792 622.182C237.777 621.834 237.822 621.501 237.928 621.183C238.155 620.487 238.556 619.95 239.131 619.572C239.404 619.39 239.699 619.254 240.017 619.163C240.35 619.072 240.69 619.042 241.038 619.072ZM241.265 624.566C241.84 624.429 242.317 624.127 242.695 623.658C243.074 623.143 243.248 622.606 243.217 622.046C243.217 621.698 243.149 621.365 243.013 621.047C242.892 620.729 242.718 620.449 242.491 620.207C242.052 619.768 241.545 619.526 240.97 619.481C240.683 619.466 240.395 619.496 240.108 619.572C239.82 619.632 239.563 619.746 239.336 619.912C238.852 620.275 238.519 620.752 238.337 621.342C238.171 621.932 238.208 622.5 238.45 623.045C238.708 623.59 239.094 624.006 239.608 624.293C239.85 624.445 240.115 624.543 240.403 624.588C240.69 624.634 240.978 624.626 241.265 624.566ZM240.743 621.842L241.765 620.775L242.06 621.07L241.038 622.137L242.06 623.204L241.765 623.499L240.743 622.432L239.722 623.499L239.427 623.204L240.448 622.137L239.427 621.07L239.722 620.775L240.743 621.842Z" fill="var(--vscode-sideBarTitle-foreground)"/>
            <path d="M248.024 624.667C247.66 624.667 247.349 624.568 247.093 624.37C246.837 624.17 246.641 623.881 246.505 623.502C246.37 623.121 246.302 622.662 246.302 622.123C246.302 621.588 246.37 621.131 246.505 620.752C246.642 620.372 246.839 620.082 247.095 619.882C247.353 619.68 247.663 619.579 248.024 619.579C248.385 619.579 248.694 619.68 248.95 619.882C249.208 620.082 249.405 620.372 249.54 620.752C249.677 621.131 249.746 621.588 249.746 622.123C249.746 622.662 249.678 623.121 249.543 623.502C249.407 623.881 249.211 624.17 248.955 624.37C248.699 624.568 248.388 624.667 248.024 624.667ZM248.024 624.135C248.385 624.135 248.666 623.961 248.865 623.613C249.065 623.265 249.165 622.768 249.165 622.123C249.165 621.694 249.119 621.329 249.028 621.028C248.937 620.726 248.807 620.497 248.636 620.339C248.466 620.181 248.263 620.102 248.024 620.102C247.666 620.102 247.386 620.278 247.185 620.631C246.983 620.983 246.883 621.48 246.883 622.123C246.883 622.552 246.928 622.917 247.018 623.216C247.108 623.516 247.238 623.744 247.407 623.901C247.578 624.057 247.784 624.135 248.024 624.135Z" fill="var(--vscode-sideBarTitle-foreground)"/>
            <path d="M267.602 624.667C267.238 624.667 266.927 624.568 266.671 624.37C266.415 624.17 266.219 623.881 266.084 623.502C265.948 623.121 265.88 622.662 265.88 622.123C265.88 621.588 265.948 621.131 266.084 620.752C266.221 620.372 266.417 620.082 266.674 619.882C266.932 619.68 267.241 619.579 267.602 619.579C267.963 619.579 268.272 619.68 268.528 619.882C268.786 620.082 268.983 620.372 269.118 620.752C269.255 621.131 269.324 621.588 269.324 622.123C269.324 622.662 269.256 623.121 269.121 623.502C268.985 623.881 268.79 624.17 268.533 624.37C268.277 624.568 267.967 624.667 267.602 624.667ZM267.602 624.135C267.963 624.135 268.244 623.961 268.444 623.613C268.644 623.265 268.744 622.768 268.744 622.123C268.744 621.694 268.698 621.329 268.606 621.028C268.515 620.726 268.385 620.497 268.214 620.339C268.045 620.181 267.841 620.102 267.602 620.102C267.244 620.102 266.965 620.278 266.763 620.631C266.562 620.983 266.461 621.48 266.461 622.123C266.461 622.552 266.506 622.917 266.596 623.216C266.686 623.516 266.816 623.744 266.986 623.901C267.156 624.057 267.362 624.135 267.602 624.135Z" fill="var(--vscode-sideBarTitle-foreground)"/>
            <path d="M260.185 619.072H260.548L263.34 624.293L263.159 624.588H257.575L257.393 624.293L260.185 619.072ZM260.367 619.617L257.938 624.18H262.796L260.367 619.617ZM260.639 623.748V623.317H260.094V623.748H260.639ZM260.094 622.886V621.183H260.639V622.886H260.094Z" fill="var(--vscode-sideBarTitle-foreground)"/>
        </g>
        
        <!-- branding label -->
        <g>
            <path d="M174.393 613.534H230.574V630.558H174.393V613.534Z" fill="#d14703"/>
            <path d="M191.216 621.368L191.202 621.332L189.816 617.801C189.788 617.732 189.738 617.673 189.674 617.633C189.626 617.603 189.571 617.585 189.514 617.579C189.457 617.573 189.4 617.581 189.346 617.6C189.293 617.62 189.245 617.652 189.206 617.693C189.168 617.734 189.139 617.784 189.124 617.838L188.188 620.635H184.4L183.465 617.838C183.449 617.784 183.421 617.735 183.382 617.694C183.343 617.652 183.296 617.621 183.242 617.601C183.189 617.581 183.131 617.574 183.074 617.579C183.018 617.585 182.963 617.603 182.915 617.633C182.85 617.673 182.8 617.732 182.772 617.801L181.387 621.332L181.373 621.368C181.173 621.877 181.149 622.435 181.303 622.959C181.457 623.483 181.781 623.944 182.226 624.272L182.232 624.276L182.243 624.284L184.352 625.827L186.033 627.069C186.108 627.124 186.199 627.153 186.292 627.153C186.385 627.153 186.476 627.124 186.551 627.069L188.232 625.827L190.356 624.276L190.362 624.271C190.807 623.943 191.131 623.482 191.285 622.959C191.44 622.435 191.415 621.877 191.216 621.368Z" fill="white"/>
            <path d="M191.216 621.368L191.202 621.332C190.527 621.467 189.891 621.747 189.339 622.15L186.296 624.397L188.234 625.827L190.357 624.276L190.363 624.271C190.808 623.943 191.132 623.482 191.285 622.959C191.44 622.435 191.415 621.877 191.216 621.368Z" fill="white"/>
            <path d="M184.352 625.827L186.033 627.069C186.108 627.124 186.199 627.153 186.292 627.153C186.385 627.153 186.476 627.124 186.551 627.069L188.232 625.827L186.295 624.397L184.352 625.827Z" fill="white"/>
            <path d="M183.249 622.15C182.698 621.747 182.062 621.468 181.387 621.332L181.373 621.368C181.173 621.877 181.149 622.435 181.303 622.959C181.457 623.483 181.781 623.944 182.226 624.272L182.232 624.276L182.243 624.284L184.352 625.827L186.291 624.397L183.249 622.15Z" fill="white"/>
            <path d="M198.102 625.596C199.673 625.596 200.691 624.611 200.691 623.09V622.346H198.23V623.098H199.773V623.231C199.764 624.154 199.095 624.773 198.114 624.773C196.988 624.773 196.281 623.884 196.281 622.45V622.442C196.281 621.028 196.984 620.131 198.093 620.131C198.916 620.131 199.49 620.53 199.706 621.24L199.718 621.282H200.65L200.641 621.24C200.425 620.081 199.457 619.308 198.093 619.308C196.414 619.308 195.329 620.542 195.329 622.446V622.454C195.329 624.383 196.402 625.596 198.102 625.596Z" fill="white"/>
            <path d="M202.341 620.131C202.649 620.131 202.906 619.877 202.906 619.57C202.906 619.258 202.649 619.004 202.341 619.004C202.029 619.004 201.776 619.258 201.776 619.57C201.776 619.877 202.029 620.131 202.341 620.131ZM201.888 625.451H202.786V620.937H201.888V625.451Z" fill="white"/>
            <path d="M205.803 625.48C205.978 625.48 206.144 625.459 206.29 625.434V624.715C206.165 624.728 206.086 624.732 205.949 624.732C205.504 624.732 205.321 624.532 205.321 624.046V621.648H206.29V620.937H205.321V619.798H204.403V620.937H203.696V621.648H204.403V624.262C204.403 625.131 204.81 625.48 205.803 625.48Z" fill="white"/>
            <path d="M207.445 625.451H211.186V624.649H208.376V619.453H207.445V625.451Z" fill="white"/>
            <path d="M213.501 625.526C214.1 625.526 214.573 625.268 214.839 624.811H214.91V625.451H215.804V622.363C215.804 621.415 215.164 620.85 214.029 620.85C213.002 620.85 212.292 621.344 212.183 622.084L212.179 622.113H213.048L213.052 622.097C213.16 621.777 213.489 621.594 213.987 621.594C214.598 621.594 214.91 621.868 214.91 622.363V622.762L213.688 622.832C212.612 622.899 212.005 623.369 212.005 624.175V624.183C212.005 625.002 212.641 625.526 213.501 625.526ZM212.903 624.146V624.137C212.903 623.73 213.185 623.506 213.809 623.468L214.91 623.398V623.784C214.91 624.366 214.415 624.807 213.742 624.807C213.256 624.807 212.903 624.561 212.903 624.146Z" fill="white"/>
            <path d="M219.474 625.526C220.613 625.526 221.344 624.615 221.344 623.198V623.19C221.344 621.76 220.621 620.858 219.474 620.858C218.854 620.858 218.327 621.166 218.086 621.652H218.019V619.166H217.117V625.451H218.019V624.74H218.086C218.347 625.235 218.842 625.526 219.474 625.526ZM219.22 624.757C218.468 624.757 218.002 624.162 218.002 623.198V623.19C218.002 622.225 218.468 621.631 219.22 621.631C219.973 621.631 220.426 622.221 220.426 623.19V623.198C220.426 624.167 219.973 624.757 219.22 624.757Z" fill="white"/>
        </g>
        
        <!-- activity bar -->
        <g>
            <path d="M174.393 304.538H199.93V613.534H174.393V304.538Z" fill="var(--vscode-sideBar-background, #222024)"/>
            <path d="M192.269 310.293H182.054V309.646H192.269V310.293ZM192.269 315.4H182.054V314.753H192.269V315.4ZM192.269 312.846H182.054V312.199H192.269V312.846Z" fill="var(--vscode-sideBarTitle-foreground)"/>
            <path d="M188.557 344.546C187.854 344.546 187.207 344.739 186.616 345.125C186.049 345.488 185.618 345.987 185.323 346.623C185.05 347.259 184.959 347.917 185.05 348.598C185.164 349.279 185.447 349.869 185.901 350.368L182.496 354.284L182.973 354.693L186.378 350.811C186.991 351.288 187.672 351.537 188.421 351.56C189.193 351.583 189.896 351.378 190.532 350.947C191.168 350.516 191.61 349.937 191.86 349.211C192.11 348.484 192.121 347.758 191.894 347.032C191.667 346.282 191.236 345.681 190.6 345.227C189.987 344.773 189.306 344.546 188.557 344.546ZM188.557 350.913C188.035 350.913 187.547 350.788 187.093 350.539C186.662 350.289 186.31 349.948 186.038 349.517C185.788 349.063 185.663 348.575 185.663 348.053C185.663 347.531 185.788 347.054 186.038 346.623C186.31 346.169 186.662 345.817 187.093 345.567C187.547 345.318 188.035 345.193 188.557 345.193C189.079 345.193 189.556 345.318 189.987 345.567C190.419 345.817 190.759 346.169 191.009 346.623C191.281 347.054 191.417 347.531 191.417 348.053C191.417 348.575 191.281 349.063 191.009 349.517C190.759 349.948 190.419 350.3 189.987 350.573C189.556 350.822 189.079 350.947 188.557 350.947V350.913Z" fill="var(--vscode-sideBarTitle-foreground)"/>
            <path d="M190.532 368.21C190.26 367.938 189.931 367.79 189.545 367.767C189.181 367.722 188.841 367.801 188.523 368.006C188.251 368.187 188.046 368.426 187.91 368.721C187.888 368.812 187.865 368.902 187.842 368.993C187.161 368.925 186.582 368.653 186.106 368.176C185.629 367.699 185.357 367.12 185.289 366.44C185.379 366.44 185.47 366.417 185.561 366.371C185.856 366.235 186.094 366.042 186.276 365.793C186.458 365.52 186.548 365.225 186.548 364.907C186.548 364.68 186.503 364.465 186.412 364.26C186.253 363.852 185.969 363.568 185.561 363.409C185.357 363.318 185.141 363.273 184.914 363.273C184.596 363.273 184.301 363.364 184.029 363.545C183.779 363.727 183.586 363.965 183.45 364.26C183.336 364.555 183.302 364.862 183.348 365.18C183.416 365.497 183.563 365.77 183.79 365.997C184.017 366.224 184.29 366.371 184.608 366.44V369.674C184.403 369.72 184.21 369.799 184.029 369.913C183.779 370.094 183.586 370.344 183.45 370.662C183.336 370.957 183.302 371.263 183.348 371.581C183.416 371.876 183.563 372.137 183.79 372.364C184.017 372.591 184.29 372.739 184.608 372.807C184.925 372.875 185.232 372.852 185.527 372.739C185.845 372.602 186.083 372.409 186.242 372.16C186.423 371.887 186.514 371.581 186.514 371.24C186.537 371.036 186.492 370.82 186.378 370.594C186.287 370.367 186.14 370.174 185.935 370.015C185.731 369.833 185.504 369.72 185.254 369.674V368.142C185.595 368.619 186.015 368.982 186.514 369.232C186.946 369.459 187.388 369.583 187.842 369.606C187.933 370.015 188.137 370.344 188.455 370.594C188.796 370.82 189.17 370.923 189.579 370.9C189.987 370.855 190.328 370.684 190.6 370.389C190.873 370.071 191.009 369.708 191.009 369.3C191.009 368.868 190.85 368.505 190.532 368.21ZM185.289 370.355C185.47 370.446 185.618 370.582 185.731 370.764C185.845 370.923 185.89 371.116 185.867 371.343C185.845 371.57 185.754 371.763 185.595 371.921C185.436 372.08 185.243 372.171 185.016 372.194C184.789 372.217 184.585 372.171 184.403 372.058C184.244 371.944 184.119 371.797 184.029 371.615C183.961 371.433 183.938 371.252 183.961 371.07C184.006 370.889 184.097 370.73 184.233 370.594C184.392 370.435 184.562 370.344 184.744 370.321C184.925 370.276 185.107 370.287 185.289 370.355ZM184.914 365.827C184.732 365.827 184.562 365.77 184.403 365.656C184.244 365.543 184.119 365.407 184.029 365.248C183.961 365.066 183.938 364.885 183.961 364.703C184.006 364.499 184.097 364.328 184.233 364.192C184.392 364.056 184.562 363.977 184.744 363.954C184.925 363.909 185.107 363.931 185.289 364.022C185.493 364.09 185.652 364.226 185.765 364.431C185.879 364.612 185.913 364.817 185.867 365.044C185.822 365.27 185.708 365.463 185.527 365.622C185.368 365.759 185.164 365.827 184.914 365.827ZM190.089 370.015C189.976 370.128 189.84 370.208 189.681 370.253C189.522 370.298 189.363 370.31 189.204 370.287C189.045 370.242 188.898 370.174 188.762 370.083C188.648 369.969 188.557 369.833 188.489 369.674C188.421 369.515 188.41 369.345 188.455 369.163C188.5 368.959 188.591 368.789 188.727 368.653C188.864 368.517 189.023 368.437 189.204 368.414C189.408 368.369 189.59 368.38 189.749 368.448C189.908 368.517 190.033 368.619 190.123 368.755C190.237 368.868 190.305 369.005 190.328 369.163C190.373 369.3 190.373 369.447 190.328 369.606C190.282 369.765 190.203 369.901 190.089 370.015Z" fill="var(--vscode-sideBarTitle-foreground)"/>
            <path d="M186.719 387.754L186.14 388.299C186.049 387.959 185.856 387.675 185.561 387.448C185.289 387.221 184.971 387.107 184.608 387.107C184.244 387.107 183.915 387.221 183.62 387.448C183.348 387.675 183.166 387.959 183.075 388.299L182.496 387.754L182.054 388.197L182.803 388.946L182.701 389.014V389.661H182.054V390.308H182.701V390.342C182.723 390.546 182.78 390.751 182.871 390.955L182.054 391.772L182.496 392.215L183.212 391.5C183.37 391.727 183.575 391.908 183.824 392.044C184.074 392.158 184.335 392.215 184.608 392.215C184.88 392.215 185.141 392.158 185.391 392.044C185.64 391.908 185.845 391.727 186.004 391.5L186.719 392.215L187.161 391.772L186.344 390.955C186.435 390.751 186.492 390.535 186.514 390.308V390.274H187.161V389.661H186.514V389.014L186.412 388.946L187.161 388.197L186.719 387.754ZM184.608 387.754C184.88 387.754 185.107 387.845 185.289 388.027C185.47 388.208 185.561 388.435 185.561 388.708H183.654C183.654 388.435 183.745 388.208 183.927 388.027C184.108 387.845 184.335 387.754 184.608 387.754ZM185.901 390.308C185.856 390.648 185.708 390.944 185.459 391.193C185.232 391.42 184.948 391.545 184.608 391.568C184.267 391.545 183.972 391.42 183.722 391.193C183.495 390.944 183.37 390.648 183.348 390.308V389.355H185.901V390.308ZM185.254 383.532L185.731 383.26L191.485 387.107V387.652L187.808 390.104V389.321L190.736 387.38L185.901 384.145V386.46H185.254V383.532Z" fill="var(--vscode-sideBarTitle-foreground)"/>
            <path d="M187.808 401.374L188.455 400.727H191.622L192.269 401.374V404.54L191.622 405.187H188.455L187.808 404.54V401.374ZM188.455 401.374V404.54H191.622V401.374H188.455ZM182.054 407.094V403.281L182.701 402.634H185.901L186.514 403.281V406.481H189.715L190.362 407.094V410.295L189.715 410.942H182.701L182.054 410.295V407.094ZM185.901 406.481V403.281H182.701V406.481H185.901ZM185.901 407.094H182.701V410.295H185.901V407.094ZM186.514 410.295H189.715V407.094H186.514V410.295Z" fill="var(--vscode-sideBarTitle-foreground)"/>
            <path d="M189.511 325.819H185.663L185.05 326.466V328.373H183.109L182.496 329.02V335.421L183.109 336.034H188.251L188.864 335.421V333.48H190.873L191.417 332.867V327.726L189.511 325.819ZM189.511 326.704L190.532 327.726H189.511V326.704ZM188.217 335.387H183.109V329.02H185.05V332.867L185.663 333.48H188.217V335.387ZM190.77 332.833H185.663V326.466H188.864V328.373H190.77V332.833Z" fill="var(--vscode-tab-activeForeground)"/>
            <path d="M174.393 323.265H176.095V338.587H174.393V323.265Z" fill="var(--vscode-tab-activeForeground)"/>
        </g>

        <!-- tab bar -->
        <g>
            <path d="M438.273 304.538H497.859V321.563H438.273V304.538Z" fill="var(--vscode-tab-activeBackground, #28262B)"/>
            <path d="M319.101 321.563H685.129V613.534H319.101V321.563Z" fill="var(--vscode-notebook-editorBackground, #28262B)"/>
            <path d="M319.101 304.538H378.687V321.563H319.101V304.538Z" fill="var(--vscode-sideBar-background, #222024)"/>
            <path d="M378.687 304.538H438.273V321.563H378.687V304.538Z" fill="var(--vscode-sideBar-background, #222024)"/>
            <path d="M497.859 304.538H685.129V321.563H497.859V304.538Z" fill="var(--vscode-sideBar-background, #222024)"/>
            <path d="M325.06 312.71C325.06 312.233 325.06 311.995 325.153 311.813C325.234 311.653 325.365 311.523 325.525 311.441C325.707 311.348 325.945 311.348 326.422 311.348H366.259C366.736 311.348 366.974 311.348 367.157 311.441C367.317 311.523 367.447 311.653 367.529 311.813C367.621 311.995 367.621 312.233 367.621 312.71V313.391C367.621 313.868 367.621 314.106 367.529 314.288C367.447 314.448 367.317 314.579 367.157 314.66C366.974 314.753 366.736 314.753 366.259 314.753H326.422C325.945 314.753 325.707 314.753 325.525 314.66C325.365 314.579 325.234 314.448 325.153 314.288C325.06 314.106 325.06 313.868 325.06 313.391V312.71Z" fill="var(--vscode-tab-inactiveForeground)"/>
            <path d="M384.646 312.71C384.646 312.233 384.646 311.995 384.739 311.813C384.82 311.653 384.95 311.523 385.111 311.441C385.293 311.348 385.531 311.348 386.008 311.348H425.845C426.322 311.348 426.56 311.348 426.742 311.441C426.903 311.523 427.033 311.653 427.114 311.813C427.207 311.995 427.207 312.233 427.207 312.71V313.391C427.207 313.868 427.207 314.106 427.114 314.288C427.033 314.448 426.903 314.579 426.742 314.66C426.56 314.753 426.322 314.753 425.845 314.753H386.008C385.531 314.753 385.293 314.753 385.111 314.66C384.95 314.579 384.82 314.448 384.739 314.288C384.646 314.106 384.646 313.868 384.646 313.391V312.71Z" fill="var(--vscode-tab-inactiveForeground)"/>
            <path d="M469.769 312.71C469.769 312.233 469.769 311.995 469.861 311.813C469.943 311.653 470.073 311.523 470.233 311.441C470.415 311.348 470.654 311.348 471.131 311.348H482.026C482.503 311.348 482.741 311.348 482.923 311.441C483.084 311.523 483.214 311.653 483.295 311.813C483.388 311.995 483.388 312.233 483.388 312.71V313.391C483.388 313.868 483.388 314.106 483.295 314.288C483.214 314.448 483.084 314.579 482.923 314.66C482.741 314.753 482.503 314.753 482.026 314.753H471.131C470.654 314.753 470.415 314.753 470.233 314.66C470.073 314.579 469.943 314.448 469.861 314.288C469.769 314.106 469.769 313.868 469.769 313.391V312.71Z" fill="var(--vscode-tab-activeForeground)"/>
            <path d="M444.232 312.71C444.232 312.233 444.232 311.995 444.325 311.813C444.406 311.653 444.536 311.523 444.697 311.441C444.879 311.348 445.117 311.348 445.594 311.348H465.002C465.478 311.348 465.717 311.348 465.899 311.441C466.059 311.523 466.189 311.653 466.271 311.813C466.364 311.995 466.364 312.233 466.364 312.71V313.391C466.364 313.868 466.364 314.106 466.271 314.288C466.189 314.448 466.059 314.579 465.899 314.66C465.717 314.753 465.478 314.753 465.002 314.753H445.594C445.117 314.753 444.879 314.753 444.697 314.66C444.536 314.579 444.406 314.448 444.325 314.288C444.232 314.106 444.232 313.868 444.232 313.391V312.71Z" fill="var(--vscode-tab-activeForeground)"/>
            
            <!-- buttons -->
            <path d="M662.157 310.077L661.726 310.508V315.616L662.157 316.024H667.265L667.673 315.616V310.508L667.265 310.077H662.157ZM662.157 315.616V310.508H665.131V315.616H662.157ZM665.562 315.616V310.508H667.265V315.616H665.562Z" fill="var(--vscode-tab-inactiveForeground)"/>
            <path d="M673.212 313.051C673.212 313.172 673.166 313.278 673.076 313.368C673 313.444 672.902 313.482 672.781 313.482C672.659 313.482 672.561 313.444 672.485 313.368C672.41 313.278 672.372 313.172 672.372 313.051C672.372 312.93 672.41 312.831 672.485 312.755C672.561 312.665 672.659 312.619 672.781 312.619C672.902 312.619 673 312.665 673.076 312.755C673.166 312.831 673.212 312.93 673.212 313.051ZM675.346 313.051C675.346 313.172 675.3 313.278 675.209 313.368C675.134 313.444 675.035 313.482 674.914 313.482C674.793 313.482 674.687 313.444 674.597 313.368C674.521 313.278 674.483 313.172 674.483 313.051C674.483 312.93 674.521 312.831 674.597 312.755C674.687 312.665 674.793 312.619 674.914 312.619C675.035 312.619 675.134 312.665 675.209 312.755C675.3 312.831 675.346 312.93 675.346 313.051ZM677.479 313.051C677.479 313.172 677.434 313.278 677.343 313.368C677.267 313.444 677.169 313.482 677.048 313.482C676.927 313.482 676.821 313.444 676.73 313.368C676.655 313.278 676.617 313.172 676.617 313.051C676.617 312.93 676.655 312.831 676.73 312.755C676.821 312.665 676.927 312.619 677.048 312.619C677.169 312.619 677.267 312.665 677.343 312.755C677.434 312.831 677.479 312.93 677.479 313.051Z" fill="var(--vscode-tab-inactiveForeground)"/>
        </g>

        <!-- editor -->
        <g>
            <!-- grey -->
            <path d="M365.068 578.293C365.068 577.816 365.068 577.578 365.16 577.396C365.242 577.236 365.372 577.105 365.532 577.024C365.715 576.931 365.953 576.931 366.43 576.931H367.962C368.439 576.931 368.677 576.931 368.859 577.024C369.019 577.105 369.149 577.236 369.231 577.396C369.324 577.578 369.324 577.816 369.324 578.293V578.974C369.324 579.451 369.324 579.689 369.231 579.871C369.149 580.031 369.019 580.161 368.859 580.243C368.677 580.336 368.439 580.336 367.962 580.336H366.43C365.953 580.336 365.715 580.336 365.532 580.243C365.372 580.161 365.242 580.031 365.16 579.871C365.068 579.689 365.068 579.451 365.068 578.974V578.293Z" fill="var(--vscode-symbolIcon-folderForeground)" fill-opacity="0.45"/>
            <path d="M372.729 578.293C372.729 577.816 372.729 577.578 372.821 577.396C372.903 577.236 373.033 577.105 373.193 577.024C373.376 576.931 373.614 576.931 374.091 576.931H409.331V580.336H374.091C373.614 580.336 373.376 580.336 373.193 580.243C373.033 580.161 372.903 580.031 372.821 579.871C372.729 579.689 372.729 579.451 372.729 578.974V578.293Z" fill="var(--vscode-symbolIcon-folderForeground)" fill-opacity="0.45"/>
            <path d="M394.861 592.253H396.904C397.38 592.253 397.619 592.253 397.801 592.346C397.961 592.427 398.091 592.558 398.173 592.718C398.266 592.9 398.266 593.138 398.266 593.615V594.296C398.266 594.773 398.266 595.011 398.173 595.193C398.091 595.353 397.961 595.484 397.801 595.565C397.619 595.658 397.38 595.658 396.904 595.658H394.861V592.253Z" fill="var(--vscode-symbolIcon-folderForeground)" fill-opacity="0.65"/>
            <path d="M325.06 334.842C325.06 334.365 325.06 334.127 325.153 333.945C325.234 333.785 325.365 333.654 325.525 333.573C325.707 333.48 325.945 333.48 326.422 333.48H327.954C328.431 333.48 328.669 333.48 328.851 333.573C329.012 333.654 329.142 333.785 329.223 333.945C329.316 334.127 329.316 334.365 329.316 334.842V335.523C329.316 336 329.316 336.238 329.223 336.42C329.142 336.58 329.012 336.711 328.851 336.792C328.669 336.885 328.431 336.885 327.954 336.885H326.422C325.945 336.885 325.707 336.885 325.525 336.792C325.365 336.711 325.234 336.58 325.153 336.42C325.06 336.238 325.06 336 325.06 335.523V334.842Z" fill="var(--vscode-symbolIcon-folderForeground)" fill-opacity="0.45"/>
            <path d="M332.721 334.842C332.721 334.365 332.721 334.127 332.814 333.945C332.895 333.785 333.026 333.654 333.186 333.573C333.368 333.48 333.606 333.48 334.083 333.48H356.045C356.521 333.48 356.76 333.48 356.942 333.573C357.102 333.654 357.232 333.785 357.314 333.945C357.407 334.127 357.407 334.365 357.407 334.842V335.523C357.407 336 357.407 336.238 357.314 336.42C357.232 336.58 357.102 336.711 356.942 336.792C356.76 336.885 356.521 336.885 356.045 336.885H334.083C333.606 336.885 333.368 336.885 333.186 336.792C333.026 336.711 332.895 336.58 332.814 336.42C332.721 336.238 332.721 336 332.721 335.523V334.842Z" fill="var(--vscode-symbolIcon-folderForeground)" fill-opacity="0.45"/>
            <path d="M360.812 334.842C360.812 334.365 360.812 334.127 360.904 333.945C360.986 333.785 361.116 333.654 361.276 333.573C361.458 333.48 361.697 333.48 362.173 333.48H384.986C385.463 333.48 385.701 333.48 385.884 333.573C386.044 333.654 386.174 333.785 386.256 333.945C386.348 334.127 386.348 334.365 386.348 334.842V335.523C386.348 336 386.348 336.238 386.256 336.42C386.174 336.58 386.044 336.711 385.884 336.792C385.701 336.885 385.463 336.885 384.986 336.885H362.173C361.697 336.885 361.458 336.885 361.276 336.792C361.116 336.711 360.986 336.58 360.904 336.42C360.812 336.238 360.812 336 360.812 335.523V334.842Z" fill="var(--vscode-symbolIcon-folderForeground)" fill-opacity="0.45"/>
            <path d="M389.753 334.842C389.753 334.365 389.753 334.127 389.846 333.945C389.928 333.785 390.058 333.654 390.218 333.573C390.4 333.48 390.638 333.48 391.115 333.48H396.052C396.529 333.48 396.767 333.48 396.949 333.573C397.11 333.654 397.24 333.785 397.321 333.945C397.414 334.127 397.414 334.365 397.414 334.842V335.523C397.414 336 397.414 336.238 397.321 336.42C397.24 336.58 397.11 336.711 396.949 336.792C396.767 336.885 396.529 336.885 396.052 336.885H391.115C390.638 336.885 390.4 336.885 390.218 336.792C390.058 336.711 389.928 336.58 389.846 336.42C389.753 336.238 389.753 336 389.753 335.523V334.842Z" fill="var(--vscode-symbolIcon-folderForeground)" fill-opacity="0.45"/>
            <path d="M400.819 334.842C400.819 334.365 400.819 334.127 400.912 333.945C400.994 333.785 401.124 333.654 401.284 333.573C401.466 333.48 401.704 333.48 402.181 333.48H428.399C428.876 333.48 429.114 333.48 429.296 333.573C429.456 333.654 429.587 333.785 429.668 333.945C429.761 334.127 429.761 334.365 429.761 334.842V335.523C429.761 336 429.761 336.238 429.668 336.42C429.587 336.58 429.456 336.711 429.296 336.792C429.114 336.885 428.876 336.885 428.399 336.885H402.181C401.704 336.885 401.466 336.885 401.284 336.792C401.124 336.711 400.994 336.58 400.912 336.42C400.819 336.238 400.819 336 400.819 335.523V334.842Z" fill="var(--vscode-symbolIcon-folderForeground)" fill-opacity="0.45"/>
            <!-- blue -->
            <path d="M325.06 365.486C325.06 365.009 325.06 364.771 325.153 364.589C325.234 364.429 325.365 364.299 325.525 364.217C325.707 364.124 325.945 364.124 326.422 364.124H351.789C352.265 364.124 352.504 364.124 352.686 364.217C352.846 364.299 352.976 364.429 353.058 364.589C353.15 364.771 353.15 365.009 353.15 365.486V366.167C353.15 366.644 353.15 366.882 353.058 367.064C352.976 367.225 352.846 367.355 352.686 367.436C352.504 367.529 352.265 367.529 351.789 367.529H326.422C325.945 367.529 325.707 367.529 325.525 367.436C325.365 367.355 325.234 367.225 325.153 367.064C325.06 366.882 325.06 366.644 325.06 366.167V365.486Z" fill="var(--vscode-symbolIcon-variableForeground)"/>
            <path d="M349.746 380.808C349.746 380.332 349.746 380.093 349.838 379.911C349.92 379.751 350.05 379.621 350.21 379.539C350.392 379.446 350.631 379.446 351.108 379.446H364.557C365.034 379.446 365.272 379.446 365.454 379.539C365.614 379.621 365.744 379.751 365.826 379.911C365.919 380.093 365.919 380.332 365.919 380.808V381.489C365.919 381.966 365.919 382.204 365.826 382.386C365.744 382.547 365.614 382.677 365.454 382.758C365.272 382.851 365.034 382.851 364.557 382.851H351.108C350.631 382.851 350.392 382.851 350.21 382.758C350.05 382.677 349.92 382.547 349.838 382.386C349.746 382.204 349.746 381.966 349.746 381.489V380.808Z" fill="var(--vscode-symbolIcon-variableForeground)"/>
            <path d="M397.414 379.446H399.117V382.851H397.414V379.446Z" fill="var(--vscode-symbolIcon-variableForeground)"/>
            <path d="M474.025 394.768H475.727V398.173H474.025V394.768Z" fill="var(--vscode-symbolIcon-variableForeground)"/>
            <path d="M451.893 379.446H455.638C456.115 379.446 456.353 379.446 456.535 379.539C456.696 379.621 456.826 379.751 456.907 379.911C457 380.093 457 380.332 457 380.808V381.489C457 381.966 457 382.204 456.907 382.386C456.826 382.547 456.696 382.677 456.535 382.758C456.353 382.851 456.115 382.851 455.638 382.851H451.893V379.446Z" fill="var(--vscode-symbolIcon-variableForeground)"/>
            <path d="M470.62 486.701H474.365C474.842 486.701 475.08 486.701 475.262 486.794C475.423 486.875 475.553 487.005 475.634 487.166C475.727 487.348 475.727 487.586 475.727 488.063V488.744C475.727 489.221 475.727 489.459 475.634 489.641C475.553 489.801 475.423 489.931 475.262 490.013C475.08 490.106 474.842 490.106 474.365 490.106H470.62V486.701Z" fill="var(--vscode-symbolIcon-variableForeground)"/>
            <path d="M405.927 488.063C405.927 487.586 405.927 487.348 406.019 487.166C406.101 487.005 406.231 486.875 406.391 486.794C406.573 486.701 406.812 486.701 407.289 486.701H423.802V490.106H407.289C406.812 490.106 406.573 490.106 406.391 490.013C406.231 489.931 406.101 489.801 406.019 489.641C405.927 489.459 405.927 489.221 405.927 488.744V488.063Z" fill="var(--vscode-symbolIcon-variableForeground)"/>
            <path d="M405.075 534.029C405.075 533.552 405.075 533.314 405.168 533.132C405.25 532.972 405.38 532.842 405.54 532.76C405.722 532.667 405.961 532.667 406.437 532.667H423.802V536.072H406.437C405.961 536.072 405.722 536.072 405.54 535.979C405.38 535.898 405.25 535.767 405.168 535.607C405.075 535.425 405.075 535.187 405.075 534.71V534.029Z" fill="var(--vscode-symbolIcon-variableForeground)"/>
            <path d="M485.942 534.029C485.942 533.552 485.942 533.314 486.035 533.132C486.116 532.972 486.247 532.842 486.407 532.76C486.589 532.667 486.827 532.667 487.304 532.667H502.966V536.072H487.304C486.827 536.072 486.589 536.072 486.407 535.979C486.247 535.898 486.116 535.767 486.035 535.607C485.942 535.425 485.942 535.187 485.942 534.71V534.029Z" fill="var(--vscode-symbolIcon-variableForeground)"/>
            <path d="M520.842 394.768H524.588C525.064 394.768 525.303 394.768 525.485 394.861C525.645 394.943 525.775 395.073 525.857 395.233C525.95 395.415 525.95 395.654 525.95 396.13V396.811C525.95 397.288 525.95 397.526 525.857 397.709C525.775 397.869 525.645 397.999 525.485 398.081C525.303 398.173 525.064 398.173 524.588 398.173H520.842V394.768Z" fill="var(--vscode-symbolIcon-variableForeground)"/>
            <path d="M349.746 472.741C349.746 472.264 349.746 472.026 349.838 471.844C349.92 471.683 350.05 471.553 350.21 471.472C350.392 471.379 350.631 471.379 351.108 471.379H364.557C365.034 471.379 365.272 471.379 365.454 471.472C365.614 471.553 365.744 471.683 365.826 471.844C365.919 472.026 365.919 472.264 365.919 472.741V473.422C365.919 473.898 365.919 474.137 365.826 474.319C365.744 474.479 365.614 474.609 365.454 474.691C365.272 474.784 365.034 474.784 364.557 474.784H351.108C350.631 474.784 350.392 474.784 350.21 474.691C350.05 474.609 349.92 474.479 349.838 474.319C349.746 474.137 349.746 473.898 349.746 473.422V472.741Z" fill="var(--vscode-symbolIcon-variableForeground)"/>
            <path d="M349.746 518.707C349.746 518.23 349.746 517.992 349.838 517.81C349.92 517.65 350.05 517.519 350.21 517.438C350.392 517.345 350.631 517.345 351.108 517.345H364.557C365.034 517.345 365.272 517.345 365.454 517.438C365.614 517.519 365.744 517.65 365.826 517.81C365.919 517.992 365.919 518.23 365.919 518.707V519.388C365.919 519.865 365.919 520.103 365.826 520.285C365.744 520.445 365.614 520.576 365.454 520.657C365.272 520.75 365.034 520.75 364.557 520.75H351.108C350.631 520.75 350.392 520.75 350.21 520.657C350.05 520.576 349.92 520.445 349.838 520.285C349.746 520.103 349.746 519.865 349.746 519.388V518.707Z" fill="var(--vscode-symbolIcon-variableForeground)"/>
            <path d="M406.778 471.379H408.48V474.784H406.778V471.379Z" fill="var(--vscode-symbolIcon-variableForeground)"/>
            <path d="M412.736 517.345H414.439V520.75H412.736V517.345Z" fill="var(--vscode-symbolIcon-variableForeground)"/>
            <path d="M409.331 576.931H411.034V580.336H409.331V576.931Z" fill="var(--vscode-symbolIcon-variableForeground)"/>
            <path d="M427.207 471.379H428.91V474.784H427.207V471.379Z" fill="var(--vscode-symbolIcon-variableForeground)"/>
            <path d="M433.166 517.345H434.868V520.75H433.166V517.345Z" fill="var(--vscode-symbolIcon-variableForeground)"/>
            <path d="M373.58 396.13C373.58 395.654 373.58 395.415 373.673 395.233C373.754 395.073 373.885 394.943 374.045 394.861C374.227 394.768 374.465 394.768 374.942 394.768H391.456V398.173H374.942C374.465 398.173 374.227 398.173 374.045 398.081C373.885 397.999 373.754 397.869 373.673 397.709C373.58 397.526 373.58 397.288 373.58 396.811V396.13Z" fill="var(--vscode-symbolIcon-variableForeground)"/>
            <path d="M482.537 410.09H484.239V413.495H482.537V410.09Z" fill="var(--vscode-symbolIcon-variableForeground)"/>
            <path d="M531.057 410.09H534.802C535.279 410.09 535.517 410.09 535.7 410.183C535.86 410.265 535.99 410.395 536.072 410.555C536.164 410.737 536.164 410.976 536.164 411.452V412.133C536.164 412.61 536.164 412.848 536.072 413.031C535.99 413.191 535.86 413.321 535.7 413.403C535.517 413.495 535.279 413.495 534.802 413.495H531.057V410.09Z" fill="var(--vscode-symbolIcon-variableForeground)"/>
            <path d="M373.58 411.452C373.58 410.976 373.58 410.737 373.673 410.555C373.754 410.395 373.885 410.265 374.045 410.183C374.227 410.09 374.465 410.09 374.942 410.09H391.456V413.495H374.942C374.465 413.495 374.227 413.495 374.045 413.403C373.885 413.321 373.754 413.191 373.673 413.031C373.58 412.848 373.58 412.61 373.58 412.133V411.452Z" fill="var(--vscode-symbolIcon-variableForeground)"/>
            <path d="M484.239 425.413H485.942V428.817H484.239V425.413Z" fill="var(--vscode-symbolIcon-variableForeground)"/>
            <path d="M537.867 425.413H541.612C542.089 425.413 542.327 425.413 542.509 425.505C542.67 425.587 542.8 425.717 542.881 425.877C542.974 426.059 542.974 426.298 542.974 426.774V427.455C542.974 427.932 542.974 428.171 542.881 428.353C542.8 428.513 542.67 428.643 542.509 428.725C542.327 428.817 542.089 428.817 541.612 428.817H537.867V425.413Z" fill="var(--vscode-symbolIcon-variableForeground)"/>
            <path d="M373.58 426.774C373.58 426.298 373.58 426.059 373.673 425.877C373.754 425.717 373.885 425.587 374.045 425.505C374.227 425.413 374.465 425.413 374.942 425.413H391.456V428.817H374.942C374.465 428.817 374.227 428.817 374.045 428.725C373.885 428.643 373.754 428.513 373.673 428.353C373.58 428.171 373.58 427.932 373.58 427.455V426.774Z" fill="var(--vscode-symbolIcon-variableForeground)"/>
            <path d="M496.157 440.735H497.859V444.14H496.157V440.735Z" fill="var(--vscode-symbolIcon-variableForeground)"/>
            <path d="M560.85 440.735H564.595C565.072 440.735 565.31 440.735 565.492 440.827C565.653 440.909 565.783 441.039 565.864 441.199C565.957 441.381 565.957 441.62 565.957 442.097V442.778C565.957 443.254 565.957 443.493 565.864 443.675C565.783 443.835 565.653 443.965 565.492 444.047C565.31 444.14 565.072 444.14 564.595 444.14H560.85V440.735Z" fill="var(--vscode-symbolIcon-variableForeground)"/>
            <path d="M373.58 442.097C373.58 441.62 373.58 441.381 373.673 441.199C373.754 441.039 373.885 440.909 374.045 440.827C374.227 440.735 374.465 440.735 374.942 440.735H391.456V444.14H374.942C374.465 444.14 374.227 444.14 374.045 444.047C373.885 443.965 373.754 443.835 373.673 443.675C373.58 443.493 373.58 443.254 373.58 442.778V442.097Z" fill="var(--vscode-symbolIcon-variableForeground)"/>
            <!-- greenblue -->
            <path d="M356.555 365.486C356.555 365.009 356.555 364.771 356.648 364.589C356.73 364.429 356.86 364.299 357.02 364.217C357.202 364.124 357.441 364.124 357.917 364.124H393.158V367.529H357.917C357.441 367.529 357.202 367.529 357.02 367.436C356.86 367.355 356.73 367.225 356.648 367.064C356.555 366.882 356.555 366.644 356.555 366.167V365.486Z" fill="var(--vscode-merge-currentHeaderBackground)"/>
            <!-- yellow -->
            <path d="M369.324 380.808C369.324 380.332 369.324 380.093 369.417 379.911C369.498 379.751 369.628 379.621 369.789 379.539C369.971 379.446 370.209 379.446 370.686 379.446H397.414V382.851H370.686C370.209 382.851 369.971 382.851 369.789 382.758C369.628 382.677 369.498 382.547 369.417 382.386C369.324 382.204 369.324 381.966 369.324 381.489V380.808Z" fill="var(--vscode-symbolIcon-enumeratorForeground)"/>
            <path d="M369.324 472.741C369.324 472.264 369.324 472.026 369.417 471.844C369.498 471.683 369.628 471.553 369.789 471.472C369.971 471.379 370.209 471.379 370.686 471.379H406.778V474.784H370.686C370.209 474.784 369.971 474.784 369.789 474.691C369.628 474.609 369.498 474.479 369.417 474.319C369.324 474.137 369.324 473.898 369.324 473.422V472.741Z" fill="var(--vscode-symbolIcon-enumeratorForeground)"/>
            <path d="M369.324 518.707C369.324 518.23 369.324 517.992 369.417 517.81C369.498 517.65 369.628 517.519 369.789 517.438C369.971 517.345 370.209 517.345 370.686 517.345H412.736V520.75H370.686C370.209 520.75 369.971 520.75 369.789 520.657C369.628 520.576 369.498 520.445 369.417 520.285C369.324 520.103 369.324 519.865 369.324 519.388V518.707Z" fill="var(--vscode-symbolIcon-enumeratorForeground)"/>
            <!-- white -->
            <path d="M399.117 379.446H419.035C419.512 379.446 419.751 379.446 419.933 379.539C420.093 379.621 420.223 379.751 420.305 379.911C420.397 380.093 420.397 380.332 420.397 380.808V381.489C420.397 381.966 420.397 382.204 420.305 382.386C420.223 382.547 420.093 382.677 419.933 382.758C419.751 382.851 419.512 382.851 419.035 382.851H399.117V379.446Z" fill="var(--vscode-symbolIcon-folderForeground)"/>
            <path d="M408.48 471.379H427.207V474.784H408.48V471.379Z" fill="var(--vscode-symbolIcon-folderForeground)"/>
            <path d="M414.439 517.345H433.166V520.75H414.439V517.345Z" fill="var(--vscode-symbolIcon-folderForeground)"/>
            <path d="M428.91 471.379H431.804C432.281 471.379 432.519 471.379 432.701 471.472C432.861 471.553 432.991 471.683 433.073 471.844C433.166 472.026 433.166 472.264 433.166 472.741V473.422C433.166 473.898 433.166 474.137 433.073 474.319C432.991 474.479 432.861 474.609 432.701 474.691C432.519 474.784 432.281 474.784 431.804 474.784H428.91V471.379Z" fill="var(--vscode-symbolIcon-folderForeground)"/>
            <path d="M434.868 517.345H437.762C438.239 517.345 438.478 517.345 438.66 517.438C438.82 517.519 438.95 517.65 439.032 517.81C439.124 517.992 439.124 518.23 439.124 518.707V519.388C439.124 519.865 439.124 520.103 439.032 520.285C438.95 520.445 438.82 520.576 438.66 520.657C438.478 520.75 438.239 520.75 437.762 520.75H434.868V517.345Z" fill="var(--vscode-symbolIcon-folderForeground)"/>
            <path d="M478.281 534.029C478.281 533.552 478.281 533.314 478.374 533.132C478.455 532.972 478.585 532.842 478.746 532.76C478.928 532.667 479.166 532.667 479.643 532.667H481.175C481.652 532.667 481.89 532.667 482.072 532.76C482.232 532.842 482.363 532.972 482.444 533.132C482.537 533.314 482.537 533.552 482.537 534.029V534.71C482.537 535.187 482.537 535.425 482.444 535.607C482.363 535.767 482.232 535.898 482.072 535.979C481.89 536.072 481.652 536.072 481.175 536.072H479.643C479.166 536.072 478.928 536.072 478.746 535.979C478.585 535.898 478.455 535.767 478.374 535.607C478.281 535.425 478.281 535.187 478.281 534.71V534.029Z" fill="var(--vscode-symbolIcon-folderForeground)"/>
            <path d="M391.456 394.768H432.655C433.132 394.768 433.37 394.768 433.552 394.861C433.712 394.943 433.843 395.073 433.924 395.233C434.017 395.415 434.017 395.654 434.017 396.13V396.811C434.017 397.288 434.017 397.526 433.924 397.709C433.843 397.869 433.712 397.999 433.552 398.081C433.37 398.173 433.132 398.173 432.655 398.173H391.456V394.768Z" fill="var(--vscode-symbolIcon-folderForeground)"/>
            <path d="M437.422 396.13C437.422 395.654 437.422 395.415 437.515 395.233C437.596 395.073 437.727 394.943 437.887 394.861C438.069 394.768 438.307 394.768 438.784 394.768H441.167C441.644 394.768 441.882 394.768 442.065 394.861C442.225 394.943 442.355 395.073 442.437 395.233C442.529 395.415 442.529 395.654 442.529 396.13V396.811C442.529 397.288 442.529 397.526 442.437 397.709C442.355 397.869 442.225 397.999 442.065 398.081C441.882 398.173 441.644 398.173 441.167 398.173H438.784C438.307 398.173 438.069 398.173 437.887 398.081C437.727 397.999 437.596 397.869 437.515 397.709C437.422 397.526 437.422 397.288 437.422 396.811V396.13Z" fill="var(--vscode-symbolIcon-folderForeground)"/>
            <path d="M445.934 396.13C445.934 395.654 445.934 395.415 446.027 395.233C446.109 395.073 446.239 394.943 446.399 394.861C446.581 394.768 446.819 394.768 447.296 394.768H474.025V398.173H447.296C446.819 398.173 446.581 398.173 446.399 398.081C446.239 397.999 446.109 397.869 446.027 397.709C445.934 397.526 445.934 397.288 445.934 396.811V396.13Z" fill="var(--vscode-symbolIcon-folderForeground)"/>
            <path d="M391.456 410.09H436.06C436.537 410.09 436.775 410.09 436.957 410.183C437.117 410.265 437.248 410.395 437.329 410.555C437.422 410.737 437.422 410.976 437.422 411.452V412.133C437.422 412.61 437.422 412.848 437.329 413.031C437.248 413.191 437.117 413.321 436.957 413.403C436.775 413.495 436.537 413.495 436.06 413.495H391.456V410.09Z" fill="var(--vscode-symbolIcon-folderForeground)"/>
            <path d="M440.827 411.452C440.827 410.976 440.827 410.737 440.92 410.555C441.001 410.395 441.131 410.265 441.292 410.183C441.474 410.09 441.712 410.09 442.189 410.09H447.126C447.603 410.09 447.841 410.09 448.023 410.183C448.183 410.265 448.313 410.395 448.395 410.555C448.488 410.737 448.488 410.976 448.488 411.452V412.133C448.488 412.61 448.488 412.848 448.395 413.031C448.313 413.191 448.183 413.321 448.023 413.403C447.841 413.495 447.603 413.495 447.126 413.495H442.189C441.712 413.495 441.474 413.495 441.292 413.403C441.131 413.321 441.001 413.191 440.92 413.031C440.827 412.848 440.827 412.61 440.827 412.133V411.452Z" fill="var(--vscode-symbolIcon-folderForeground)"/>
            <path d="M451.893 411.452C451.893 410.976 451.893 410.737 451.986 410.555C452.067 410.395 452.197 410.265 452.358 410.183C452.54 410.09 452.778 410.09 453.255 410.09H482.537V413.495H453.255C452.778 413.495 452.54 413.495 452.358 413.403C452.197 413.321 452.067 413.191 451.986 413.031C451.893 412.848 451.893 412.61 451.893 412.133V411.452Z" fill="var(--vscode-symbolIcon-folderForeground)"/>
            <path d="M391.456 425.413H442.019C442.495 425.413 442.734 425.413 442.916 425.505C443.076 425.587 443.206 425.717 443.288 425.877C443.381 426.059 443.381 426.298 443.381 426.774V427.455C443.381 427.932 443.381 428.171 443.288 428.353C443.206 428.513 443.076 428.643 442.916 428.725C442.734 428.817 442.495 428.817 442.019 428.817H391.456V425.413Z" fill="var(--vscode-symbolIcon-folderForeground)"/>
            <path d="M446.785 426.774C446.785 426.298 446.785 426.059 446.878 425.877C446.96 425.717 447.09 425.587 447.25 425.505C447.432 425.413 447.671 425.413 448.147 425.413H450.531C451.008 425.413 451.246 425.413 451.428 425.505C451.588 425.587 451.718 425.717 451.8 425.877C451.893 426.059 451.893 426.298 451.893 426.774V427.455C451.893 427.932 451.893 428.171 451.8 428.353C451.718 428.513 451.588 428.643 451.428 428.725C451.246 428.817 451.008 428.817 450.531 428.817H448.147C447.671 428.817 447.432 428.817 447.25 428.725C447.09 428.643 446.96 428.513 446.878 428.353C446.785 428.171 446.785 427.932 446.785 427.455V426.774Z" fill="var(--vscode-symbolIcon-folderForeground)"/>
            <path d="M455.298 426.774C455.298 426.298 455.298 426.059 455.391 425.877C455.472 425.717 455.602 425.587 455.763 425.505C455.945 425.413 456.183 425.413 456.66 425.413H484.239V428.817H456.66C456.183 428.817 455.945 428.817 455.763 428.725C455.602 428.643 455.472 428.513 455.391 428.353C455.298 428.171 455.298 427.932 455.298 427.455V426.774Z" fill="var(--vscode-symbolIcon-folderForeground)"/>
            <path d="M391.456 440.735H453.085C453.561 440.735 453.8 440.735 453.982 440.827C454.142 440.909 454.272 441.039 454.354 441.199C454.446 441.381 454.446 441.62 454.446 442.097V442.778C454.446 443.254 454.446 443.493 454.354 443.675C454.272 443.835 454.142 443.965 453.982 444.047C453.8 444.14 453.561 444.14 453.085 444.14H391.456V440.735Z" fill="var(--vscode-symbolIcon-folderForeground)"/>
            <path d="M457.851 442.097C457.851 441.62 457.851 441.381 457.944 441.199C458.026 441.039 458.156 440.909 458.316 440.827C458.498 440.735 458.737 440.735 459.213 440.735H461.597C462.074 440.735 462.312 440.735 462.494 440.827C462.654 440.909 462.784 441.039 462.866 441.199C462.959 441.381 462.959 441.62 462.959 442.097V442.778C462.959 443.254 462.959 443.493 462.866 443.675C462.784 443.835 462.654 443.965 462.494 444.047C462.312 444.14 462.074 444.14 461.597 444.14H459.213C458.737 444.14 458.498 444.14 458.316 444.047C458.156 443.965 458.026 443.835 457.944 443.675C457.851 443.493 457.851 443.254 457.851 442.778V442.097Z" fill="var(--vscode-symbolIcon-folderForeground)"/>
            <path d="M466.364 442.097C466.364 441.62 466.364 441.381 466.456 441.199C466.538 441.039 466.668 440.909 466.828 440.827C467.011 440.735 467.249 440.735 467.726 440.735H496.157V444.14H467.726C467.249 444.14 467.011 444.14 466.828 444.047C466.668 443.965 466.538 443.835 466.456 443.675C466.364 443.493 466.364 443.254 466.364 442.778V442.097Z" fill="var(--vscode-symbolIcon-folderForeground)"/>
            <path d="M423.802 380.808C423.802 380.332 423.802 380.093 423.895 379.911C423.977 379.751 424.107 379.621 424.267 379.539C424.449 379.446 424.688 379.446 425.164 379.446H451.893V382.851H425.164C424.688 382.851 424.449 382.851 424.267 382.758C424.107 382.677 423.977 382.547 423.895 382.386C423.802 382.204 423.802 381.966 423.802 381.489V380.808Z" fill="var(--vscode-symbolIcon-folderForeground)"/>
            <path d="M423.802 486.701H470.62V490.106H423.802V486.701Z" fill="var(--vscode-symbolIcon-folderForeground)"/>
            <path d="M423.802 532.667H473.514C473.991 532.667 474.229 532.667 474.411 532.76C474.571 532.842 474.702 532.972 474.783 533.132C474.876 533.314 474.876 533.552 474.876 534.029V534.71C474.876 535.187 474.876 535.425 474.783 535.607C474.702 535.767 474.571 535.898 474.411 535.979C474.229 536.072 473.991 536.072 473.514 536.072H423.802V532.667Z" fill="var(--vscode-symbolIcon-folderForeground)"/>
            <path d="M502.966 532.667H547.571C548.047 532.667 548.286 532.667 548.468 532.76C548.628 532.842 548.758 532.972 548.84 533.132C548.933 533.314 548.933 533.552 548.933 534.029V534.71C548.933 535.187 548.933 535.425 548.84 535.607C548.758 535.767 548.628 535.898 548.468 535.979C548.286 536.072 548.047 536.072 547.571 536.072H502.966V532.667Z" fill="var(--vscode-symbolIcon-folderForeground)"/>
            <path d="M393.158 364.124H395.201C395.678 364.124 395.916 364.124 396.098 364.217C396.258 364.299 396.389 364.429 396.47 364.589C396.563 364.771 396.563 365.009 396.563 365.486V366.167C396.563 366.644 396.563 366.882 396.47 367.064C396.389 367.225 396.258 367.355 396.098 367.436C395.916 367.529 395.678 367.529 395.201 367.529H393.158V364.124Z" fill="var(--vscode-symbolIcon-folderForeground)"/>
            <path d="M325.06 564.673C325.06 564.197 325.06 563.958 325.153 563.776C325.234 563.616 325.365 563.486 325.525 563.404C325.707 563.311 325.945 563.311 326.422 563.311H327.954C328.431 563.311 328.669 563.311 328.851 563.404C329.012 563.486 329.142 563.616 329.223 563.776C329.316 563.958 329.316 564.197 329.316 564.673V565.354C329.316 565.831 329.316 566.069 329.223 566.251C329.142 566.412 329.012 566.542 328.851 566.623C328.669 566.716 328.431 566.716 327.954 566.716H326.422C325.945 566.716 325.707 566.716 325.525 566.623C325.365 566.542 325.234 566.412 325.153 566.251C325.06 566.069 325.06 565.831 325.06 565.354V564.673Z" fill="var(--vscode-symbolIcon-folderForeground)" fill-opacity="0.45"/>
            <path d="M369.324 564.673C369.324 564.197 369.324 563.958 369.417 563.776C369.498 563.616 369.628 563.486 369.789 563.404C369.971 563.311 370.209 563.311 370.686 563.311H387.54C388.017 563.311 388.255 563.311 388.437 563.404C388.597 563.486 388.728 563.616 388.809 563.776C388.902 563.958 388.902 564.197 388.902 564.673V565.354C388.902 565.831 388.902 566.069 388.809 566.251C388.728 566.412 388.597 566.542 388.437 566.623C388.255 566.716 388.017 566.716 387.54 566.716H370.686C370.209 566.716 369.971 566.716 369.789 566.623C369.628 566.542 369.498 566.412 369.417 566.251C369.324 566.069 369.324 565.831 369.324 565.354V564.673Z" fill="var(--vscode-symbolIcon-folderForeground)" fill-opacity="0.45"/>
            <path d="M392.307 564.673C392.307 564.197 392.307 563.958 392.4 563.776C392.481 563.616 392.612 563.486 392.772 563.404C392.954 563.311 393.192 563.311 393.669 563.311H398.606C399.083 563.311 399.321 563.311 399.503 563.404C399.663 563.486 399.794 563.616 399.875 563.776C399.968 563.958 399.968 564.197 399.968 564.673V565.354C399.968 565.831 399.968 566.069 399.875 566.251C399.794 566.412 399.663 566.542 399.503 566.623C399.321 566.716 399.083 566.716 398.606 566.716H393.669C393.192 566.716 392.954 566.716 392.772 566.623C392.612 566.542 392.481 566.412 392.4 566.251C392.307 566.069 392.307 565.831 392.307 565.354V564.673Z" fill="var(--vscode-symbolIcon-folderForeground)" fill-opacity="0.45"/>
            <path d="M403.373 564.673C403.373 564.197 403.373 563.958 403.466 563.776C403.547 563.616 403.677 563.486 403.838 563.404C404.02 563.311 404.258 563.311 404.735 563.311H421.589C422.066 563.311 422.304 563.311 422.486 563.404C422.646 563.486 422.777 563.616 422.858 563.776C422.951 563.958 422.951 564.197 422.951 564.673V565.354C422.951 565.831 422.951 566.069 422.858 566.251C422.777 566.412 422.646 566.542 422.486 566.623C422.304 566.716 422.066 566.716 421.589 566.716H404.735C404.258 566.716 404.02 566.716 403.838 566.623C403.677 566.542 403.547 566.412 403.466 566.251C403.373 566.069 403.373 565.831 403.373 565.354V564.673Z" fill="var(--vscode-symbolIcon-folderForeground)" fill-opacity="0.45"/>
            <path d="M426.356 564.673C426.356 564.197 426.356 563.958 426.449 563.776C426.53 563.616 426.661 563.486 426.821 563.404C427.003 563.311 427.241 563.311 427.718 563.311H456.489C456.966 563.311 457.205 563.311 457.387 563.404C457.547 563.486 457.677 563.616 457.759 563.776C457.851 563.958 457.851 564.197 457.851 564.673V565.354C457.851 565.831 457.851 566.069 457.759 566.251C457.677 566.412 457.547 566.542 457.387 566.623C457.205 566.716 456.966 566.716 456.489 566.716H427.718C427.241 566.716 427.003 566.716 426.821 566.623C426.661 566.542 426.53 566.412 426.449 566.251C426.356 566.069 426.356 565.831 426.356 565.354V564.673Z" fill="var(--vscode-symbolIcon-folderForeground)" fill-opacity="0.45"/>
            <path d="M461.256 564.673C461.256 564.197 461.256 563.958 461.349 563.776C461.431 563.616 461.561 563.486 461.721 563.404C461.903 563.311 462.142 563.311 462.618 563.311H482.026C482.503 563.311 482.741 563.311 482.923 563.404C483.084 563.486 483.214 563.616 483.295 563.776C483.388 563.958 483.388 564.197 483.388 564.673V565.354C483.388 565.831 483.388 566.069 483.295 566.251C483.214 566.412 483.084 566.542 482.923 566.623C482.741 566.716 482.503 566.716 482.026 566.716H462.618C462.142 566.716 461.903 566.716 461.721 566.623C461.561 566.542 461.431 566.412 461.349 566.251C461.256 566.069 461.256 565.831 461.256 565.354V564.673Z" fill="var(--vscode-symbolIcon-folderForeground)" fill-opacity="0.45"/>
            <path d="M332.721 564.673C332.721 564.197 332.721 563.958 332.814 563.776C332.895 563.616 333.026 563.486 333.186 563.404C333.368 563.311 333.606 563.311 334.083 563.311H364.557C365.034 563.311 365.272 563.311 365.454 563.404C365.614 563.486 365.744 563.616 365.826 563.776C365.919 563.958 365.919 564.197 365.919 564.673V565.354C365.919 565.831 365.919 566.069 365.826 566.251C365.744 566.412 365.614 566.542 365.454 566.623C365.272 566.716 365.034 566.716 364.557 566.716H334.083C333.606 566.716 333.368 566.716 333.186 566.623C333.026 566.542 332.895 566.412 332.814 566.251C332.721 566.069 332.721 565.831 332.721 565.354V564.673Z" fill="var(--vscode-symbolIcon-folderForeground)" fill-opacity="0.45"/>
            <path d="M325.06 578.293C325.06 577.816 325.06 577.578 325.153 577.396C325.234 577.236 325.365 577.105 325.525 577.024C325.707 576.931 325.945 576.931 326.422 576.931H360.301C360.778 576.931 361.016 576.931 361.198 577.024C361.358 577.105 361.488 577.236 361.57 577.396C361.663 577.578 361.663 577.816 361.663 578.293V578.974C361.663 579.451 361.663 579.689 361.57 579.871C361.488 580.031 361.358 580.161 361.198 580.243C361.016 580.336 360.778 580.336 360.301 580.336H326.422C325.945 580.336 325.707 580.336 325.525 580.243C325.365 580.161 325.234 580.031 325.153 579.871C325.06 579.689 325.06 579.451 325.06 578.974V578.293Z" fill="var(--vscode-symbolIcon-folderForeground)" fill-opacity="0.45"/>
            <!-- green -->
            <path d="M411.034 576.931H413.928C414.405 576.931 414.643 576.931 414.825 577.024C414.985 577.105 415.116 577.236 415.197 577.396C415.29 577.578 415.29 577.816 415.29 578.293V578.974C415.29 579.451 415.29 579.689 415.197 579.871C415.116 580.031 414.985 580.161 414.825 580.243C414.643 580.336 414.405 580.336 413.928 580.336H411.034V576.931Z" fill="var(--vscode-editorOverviewRuler-currentContentForeground)"/>
            <!-- violet -->
            <path d="M373.58 488.063C373.58 487.586 373.58 487.348 373.673 487.166C373.754 487.005 373.885 486.875 374.045 486.794C374.227 486.701 374.465 486.701 374.942 486.701H401.16C401.636 486.701 401.875 486.701 402.057 486.794C402.217 486.875 402.347 487.005 402.429 487.166C402.522 487.348 402.522 487.586 402.522 488.063V488.744C402.522 489.221 402.522 489.459 402.429 489.641C402.347 489.801 402.217 489.931 402.057 490.013C401.875 490.106 401.636 490.106 401.16 490.106H374.942C374.465 490.106 374.227 490.106 374.045 490.013C373.885 489.931 373.754 489.801 373.673 489.641C373.58 489.459 373.58 489.221 373.58 488.744V488.063Z" fill="var(--vscode-symbolIcon-functionForeground)"/>
            <path d="M373.58 534.029C373.58 533.552 373.58 533.314 373.673 533.132C373.754 532.972 373.885 532.842 374.045 532.76C374.227 532.667 374.465 532.667 374.942 532.667H400.308C400.785 532.667 401.024 532.667 401.206 532.76C401.366 532.842 401.496 532.972 401.578 533.132C401.67 533.314 401.67 533.552 401.67 534.029V534.71C401.67 535.187 401.67 535.425 401.578 535.607C401.496 535.767 401.366 535.898 401.206 535.979C401.024 536.072 400.785 536.072 400.308 536.072H374.942C374.465 536.072 374.227 536.072 374.045 535.979C373.885 535.898 373.754 535.767 373.673 535.607C373.58 535.425 373.58 535.187 373.58 534.71V534.029Z" fill="var(--vscode-symbolIcon-functionForeground)"/>
            <!-- red -->
            <path d="M475.727 394.768H520.842V398.173H475.727V394.768Z" fill="var(--vscode-list-errorForeground)"/>
            <path d="M484.239 410.09H531.057V413.495H484.239V410.09Z" fill="var(--vscode-list-errorForeground)"/>
            <path d="M485.942 425.413H537.867V428.817H485.942V425.413Z" fill="var(--vscode-list-errorForeground)"/>
            <path d="M497.859 440.735H560.85V444.14H497.859V440.735Z" fill="var(--vscode-list-errorForeground)"/>
            <path d="M349.746 593.615C349.746 593.138 349.746 592.9 349.838 592.718C349.92 592.558 350.05 592.427 350.21 592.346C350.392 592.253 350.631 592.253 351.108 592.253H394.861V595.658H351.108C350.631 595.658 350.392 595.658 350.21 595.565C350.05 595.484 349.92 595.353 349.838 595.193C349.746 595.011 349.746 594.773 349.746 594.296V593.615Z" fill="var(--vscode-list-errorForeground)"/>
            <path d="M401.67 593.615C401.67 593.138 401.67 592.9 401.763 592.718C401.845 592.558 401.975 592.427 402.135 592.346C402.317 592.253 402.556 592.253 403.032 592.253H469.258C469.735 592.253 469.973 592.253 470.155 592.346C470.315 592.427 470.445 592.558 470.527 592.718C470.62 592.9 470.62 593.138 470.62 593.615V594.296C470.62 594.773 470.62 595.011 470.527 595.193C470.445 595.353 470.315 595.484 470.155 595.565C469.973 595.658 469.735 595.658 469.258 595.658H403.032C402.556 595.658 402.317 595.658 402.135 595.565C401.975 595.484 401.845 595.353 401.763 595.193C401.67 595.011 401.67 594.773 401.67 594.296V593.615Z" fill="var(--vscode-list-errorForeground)"/>
        </g>
    
        <path d="M190.393 290.567H669.129C671.938 290.567 674.014 290.568 675.656 290.702C677.293 290.836 678.455 291.1 679.442 291.603C681.229 292.514 682.683 293.967 683.594 295.755C684.097 296.742 684.361 297.904 684.494 299.54C684.629 301.183 684.629 303.259 684.629 306.067V454.558C684.629 485.369 684.629 508.448 683.132 526.765C681.636 545.077 678.647 558.587 672.694 570.27C662.196 590.874 645.445 607.625 624.841 618.123C613.158 624.076 599.648 627.065 581.336 628.561C563.018 630.058 539.94 630.058 509.129 630.058H190.393C187.584 630.058 185.508 630.058 183.866 629.924C182.229 629.79 181.067 629.526 180.08 629.023C178.292 628.112 176.839 626.659 175.928 624.871C175.425 623.884 175.161 622.722 175.027 621.085C174.893 619.443 174.893 617.367 174.893 614.558V306.067C174.893 303.259 174.893 301.183 175.027 299.54C175.161 297.904 175.425 296.742 175.928 295.755C176.839 293.967 178.292 292.514 180.08 291.603C181.067 291.1 182.229 290.836 183.866 290.702C185.508 290.568 187.584 290.567 190.393 290.567Z" stroke="var(--vscode-foreground)" stroke-opacity="0.1"/>
    </g>

    <!-- borders -->
    <path d="M254.976 270.773H195.098C181.097 270.773 174.096 270.773 168.749 273.498C164.044 275.895 160.22 279.719 157.823 284.423C155.098 289.771 155.098 296.772 155.098 310.773V384.27" stroke="var(--vscode-tab-activeForeground)" stroke-width="2" stroke-linecap="round"/>
    <path d="M440.543 270.773H664.423C678.425 270.773 685.425 270.773 690.773 273.498C695.477 275.895 699.302 279.719 701.699 284.423C704.423 289.771 704.423 296.772 704.423 310.773V378.595" stroke="var(--vscode-tab-activeForeground)" stroke-width="2" stroke-linecap="round"/>
    <path d="M155.098 601.049V609.853C155.098 623.854 155.098 630.855 157.823 636.202C160.22 640.907 164.045 644.731 168.749 647.128C174.096 649.853 181.097 649.853 195.098 649.853H452.46" stroke="var(--vscode-tab-activeForeground)" stroke-width="2" stroke-linecap="round"/>
    
    <!-- cloud -->
    <mask id="mask0_242_122681" maskUnits="userSpaceOnUse" x="87" y="12" width="740" height="418">
        <path fill-rule="evenodd" clip-rule="evenodd" d="M827 12H87V429.669H827V12ZM547.798 145.926C547.798 173.544 526.752 196.823 499.88 199.27H479.989H356.93C331.966 199.27 311.724 178.941 311.724 153.871C311.724 128.801 331.966 108.346 356.93 108.346C359.516 108.346 362.053 108.598 364.539 109.027C366.146 77.7525 391.382 52.8588 422.951 52.8588C449.773 52.8588 472.907 70.8166 480.09 95.4076C484.836 93.9952 489.859 93.2133 495.058 93.2133C524.19 93.2133 547.798 116.669 547.798 145.926Z" fill="var(--vscode-sideBar-background, #222024)"/>
    </mask>

    <!-- small lights -->
    <g mask="url(#mask0_242_122681)">
        <g filter="url(#filter4_f_242_122681)">
            <g filter="url(#filter5_f_242_122681)">
                <circle cx="493.886" cy="145.359" r="78.8804" fill="url(#paint3_radial_242_122681)"/>
            </g>
            <g filter="url(#filter6_f_242_122681)">
                <circle cx="422.518" cy="107.31" r="75.4755" fill="url(#paint4_radial_242_122681)"/>
            </g>
            <g filter="url(#filter7_f_242_122681)">
                <circle cx="357.905" cy="152.708" r="70.9356" fill="url(#paint5_radial_242_122681)"/>
            </g>
        </g>
    </g>

    <path d="M499.88 199.27C526.752 196.823 547.798 173.544 547.798 145.926C547.798 116.669 524.19 93.2134 495.058 93.2134C489.859 93.2134 484.836 93.9952 480.09 95.4076C472.907 70.8166 449.773 52.8589 422.951 52.8589C391.382 52.8589 366.146 77.7525 364.539 109.027C362.053 108.598 359.516 108.346 356.93 108.346C331.966 108.346 311.724 128.801 311.724 153.871C311.724 178.941 331.966 199.27 356.93 199.27H479.989" stroke="var(--vscode-tab-activeForeground)" stroke-width="2" stroke-miterlimit="10" stroke-linecap="round" stroke-linejoin="round"/>
    <path d="M429.761 199.27V269.773C429.761 270.325 430.208 270.773 430.761 270.773H445.65" stroke="var(--vscode-tab-activeForeground)" stroke-width="2" stroke-miterlimit="10" stroke-linejoin="round"/>
    <path d="M332.153 244.669C337.168 244.669 341.233 240.604 341.233 235.589C341.233 230.574 337.168 226.509 332.153 226.509C327.139 226.509 323.074 230.574 323.074 235.589C323.074 240.604 327.139 244.669 332.153 244.669Z" stroke="var(--vscode-tab-activeForeground)" stroke-width="2" stroke-miterlimit="10"/>
    <path d="M531.908 244.669C536.923 244.669 540.988 240.604 540.988 235.589C540.988 230.574 536.923 226.509 531.908 226.509C526.893 226.509 522.828 230.574 522.828 235.589C522.828 240.604 526.893 244.669 531.908 244.669Z" stroke="var(--vscode-tab-activeForeground)" stroke-width="2" stroke-miterlimit="10"/>
    <path d="M388.902 199.144V233.989C388.902 234.549 388.902 234.829 388.793 235.043C388.697 235.231 388.544 235.384 388.356 235.48C388.142 235.589 387.862 235.589 387.302 235.589H341.861" stroke="var(--vscode-tab-activeForeground)" stroke-width="2" stroke-miterlimit="10" stroke-linejoin="round"/>
    <path d="M469.485 199.144V233.989C469.485 234.549 469.485 234.829 469.594 235.043C469.689 235.231 469.842 235.384 470.031 235.48C470.245 235.589 470.525 235.589 471.085 235.589H523.199" stroke="var(--vscode-tab-activeForeground)" stroke-width="2" stroke-miterlimit="10" stroke-linejoin="round"/>
    <path d="M704.423 396.755C709.438 396.755 713.503 392.689 713.503 387.675C713.503 382.66 709.438 378.595 704.423 378.595C699.409 378.595 695.344 382.66 695.344 387.675C695.344 392.689 699.409 396.755 704.423 396.755Z" stroke="var(--vscode-tab-activeForeground)" stroke-width="2" stroke-miterlimit="10"/>
    
    <defs>
        <filter id="filter0_f_242_122681" x="0.945312" y="128.779" width="863.055" height="591.221" filterUnits="userSpaceOnUse" color-interpolation-filters="sRGB">
            <feFlood flood-opacity="0" result="BackgroundImageFix"/>
            <feBlend mode="normal" in="SourceGraphic" in2="BackgroundImageFix" result="shape"/>
            <feGaussianBlur stdDeviation="30" result="effect1_foregroundBlur_242_122681"/>
        </filter>
        <filter id="filter1_f_242_122681" x="30.9453" y="158.779" width="511.132" height="511.132" filterUnits="userSpaceOnUse" color-interpolation-filters="sRGB">
            <feFlood flood-opacity="0" result="BackgroundImageFix"/>
            <feBlend mode="normal" in="SourceGraphic" in2="BackgroundImageFix" result="shape"/>
            <feGaussianBlur stdDeviation="15" result="effect1_foregroundBlur_242_122681"/>
        </filter>
        <filter id="filter2_f_242_122681" x="438" y="195" width="396" height="396" filterUnits="userSpaceOnUse" color-interpolation-filters="sRGB">
            <feFlood flood-opacity="0" result="BackgroundImageFix"/>
            <feBlend mode="normal" in="SourceGraphic" in2="BackgroundImageFix" result="shape"/>
            <feGaussianBlur stdDeviation="15" result="effect1_foregroundBlur_242_122681"/>
        </filter>
        <filter id="filter3_f_242_122681" x="386" y="328" width="363" height="362" filterUnits="userSpaceOnUse" color-interpolation-filters="sRGB">
            <feFlood flood-opacity="0" result="BackgroundImageFix"/>
            <feBlend mode="normal" in="SourceGraphic" in2="BackgroundImageFix" result="shape"/>
            <feGaussianBlur stdDeviation="15" result="effect1_foregroundBlur_242_122681"/>
        </filter>
        <filter id="filter4_f_242_122681" x="256.969" y="1.83423" width="345.798" height="252.405" filterUnits="userSpaceOnUse" color-interpolation-filters="sRGB">
            <feFlood flood-opacity="0" result="BackgroundImageFix"/>
            <feBlend mode="normal" in="SourceGraphic" in2="BackgroundImageFix" result="shape"/>
            <feGaussianBlur stdDeviation="15" result="effect1_foregroundBlur_242_122681"/>
        </filter>
        <filter id="filter5_f_242_122681" x="395.006" y="46.4784" width="197.761" height="197.761" filterUnits="userSpaceOnUse" color-interpolation-filters="sRGB">
            <feFlood flood-opacity="0" result="BackgroundImageFix"/>
            <feBlend mode="normal" in="SourceGraphic" in2="BackgroundImageFix" result="shape"/>
            <feGaussianBlur stdDeviation="10" result="effect1_foregroundBlur_242_122681"/>
        </filter>
        <filter id="filter6_f_242_122681" x="327.043" y="11.8342" width="190.951" height="190.951" filterUnits="userSpaceOnUse" color-interpolation-filters="sRGB">
            <feFlood flood-opacity="0" result="BackgroundImageFix"/>
            <feBlend mode="normal" in="SourceGraphic" in2="BackgroundImageFix" result="shape"/>
            <feGaussianBlur stdDeviation="10" result="effect1_foregroundBlur_242_122681"/>
        </filter>
        <filter id="filter7_f_242_122681" x="266.969" y="61.7729" width="181.871" height="181.871" filterUnits="userSpaceOnUse" color-interpolation-filters="sRGB">
            <feFlood flood-opacity="0" result="BackgroundImageFix"/>
            <feBlend mode="normal" in="SourceGraphic" in2="BackgroundImageFix" result="shape"/>
            <feGaussianBlur stdDeviation="10" result="effect1_foregroundBlur_242_122681"/>
        </filter>
        <radialGradient id="paint0_radial_242_122681" cx="0" cy="0" r="1" gradientUnits="userSpaceOnUse" gradientTransform="translate(286.511 414.345) rotate(89.5818) scale(216.107)">
            <stop offset="0.213542" stop-color="#7759C2"/>
            <stop offset="1" stop-color="#7759C2" stop-opacity="0"/>
        </radialGradient>
        <radialGradient id="paint1_radial_242_122681" cx="0" cy="0" r="1" gradientUnits="userSpaceOnUse" gradientTransform="translate(636 393) rotate(89.5818) scale(160.955)">
            <stop stop-color="#D64028"/>
            <stop offset="1" stop-color="#D64028" stop-opacity="0"/>
        </radialGradient>
        <radialGradient id="paint2_radial_242_122681" cx="0" cy="0" r="1" gradientUnits="userSpaceOnUse" gradientTransform="translate(567.5 509) rotate(89.5804) scale(144.668 145.147)">
            <stop offset="0.427083" stop-color="#EF76F1"/>
            <stop offset="1" stop-color="#EF76F1" stop-opacity="0"/>
        </radialGradient>
        <radialGradient id="paint3_radial_242_122681" cx="0" cy="0" r="1" gradientUnits="userSpaceOnUse" gradientTransform="translate(493.886 145.359) rotate(89.5818) scale(75.5727)">
            <stop offset="0.546875" stop-color="#7759C2"/>
            <stop offset="1" stop-color="#7759C2" stop-opacity="0"/>
        </radialGradient>
        <radialGradient id="paint4_radial_242_122681" cx="0" cy="0" r="1" gradientUnits="userSpaceOnUse" gradientTransform="translate(422.518 107.31) rotate(89.5818) scale(72.3106)">
            <stop offset="0.515625" stop-color="#D64028"/>
            <stop offset="1" stop-color="#D64028" stop-opacity="0"/>
        </radialGradient>
        <radialGradient id="paint5_radial_242_122681" cx="0" cy="0" r="1" gradientUnits="userSpaceOnUse" gradientTransform="translate(357.905 152.708) rotate(89.5818) scale(67.9611)">
            <stop offset="0.291667" stop-color="#EF76F1"/>
            <stop offset="1" stop-color="#EF76F1" stop-opacity="0"/>
        </radialGradient>
        <clipPath id="clip0_242_122681">
            <path d="M174.393 306.067C174.393 300.467 174.393 297.667 175.483 295.528C176.441 293.646 177.971 292.116 179.853 291.157C181.992 290.067 184.792 290.067 190.393 290.067H669.129C674.73 290.067 677.53 290.067 679.669 291.157C681.551 292.116 683.08 293.646 684.039 295.528C685.129 297.667 685.129 300.467 685.129 306.067V454.558C685.129 516.164 685.129 546.967 673.14 570.497C662.594 591.195 645.766 608.023 625.068 618.569C601.538 630.558 570.735 630.558 509.129 630.558H190.393C184.792 630.558 181.992 630.558 179.853 629.468C177.971 628.51 176.441 626.98 175.483 625.098C174.393 622.959 174.393 620.159 174.393 614.558V306.067Z" fill="white"/>
        </clipPath>
    </defs>
</svg>
